<?xml version="1.0" encoding="utf-8"?>
<!-- Generator: Adobe Illustrator 19.0.0, SVG Export Plug-In . SVG Version: 6.00 Build 0)  -->
<svg version="1.1" id="Layer_1" xmlns="http://www.w3.org/2000/svg" xmlns:xlink="http://www.w3.org/1999/xlink" x="0px" y="0px"
	 viewBox="0 0 221.5 213.4" style="enable-background:new 0 0 221.5 213.4;" xml:space="preserve">
<style type="text/css">
	.st0{fill:#EEA208;}
	.st1{fill:#F69A84;}
	.st2{fill:#F4806A;}
	.st3{fill:#F0B02A;}
	.st4{fill:#F9C470;}
	.st5{fill:#1C99C6;}
	.st6{fill:#262426;}
	.st7{fill:#FFFFFF;}
	.st8{fill:#7D7677;}
	.st9{fill:#524D4E;}
	.st10{fill:#F16452;}
</style>
<g id="XMLID_1_">
	<g id="XMLID_52_">
		<g id="XMLID_72_">
			<g id="XMLID_73_">
				<g id="XMLID_74_">
					<g id="XMLID_84_">
						<path id="XMLID_91_" class="st0" d="M69.4,35.9c-3.1,5.1-6.9,9.9-11.1,14.4c6.5,7.6,9.8,13,9.8,13
							c17.2,9.4,19.1,42.3-9.9,39.4C39.1,101,25.6,90.3,18.3,77C13.7,78.7,8.9,80.1,4,81c6.1,18.5,20.4,32.5,49.9,31.7
							c28.6-3,33-36.7,28.6-49.3C82.5,63.4,79.8,50.4,69.4,35.9z"/>
						<path id="XMLID_88_" class="st1" d="M12.2,54.9c0.3,7.5,2.3,15.2,6.1,22.1c15.3-5.6,29.2-15.1,40-26.6
							c-5.7-6.7-13.9-15.1-24.6-23C10.5,10.1,11.2,22.5,12.2,54.9z"/>
						<path id="XMLID_85_" class="st2" d="M58.2,102.9c29,2.9,27-30,9.9-39.4c0,0-3.2-5.4-9.8-13C47.6,61.9,33.7,71.3,18.3,77
							C25.6,90.3,39.1,101,58.2,102.9z"/>
					</g>
					<path id="XMLID_81_" class="st3" d="M4,81c4.9-1,9.7-2.3,14.3-4.1c-3.8-6.9-5.8-14.6-6.1-22.1c-0.1-2.9-0.2-5.7-0.3-8.3
						C8.1,48,4.1,49.1,0,49.9C-0.2,60.5,0.8,71.4,4,81z"/>
					<path id="XMLID_78_" class="st3" d="M45.3,13.3c-2.7,5.6-5.8,10.9-9.5,15.6c9.7,7.5,17.2,15.2,22.5,21.4
						c4.2-4.5,8-9.4,11.1-14.4C63.8,28.2,56.1,20.1,45.3,13.3z"/>
					<path id="XMLID_75_" class="st4" d="M11.1,0.1c-3.9-0.9-5,7.8-5,7.8c-2.4,9.3-5.8,25.3-6.1,42c4.1-0.8,8-1.9,11.9-3.3
						c-0.7-26,0.6-34.9,21.7-19.2c0.7,0.5,1.4,1.1,2.2,1.6c3.7-4.7,6.8-10.1,9.5-15.6C36.2,7.6,24.9,2.8,11.1,0.1z"/>
				</g>
			</g>
		</g>
		<g id="XMLID_56_">
			<g id="XMLID_57_">
				<g id="XMLID_58_">
					<g id="XMLID_62_">
						<path id="XMLID_69_" class="st0" d="M152.1,40.8c3.1,5.1,6.9,9.9,11.1,14.4c-6.5,7.6-9.8,13-9.8,13
							c-17.2,9.4-19.1,42.3,9.9,39.4c19.1-1.9,32.6-12.6,39.9-25.9c4.7,1.7,9.5,3.1,14.3,4.1c-6.1,18.5-20.4,32.5-49.9,31.7
							c-28.6-3-33-36.7-28.6-49.3C139,68.3,141.7,55.3,152.1,40.8z"/>
						<path id="XMLID_66_" class="st1" d="M209.3,59.8c-0.3,7.5-2.3,15.2-6.1,22.1c-15.3-5.6-29.2-15.1-40-26.6
							c5.7-6.7,13.9-15,24.6-23C211,15,210.3,27.4,209.3,59.8z"/>
						<path id="XMLID_63_" class="st2" d="M163.3,107.8c-29,2.9-27-30-9.9-39.4c0,0,3.2-5.4,9.8-13c10.7,11.5,24.6,20.9,40,26.6
							C195.9,95.2,182.4,105.9,163.3,107.8z"/>
					</g>
					<path id="XMLID_59_" class="st3" d="M210.4,5c3.9-0.9,5,7.8,5,7.8c3.9,15.2,10.4,48.2,2.1,73.1c-4.9-1-9.7-2.3-14.3-4.1
						c3.8-6.9,5.8-14.6,6.1-22.1c1.1-32.3,1.7-44.7-21.4-27.5c-10.7,8-18.9,16.4-24.6,23c-4.2-4.5-8-9.4-11.1-14.4
						C162.4,26.6,180.2,11,210.4,5z"/>
				</g>
			</g>
		</g>
		<path id="XMLID_53_" class="st3" d="M207.6,106.6c0,0-12.4-33.9-61.4-50.4C97.1,39.5,21,55.6,15.7,110.9
			c-5.3,55.3,57.1,116.7,48.4,81.8c0,0,6.7,9.5,16.4,13.3c9.7,3.8,3.8-11.8,3.8-11.8s6.8,11,16.1,14.4c9.3,3.4,11.2-7.7,13.4-12.7
			c0,0,3.4,14.7,9.5,15.7c6.1,1,12.7-19.2,12.7-19.2s-5,21.6,1.3,20.8c6.3-0.7,13.2-20,13.2-20s-1.3,13.8,5,15.4
			c6.3,1.6,12-21,12-21s-1,16.2,3.6,16.8C175.6,205,223.2,160.5,207.6,106.6z"/>
	</g>
	<g id="XMLID_37_">
		<g id="XMLID_45_">
			<g id="XMLID_46_">
				<g id="XMLID_47_">
					<path id="XMLID_51_" class="st5" d="M86.2,118.8c0,8.2-6.6,14.8-14.8,14.8c-8.2,0-14.8-6.6-14.8-14.8c0-8.2,6.6-14.8,14.8-14.8
						C79.6,103.9,86.2,110.6,86.2,118.8z"/>
					<ellipse id="XMLID_50_" class="st6" cx="71.4" cy="118.8" rx="8.4" ry="11.6"/>
					<circle id="XMLID_49_" class="st7" cx="66" cy="113.2" r="6.7"/>
					<circle id="XMLID_48_" class="st7" cx="67.1" cy="128.1" r="3.5"/>
				</g>
			</g>
		</g>
		<g id="XMLID_38_">
			<g id="XMLID_39_">
				<g id="XMLID_40_">
					<path id="XMLID_44_" class="st5" d="M171.8,118.8c0,8.2-6.6,14.8-14.8,14.8c-8.2,0-14.8-6.6-14.8-14.8
						c0-8.2,6.6-14.8,14.8-14.8C165.2,103.9,171.8,110.6,171.8,118.8z"/>
					<ellipse id="XMLID_43_" class="st6" cx="157" cy="118.8" rx="8.4" ry="11.6"/>
					<circle id="XMLID_42_" class="st7" cx="151.7" cy="113.2" r="6.7"/>
					<circle id="XMLID_41_" class="st7" cx="152.7" cy="128.1" r="3.5"/>
				</g>
			</g>
		</g>
	</g>
	<path id="XMLID_34_" class="st4" d="M121.3,142.6c0,0,19.9-9.1,29.6-3.8c12.3,6.8,13.1,42.4-30.6,44.6
		c-43.7,2.2-57.5-32.8-46.6-43.4c10.9-10.6,31.3,0.3,31.3,0.3l15.3,2.7"/>
	<g id="XMLID_25_">
		<g id="XMLID_30_">
			<path id="XMLID_33_" class="st8" d="M77.5,137.6c-8.1-2.2-16.3-3.9-24.5-4.6c-8.5-0.7-17.1-1.3-25.6-1.5c-4.8-0.1-9.5-0.1-14.3,0
				c-0.9,0-0.7,1.9,0.2,1.8c8.6-0.3,17.1,0,25.7,0.5c8.4,0.5,16.8,1,25.1,2.5c4.4,0.8,8.8,1.9,13.2,3.1
				C78.2,139.7,78.4,137.9,77.5,137.6z"/>
			<path id="XMLID_32_" class="st8" d="M78,148.8c-8.2,1.1-16.4,2.8-24.4,5.4c-8.3,2.7-16.6,5.6-24.7,8.8c-4.6,1.8-9.1,3.7-13.6,5.7
				c-0.9,0.4-0.2,2.1,0.6,1.7c8.1-3.7,16.3-6.9,24.6-9.8c8.1-2.9,16.2-5.8,24.5-7.6c4.4-1,8.8-1.8,13.3-2.4
				C79.2,150.5,78.9,148.6,78,148.8z"/>
			<path id="XMLID_31_" class="st8" d="M81.3,142.6c-8.3-0.8-16.5-1.1-24.8-0.4c-8.5,0.7-17.1,1.6-25.6,2.8
				c-4.7,0.7-9.5,1.5-14.2,2.4c-0.9,0.2-0.5,2,0.4,1.8c8.5-1.8,17-2.9,25.5-3.8c8.4-0.9,16.8-1.8,25.2-1.7c4.5,0.1,8.9,0.4,13.4,0.8
				C82.2,144.5,82.2,142.7,81.3,142.6z"/>
		</g>
		<g id="XMLID_26_">
			<path id="XMLID_29_" class="st8" d="M150.9,140.2c8.1-2.2,16.3-3.9,24.5-4.6c8.5-0.7,17.1-1.3,25.6-1.5c4.8-0.1,9.5-0.1,14.3,0
				c0.9,0,0.7,1.9-0.2,1.8c-8.6-0.3-17.2,0-25.7,0.5c-8.4,0.5-16.8,1-25.1,2.5c-4.4,0.8-8.8,1.9-13.2,3.1
				C150.2,142.3,150,140.4,150.9,140.2z"/>
			<path id="XMLID_28_" class="st8" d="M150.4,151.3c8.2,1.1,16.4,2.8,24.4,5.4c8.3,2.7,16.6,5.6,24.7,8.8c4.6,1.8,9.1,3.7,13.6,5.7
				c0.9,0.4,0.2,2.1-0.6,1.7c-8.1-3.7-16.3-6.9-24.6-9.8c-8.1-2.9-16.2-5.8-24.5-7.6c-4.4-1-8.8-1.8-13.3-2.4
				C149.2,153,149.5,151.2,150.4,151.3z"/>
			<path id="XMLID_27_" class="st8" d="M147.1,145.1c8.3-0.8,16.5-1.1,24.8-0.4c8.5,0.7,17.1,1.6,25.6,2.8c4.7,0.7,9.5,1.5,14.2,2.4
				c0.9,0.2,0.5,2-0.4,1.8c-8.5-1.8-17-2.9-25.5-3.8c-8.4-0.9-16.8-1.8-25.2-1.7c-4.5,0.1-8.9,0.3-13.4,0.8
				C146.2,147.1,146.2,145.2,147.1,145.1z"/>
		</g>
	</g>
	<path id="XMLID_22_" class="st4" d="M135.8,110.5c0,0-17.7-9-11.9-19C129.6,81.6,152.9,113.5,135.8,110.5z"/>
	<path id="XMLID_19_" class="st4" d="M92.6,110.5c0,0,17.7-9,11.9-19C98.7,81.6,75.4,113.5,92.6,110.5z"/>
	<path id="XMLID_16_" class="st9" d="M132.2,159.6c-2,2.1-4.5,3.7-7.4,4c-2.8,0.3-6.1-0.6-8-2.8c-0.4-0.5-0.8-1-1.1-1.6
		c0.6-1.7,0.9-3.5,1.1-5.3c0.6-4.3,0.4-8.7-0.4-12.9c-0.4-1.8-3.1-1.2-2.8,0.6c0.7,3.4,0.8,6.8,0.5,10.2c-0.2,2.8-0.4,5.8-2,8.1
		c-1.6,2.4-4.7,3.8-7.5,3.9c-2.9,0.1-5.7-1.1-7.9-2.9c-1.4-1.1-3,1.2-1.6,2.4c5.4,4.3,13.5,4.7,18.5-0.7c0.2-0.2,0.4-0.4,0.5-0.6
		c0.5,0.6,1,1.2,1.6,1.7c5.7,4.6,13.6,3,18.4-2C135.3,160.4,133.5,158.3,132.2,159.6z"/>
	<g id="XMLID_3_">
		<g id="XMLID_94_">
			<g id="XMLID_97_">
				<path id="XMLID_98_" class="st2" d="M103.7,138.1c-2.9,2.3-2.2,3.3-1.7,4.3c0.8,1.5,6.5,4.9,6.5,4.9s3.3,4.1,6.3,3.9
					c3.2-0.2,6.2-3.6,6.2-3.6s3-1.7,6.1-4.7c0,0,0.8-1.7-1.3-4.1C118.5,141,110.8,140.4,103.7,138.1z"/>
			</g>
			<g id="XMLID_95_">
				<path id="XMLID_96_" class="st10" d="M114.6,135.3c-5.6,0-9,1.2-11,2.8c7.2,2.3,14.9,2.8,22.1,0.7
					C124.2,137,121,135.3,114.6,135.3z"/>
			</g>
		</g>
	</g>
</g>
</svg>
