<?xml version="1.0" encoding="utf-8"?>
<!-- Generator: Adobe Illustrator 19.0.0, SVG Export Plug-In . SVG Version: 6.00 Build 0)  -->
<svg version="1.1" id="Layer_1" xmlns="http://www.w3.org/2000/svg" xmlns:xlink="http://www.w3.org/1999/xlink" x="0px" y="0px"
	 viewBox="0 0 194.7 169.5" style="enable-background:new 0 0 194.7 169.5;" xml:space="preserve">
<style type="text/css">
	.st0{fill:#262426;}
	.st1{fill:#F69A84;}
	.st2{fill:#F4806A;}
	.st3{fill:#353335;}
	.st4{fill:#DADFCE;}
	.st5{fill:#524D4E;}
	.st6{fill:#E98B76;}
	.st7{fill:#86C27B;}
	.st8{fill:#FFFFFF;}
</style>
<g id="XMLID_2_">
	<g id="XMLID_22_">
		<g id="XMLID_61_">
			<g id="XMLID_76_">
				<g id="XMLID_77_">
					<g id="XMLID_78_">
						<g id="XMLID_82_">
							<path id="XMLID_89_" class="st0" d="M57.7,44.7c-3,2.2-6.3,4-9.9,5.4c2.8,7,3.9,11.6,3.9,11.6c9.4,11.8,4.6,33.3-13.7,21.6
								c-12-7.6-18.8-19-21.1-29.9c-3.3-0.5-6.7-1.2-10-2.3c0.6,13.8,7.2,27.5,26.6,36.9C52.6,95.9,61.7,76,61.1,66.5
								C61.1,66.5,61.8,57.4,57.7,44.7z"/>
							<path id="XMLID_86_" class="st1" d="M17.1,37.4c-1.2,4.8-1.3,10.4-0.1,16.1c11,1.6,21.7,0.3,30.8-3.3
								c-2.5-6.1-6.2-14.2-11.7-22.9C24.2,8.5,22.4,16.6,17.1,37.4z"/>
							<path id="XMLID_83_" class="st2" d="M38.1,83.3c18.3,11.6,23.1-9.9,13.7-21.6c0,0-1.1-4.5-3.9-11.6C38.7,53.8,28,55,17,53.4
								C19.2,64.3,26.1,75.7,38.1,83.3z"/>
						</g>
						<path id="XMLID_79_" class="st3" d="M6.9,51.2c3.3,1,6.7,1.8,10,2.3c-1.2-5.7-1.1-11.2,0.1-16.1c5.3-20.8,7.1-28.9,19-10.2
							c5.5,8.7,9.3,16.7,11.7,22.9c3.6-1.4,6.9-3.2,9.9-5.4c-1.5-4.7-3.5-10.1-6.9-15.4C32.6,0.9,6.8-27.7,6.9,51.2z"/>
					</g>
				</g>
			</g>
			<g id="XMLID_62_">
				<g id="XMLID_63_">
					<g id="XMLID_64_">
						<g id="XMLID_68_">
							<path id="XMLID_75_" class="st0" d="M137,44.7c3,2.2,6.3,4,9.9,5.4c-2.8,7-3.9,11.6-3.9,11.6c-9.4,11.8-4.6,33.3,13.7,21.6
								c12-7.6,18.8-19,21.1-29.9c3.3-0.5,6.7-1.2,10-2.3c-0.6,13.8-7.2,27.5-26.6,36.9C142,95.9,133,76,133.6,66.5
								C133.6,66.5,132.9,57.4,137,44.7z"/>
							<path id="XMLID_72_" class="st1" d="M177.6,37.4c1.2,4.8,1.3,10.4,0.1,16.1c-11,1.6-21.7,0.3-30.8-3.3
								c2.5-6.1,6.2-14.2,11.7-22.9C170.4,8.5,172.3,16.6,177.6,37.4z"/>
							<path id="XMLID_69_" class="st2" d="M156.6,83.3c-18.3,11.6-23.1-9.9-13.7-21.6c0,0,1.1-4.5,3.9-11.6
								c9.1,3.7,19.9,4.9,30.8,3.3C175.4,64.3,168.6,75.7,156.6,83.3z"/>
						</g>
						<path id="XMLID_65_" class="st3" d="M187.7,51.2c-3.3,1-6.7,1.8-10,2.3c1.2-5.7,1.1-11.2-0.1-16.1c-5.3-20.8-7.1-28.9-19-10.2
							c-5.5,8.7-9.3,16.7-11.7,22.9c-3.6-1.4-6.9-3.2-9.9-5.4c1.5-4.7,3.5-10.1,6.9-15.4C162.1,0.9,187.9-27.7,187.7,51.2z"/>
					</g>
				</g>
			</g>
		</g>
		<path id="XMLID_60_" class="st4" d="M194.6,112.9c-0.9-13-14.9-86.6-94.2-87.1c-85-0.5-100,61.8-100.4,90
			c-0.4,28.2,39.2,54.9,94.6,53.6C150,168.2,197.1,147.6,194.6,112.9z"/>
		<path id="XMLID_57_" class="st3" d="M175.8,123.9c-0.7-10.5-12-69.8-75.9-70.2c-68.6-0.4-80.6,49.8-80.9,72.6
			c-0.4,22.8,31.6,44.2,76.3,43.2C139.8,168.4,177.7,151.8,175.8,123.9z"/>
		<path id="XMLID_54_" class="st5" d="M114,147.1c-1.9,2-4.3,3.6-7.1,3.9c-2.7,0.3-5.9-0.6-7.7-2.7c-0.4-0.5-0.8-1-1.1-1.5
			c0.6-1.6,0.9-3.3,1.1-5.1c0.5-4.1,0.4-8.4-0.4-12.4c-0.3-1.7-3-1.2-2.7,0.5c0.7,3.3,0.7,6.5,0.5,9.8c-0.2,2.6-0.4,5.5-1.9,7.8
			c-1.5,2.3-4.6,3.7-7.2,3.8c-2.8,0.1-5.4-1.1-7.6-2.8c-1.4-1.1-2.9,1.2-1.5,2.3c5.2,4.1,13,4.5,17.8-0.7c0.2-0.2,0.3-0.4,0.5-0.6
			c0.4,0.6,0.9,1.1,1.5,1.6c5.4,4.4,13.1,2.9,17.7-1.9C117,147.9,115.2,145.9,114,147.1z"/>
		<g id="XMLID_41_">
			<g id="XMLID_95_">
				<g id="XMLID_98_">
					<path id="XMLID_99_" class="st1" d="M87.3,124.7c-2.8,2.3-2.2,3.3-1.7,4.2c0.8,1.5,6.4,4.8,6.4,4.8s3.2,4,6.2,3.8
						c3.1-0.2,6.1-3.5,6.1-3.5s2.9-1.7,6-4.6c0,0,0.7-1.7-1.3-4C101.9,127.5,94.3,126.9,87.3,124.7z"/>
				</g>
				<g id="XMLID_96_">
					<path id="XMLID_97_" class="st6" d="M98,121.9c-5.5,0-8.8,1.2-10.7,2.8c7,2.2,14.6,2.8,21.7,0.7
						C107.4,123.6,104.3,121.9,98,121.9z"/>
				</g>
			</g>
		</g>
		<g id="XMLID_38_">
			<path id="XMLID_40_" class="st0" d="M67.9,120.3c0,0,1.6-16.5-11.1-24.2c-12.7-7.8-27.4,2.7-27.1,7.2
				C30.1,107.7,36.9,133,67.9,120.3z"/>
			<path id="XMLID_39_" class="st0" d="M127,120.3c0,0-1.6-16.5,11.1-24.2c12.7-7.8,27.4,2.7,27.1,7.2
				C164.9,107.7,158.1,133,127,120.3z"/>
		</g>
		<g id="XMLID_23_">
			<g id="XMLID_31_">
				<g id="XMLID_32_">
					<g id="XMLID_33_">
						<path id="XMLID_37_" class="st7" d="M64.2,108.8c0,8.1-6.6,14.7-14.7,14.7c-8.1,0-14.7-6.6-14.7-14.7
							c0-8.1,6.6-14.7,14.7-14.7C57.6,94.1,64.2,100.7,64.2,108.8z"/>
						<ellipse id="XMLID_36_" class="st0" cx="49.5" cy="108.8" rx="8.4" ry="11.5"/>
						<path id="XMLID_35_" class="st8" d="M50.8,103.3c0,3.7-3,6.6-6.6,6.6c-3.7,0-6.6-3-6.6-6.6c0-3.7,3-6.6,6.6-6.6
							C47.8,96.6,50.8,99.6,50.8,103.3z"/>
						<circle id="XMLID_34_" class="st8" cx="45.2" cy="118" r="3.4"/>
					</g>
				</g>
			</g>
			<g id="XMLID_24_">
				<g id="XMLID_25_">
					<g id="XMLID_26_">
						<path id="XMLID_30_" class="st7" d="M160.8,108.8c0,8.1-6.6,14.7-14.7,14.7c-8.1,0-14.7-6.6-14.7-14.7
							c0-8.1,6.6-14.7,14.7-14.7C154.2,94.1,160.8,100.7,160.8,108.8z"/>
						<path id="XMLID_29_" class="st0" d="M154.5,108.8c0,6.4-3.7,11.5-8.4,11.5c-4.6,0-8.4-5.2-8.4-11.5c0-6.4,3.7-11.5,8.4-11.5
							C150.7,97.3,154.5,102.4,154.5,108.8z"/>
						<path id="XMLID_28_" class="st8" d="M147.4,103.3c0,3.7-3,6.6-6.6,6.6c-3.7,0-6.6-3-6.6-6.6c0-3.7,3-6.6,6.6-6.6
							C144.4,96.6,147.4,99.6,147.4,103.3z"/>
						<circle id="XMLID_27_" class="st8" cx="141.8" cy="118" r="3.4"/>
					</g>
				</g>
			</g>
		</g>
	</g>
	<g id="XMLID_3_">
		<g id="XMLID_119_">
			<g id="XMLID_124_">
				<path id="XMLID_127_" class="st5" d="M63,134c-7.6-2.1-15.2-3.6-23-4.3c-8-0.7-16-1.2-24-1.4c-4.5-0.1-8.9-0.1-13.4,0
					c-0.9,0-0.7,1.8,0.2,1.7c8-0.3,16.1,0,24.1,0.5c7.9,0.5,15.7,0.9,23.5,2.4c4.1,0.8,8.3,1.7,12.4,2.9
					C63.7,135.9,63.8,134.2,63,134z"/>
				<path id="XMLID_126_" class="st5" d="M63.4,144.4c-7.7,1.1-15.4,2.6-22.9,5.1c-7.8,2.5-15.5,5.2-23.2,8.2
					c-4.3,1.7-8.5,3.4-12.7,5.4c-0.8,0.4-0.2,1.9,0.6,1.6c7.6-3.5,15.3-6.4,23-9.2c7.6-2.7,15.2-5.4,23-7.2
					c4.1-0.9,8.3-1.6,12.4-2.2C64.5,146,64.3,144.3,63.4,144.4z"/>
				<path id="XMLID_125_" class="st5" d="M66.6,138.6c-7.7-0.8-15.5-1-23.2-0.4c-8,0.7-16,1.5-23.9,2.6c-4.4,0.6-8.9,1.4-13.3,2.3
					c-0.9,0.2-0.5,1.9,0.4,1.7c7.9-1.6,15.9-2.7,23.9-3.6c7.8-0.9,15.7-1.7,23.6-1.6c4.2,0.1,8.4,0.3,12.5,0.7
					C67.4,140.4,67.4,138.7,66.6,138.6z"/>
			</g>
			<g id="XMLID_120_">
				<path id="XMLID_123_" class="st5" d="M131.7,136.4c7.6-2.1,15.2-3.6,23-4.3c8-0.7,16-1.2,24-1.4c4.5-0.1,8.9-0.1,13.4,0
					c0.9,0,0.7,1.8-0.2,1.7c-8-0.3-16.1,0-24.1,0.5c-7.9,0.5-15.7,0.9-23.5,2.4c-4.1,0.8-8.3,1.7-12.4,2.9
					C131,138.3,130.9,136.6,131.7,136.4z"/>
				<path id="XMLID_122_" class="st5" d="M131.2,146.8c7.7,1.1,15.4,2.6,22.9,5.1c7.8,2.5,15.5,5.2,23.2,8.2
					c4.3,1.7,8.5,3.4,12.7,5.4c0.8,0.4,0.2,1.9-0.6,1.6c-7.6-3.5-15.3-6.4-23-9.2c-7.6-2.7-15.2-5.4-23-7.2
					c-4.1-0.9-8.3-1.7-12.4-2.2C130.1,148.4,130.4,146.7,131.2,146.8z"/>
				<path id="XMLID_121_" class="st5" d="M128.1,141c7.7-0.8,15.5-1,23.2-0.4c8,0.7,16,1.5,23.9,2.6c4.4,0.6,8.9,1.4,13.3,2.3
					c0.9,0.2,0.5,1.9-0.4,1.7c-7.9-1.6-15.9-2.7-23.9-3.6c-7.8-0.9-15.7-1.7-23.6-1.6c-4.2,0.1-8.4,0.3-12.5,0.7
					C127.3,142.8,127.3,141.1,128.1,141z"/>
			</g>
		</g>
	</g>
</g>
</svg>
