<?xml version="1.0" encoding="utf-8"?>
<!-- Generator: Adobe Illustrator 19.0.0, SVG Export Plug-In . SVG Version: 6.00 Build 0)  -->
<svg version="1.1" id="Layer_1" xmlns="http://www.w3.org/2000/svg" xmlns:xlink="http://www.w3.org/1999/xlink" x="0px" y="0px"
	 viewBox="0 0 264.5 206.4" style="enable-background:new 0 0 264.5 206.4;" xml:space="preserve">
<style type="text/css">
	.st0{fill:#DADFCE;}
	.st1{fill:#F69A84;}
	.st2{fill:#F58D76;}
	.st3{fill:#FFFFFF;}
	.st4{fill:#D1D8C2;}
	.st5{fill:#E98B76;}
	.st6{fill:#439573;}
	.st7{fill:#262426;}
</style>
<g id="XMLID_2_">
	<g id="XMLID_42_">
		<g id="XMLID_53_">
			<g id="XMLID_55_">
				<path id="XMLID_62_" class="st0" d="M102.6,53.6c-3.7,4.9-7.9,9.5-12.5,13.7c5.2,8.6,7.6,14.5,7.6,14.5
					c15.1,11.5,12.7,45.7-14.6,39.6c-18-4-29.5-16.4-34.7-30.9c-4.7,1.3-9.4,2.2-14.2,2.7c3.4,19.7,15.2,35.7,43.5,37.9
					c27.8,0,36.4-34.3,33.8-47.8C111.4,83.3,110.6,69.6,102.6,53.6z"/>
				<path id="XMLID_59_" class="st1" d="M45.4,67.1c-0.8,7.8,0.2,15.9,2.9,23.4C63.7,86.3,78.2,78.1,90,67.3
					c-4.6-7.5-11.3-17-20.5-26.4C49.7,20.7,48.7,33.6,45.4,67.1z"/>
				<path id="XMLID_56_" class="st2" d="M83,121.4c27.3,6,29.8-28.1,14.6-39.6c0,0-2.4-5.9-7.6-14.5c-11.8,10.8-26.3,19-41.7,23.2
					C53.5,105,65,117.4,83,121.4z"/>
			</g>
			<path id="XMLID_54_" class="st3" d="M51.6,10.4C49.8,6.3,46.8-0.3,45.2,0c-2.3,0.4,0,9.6,0,9.6s-6-7.2-6.8-2.8
				c-0.6,3,4.3,8.2,7.4,11.1c-5.7,15.3-16.4,48.6-11.7,75.2c4.8-0.5,9.5-1.4,14.2-2.7c-2.7-7.6-3.6-15.7-2.9-23.4
				c3.3-33.5,4.3-46.3,24.1-26.1c9.2,9.4,15.9,18.9,20.5,26.4c4.6-4.2,8.8-8.8,12.5-13.7C94.6,37.8,79.7,19.8,51.6,10.4z"/>
		</g>
		<g id="XMLID_43_">
			<g id="XMLID_45_">
				<path id="XMLID_52_" class="st0" d="M162,53.6c3.7,4.9,7.9,9.5,12.5,13.7c-5.2,8.6-7.6,14.5-7.6,14.5
					c-15.1,11.5-12.7,45.7,14.7,39.6c18-4,29.5-16.4,34.7-30.9c4.7,1.3,9.4,2.2,14.2,2.7c-3.4,19.7-15.2,35.7-43.5,37.9
					c-27.8,0-36.4-34.3-33.8-47.8C153.1,83.3,153.9,69.6,162,53.6z"/>
				<path id="XMLID_49_" class="st1" d="M219.1,67.1c0.8,7.8-0.2,15.9-2.9,23.4c-15.4-4.2-29.9-12.4-41.7-23.2
					c4.6-7.5,11.3-17,20.5-26.4C214.8,20.7,215.8,33.6,219.1,67.1z"/>
				<path id="XMLID_46_" class="st2" d="M181.5,121.4c-27.3,6-29.8-28.1-14.7-39.6c0,0,2.4-5.9,7.6-14.5
					c11.8,10.8,26.3,19,41.7,23.2C211,105,199.5,117.4,181.5,121.4z"/>
			</g>
			<path id="XMLID_44_" class="st3" d="M212.9,10.4c1.8-4.1,4.8-10.7,6.4-10.4c2.3,0.4,0,9.6,0,9.6s6-7.2,6.8-2.8
				c0.6,3-4.3,8.2-7.4,11.1c5.7,15.3,16.4,48.6,11.7,75.2c-4.8-0.5-9.5-1.4-14.2-2.7c2.7-7.6,3.6-15.7,2.9-23.4
				c-3.3-33.5-4.3-46.3-24.1-26.1c-9.2,9.4-15.9,18.9-20.5,26.4c-4.6-4.2-8.8-8.8-12.5-13.7C169.9,37.8,184.8,19.8,212.9,10.4z"/>
		</g>
	</g>
	<path id="XMLID_41_" class="st3" d="M223.6,165.1c0,0-24.6,39.7-89.5,41.3c-64.9,1.6-94.5-44.5-97.4-58.6c-3-14,44.4-84.2,94.9-89
		C182.1,54,245.2,139.4,223.6,165.1z"/>
	<g id="XMLID_32_">
		<g id="XMLID_37_">
			<path id="XMLID_40_" class="st0" d="M84.6,146.3c-10.5-2.2-21.2-3.9-31.9-4.6c-11.1-0.7-22.2-1.3-33.3-1.5
				c-6.2-0.1-12.4-0.1-18.6,0c-1.2,0-0.9,1.9,0.3,1.8c11.1-0.3,22.3,0,33.4,0.5c10.9,0.5,21.9,1,32.7,2.5c5.8,0.8,11.5,1.9,17.2,3.1
				C85.5,148.3,85.7,146.5,84.6,146.3z"/>
			<path id="XMLID_39_" class="st0" d="M85.2,157.4c-10.7,1.1-21.3,2.8-31.8,5.4c-10.8,2.7-21.5,5.6-32.2,8.8
				c-5.9,1.8-11.8,3.7-17.7,5.7c-1.1,0.4-0.3,2.1,0.8,1.7c10.5-3.7,21.2-6.9,32-9.8c10.5-2.9,21.1-5.8,31.9-7.6
				c5.7-1,11.5-1.8,17.3-2.4C86.7,159.1,86.4,157.3,85.2,157.4z"/>
			<path id="XMLID_38_" class="st0" d="M89.5,151.2c-10.7-0.8-21.5-1.1-32.2-0.4c-11.1,0.7-22.2,1.6-33.2,2.8
				c-6.2,0.7-12.3,1.5-18.4,2.4c-1.2,0.2-0.7,2,0.5,1.8c11-1.8,22.1-2.9,33.2-3.8c10.9-0.9,21.8-1.8,32.7-1.7
				c5.8,0.1,11.6,0.4,17.4,0.8C90.7,153.1,90.7,151.3,89.5,151.2z"/>
		</g>
		<g id="XMLID_33_">
			<path id="XMLID_36_" class="st0" d="M180,148.8c10.5-2.2,21.2-3.9,31.9-4.6c11.1-0.7,22.2-1.3,33.3-1.5c6.2-0.1,12.4-0.1,18.6,0
				c1.2,0,0.9,1.9-0.3,1.8c-11.1-0.3-22.3,0-33.4,0.5c-10.9,0.5-21.9,1-32.7,2.5c-5.8,0.8-11.5,1.9-17.2,3.1
				C179,150.9,178.8,149.1,180,148.8z"/>
			<path id="XMLID_35_" class="st0" d="M179.3,160c10.7,1.1,21.3,2.8,31.8,5.4c10.8,2.7,21.5,5.6,32.2,8.8
				c5.9,1.8,11.8,3.7,17.7,5.7c1.1,0.4,0.3,2.1-0.8,1.7c-10.5-3.7-21.2-6.9-32-9.8c-10.5-2.9-21.1-5.8-31.9-7.6
				c-5.7-1-11.5-1.8-17.3-2.4C177.8,161.7,178.2,159.8,179.3,160z"/>
			<path id="XMLID_34_" class="st0" d="M175,153.7c10.7-0.8,21.5-1.1,32.2-0.4c11.1,0.7,22.2,1.6,33.2,2.8
				c6.2,0.7,12.3,1.5,18.4,2.4c1.2,0.2,0.7,2-0.5,1.8c-11-1.8-22.1-2.9-33.2-3.8c-10.9-0.9-21.8-1.8-32.7-1.7
				c-5.8,0.1-11.6,0.4-17.4,0.8C173.8,155.7,173.8,153.8,175,153.7z"/>
		</g>
	</g>
	<path id="XMLID_31_" class="st4" d="M146,170.3c-1.6,1.7-3.7,3-6.1,3.3c-2.3,0.2-5-0.5-6.6-2.3c-0.4-0.4-0.6-0.8-0.9-1.3
		c0.5-1.4,0.7-2.8,0.9-4.3c0.5-3.5,0.3-7.1-0.4-10.6c-0.3-1.5-2.6-1-2.3,0.5c0.6,2.8,0.6,5.6,0.5,8.4c-0.1,2.2-0.4,4.7-1.6,6.6
		c-1.3,2-3.9,3.1-6.2,3.2c-2.4,0.1-4.6-0.9-6.5-2.4c-1.2-0.9-2.4,1-1.3,1.9c4.4,3.5,11.1,3.8,15.1-0.6c0.2-0.2,0.3-0.3,0.4-0.5
		c0.4,0.5,0.8,1,1.3,1.4c4.6,3.8,11.1,2.5,15-1.6C148.6,170.9,147,169.2,146,170.3z"/>
	<g id="XMLID_18_">
		<g id="XMLID_86_">
			<g id="XMLID_89_">
				<path id="XMLID_90_" class="st1" d="M120.9,148.2c-3.1,2.5-2.4,3.5-1.9,4.5c0.8,1.6,6.9,5.2,6.9,5.2s3.4,4.4,6.7,4.1
					c3.4-0.2,6.6-3.8,6.6-3.8s3.2-1.8,6.4-5c0,0,0.8-1.8-1.4-4.4C136.7,151.2,128.5,150.6,120.9,148.2z"/>
			</g>
			<g id="XMLID_87_">
				<path id="XMLID_88_" class="st5" d="M132.6,145.2c-5.9,0-9.5,1.3-11.6,3c7.6,2.4,15.8,3,23.5,0.7
					C142.7,147,139.3,145.2,132.6,145.2z"/>
			</g>
		</g>
	</g>
	<g id="XMLID_3_">
		<g id="XMLID_11_">
			<g id="XMLID_12_">
				<g id="XMLID_13_">
					<circle id="XMLID_17_" class="st6" cx="93.9" cy="131.3" r="11.7"/>
					<ellipse id="XMLID_16_" class="st7" cx="93.9" cy="131.3" rx="6.6" ry="9.2"/>
					<circle id="XMLID_15_" class="st3" cx="89.7" cy="126.8" r="5.3"/>
					<path id="XMLID_14_" class="st3" d="M93.2,138.6c0,1.5-1.2,2.7-2.7,2.7c-1.5,0-2.7-1.2-2.7-2.7c0-1.5,1.2-2.7,2.7-2.7
						C92,135.9,93.2,137.1,93.2,138.6z"/>
				</g>
			</g>
		</g>
		<g id="XMLID_4_">
			<g id="XMLID_5_">
				<g id="XMLID_6_">
					<circle id="XMLID_10_" class="st6" cx="170.6" cy="131.3" r="11.7"/>
					<ellipse id="XMLID_9_" class="st7" cx="170.6" cy="131.3" rx="6.6" ry="9.2"/>
					<circle id="XMLID_8_" class="st3" cx="166.4" cy="126.8" r="5.3"/>
					<path id="XMLID_7_" class="st3" d="M170,138.6c0,1.5-1.2,2.7-2.7,2.7c-1.5,0-2.7-1.2-2.7-2.7c0-1.5,1.2-2.7,2.7-2.7
						C168.7,135.9,170,137.1,170,138.6z"/>
				</g>
			</g>
		</g>
	</g>
</g>
</svg>
