<?xml version="1.0" encoding="utf-8"?>
<!-- Generator: Adobe Illustrator 19.0.0, SVG Export Plug-In . SVG Version: 6.00 Build 0)  -->
<svg version="1.1" id="Layer_1" xmlns="http://www.w3.org/2000/svg" xmlns:xlink="http://www.w3.org/1999/xlink" x="0px" y="0px"
	 viewBox="0 0 264.5 206.4" style="enable-background:new 0 0 264.5 206.4;" xml:space="preserve">
<style type="text/css">
	.st0{fill:#F9C470;}
	.st1{fill:#F69A84;}
	.st2{fill:#F58D76;}
	.st3{fill:#FCDBA8;}
	.st4{fill:#524D4E;}
	.st5{fill:#262426;}
	.st6{fill:#353335;}
	.st7{fill:#0079B3;}
	.st8{fill:#FFFFFF;}
	.st9{fill:#7D7677;}
</style>
<g id="XMLID_2_">
	<g id="XMLID_69_">
		<g id="XMLID_84_">
			<g id="XMLID_88_">
				<path id="XMLID_95_" class="st0" d="M102.6,53.6c-3.7,4.9-7.9,9.5-12.5,13.7c5.2,8.6,7.6,14.5,7.6,14.5
					c15.1,11.5,12.7,45.7-14.6,39.6c-18-4-29.5-16.4-34.7-30.9c-4.7,1.3-9.4,2.2-14.2,2.7c3.4,19.7,15.2,35.7,43.5,37.9
					c27.8,0,36.4-34.3,33.8-47.8C111.4,83.3,110.6,69.6,102.6,53.6z"/>
				<path id="XMLID_92_" class="st1" d="M45.4,67.1c-0.8,7.8,0.2,15.9,2.9,23.4C63.7,86.3,78.2,78.1,90,67.3
					c-4.6-7.5-11.3-17-20.5-26.4C49.7,20.7,48.7,33.6,45.4,67.1z"/>
				<path id="XMLID_89_" class="st2" d="M83,121.4c27.3,6,29.8-28.1,14.6-39.6c0,0-2.4-5.9-7.6-14.5c-11.8,10.8-26.3,19-41.7,23.2
					C53.5,105,65,117.4,83,121.4z"/>
			</g>
			<path id="XMLID_85_" class="st3" d="M51.6,10.4C49.8,6.3,46.8-0.3,45.2,0c-2.3,0.4,0,9.6,0,9.6s-6-7.2-6.8-2.8
				c-0.6,3,4.3,8.2,7.4,11.1c-5.7,15.3-16.4,48.6-11.7,75.2c4.8-0.5,9.5-1.4,14.2-2.7c-2.7-7.6-3.6-15.7-2.9-23.4
				c3.3-33.5,4.3-46.3,24.1-26.1c9.2,9.4,15.9,18.9,20.5,26.4c4.6-4.2,8.8-8.8,12.5-13.7C94.6,37.8,79.7,19.8,51.6,10.4z"/>
		</g>
		<g id="XMLID_70_">
			<g id="XMLID_74_">
				<path id="XMLID_81_" class="st0" d="M162,53.6c3.7,4.9,7.9,9.5,12.5,13.7c-5.2,8.6-7.6,14.5-7.6,14.5
					c-15.1,11.5-12.7,45.7,14.6,39.6c18-4,29.5-16.4,34.7-30.9c4.7,1.3,9.4,2.2,14.2,2.7c-3.4,19.7-15.2,35.7-43.5,37.9
					c-27.8,0-36.4-34.3-33.8-47.8C153.1,83.3,153.9,69.6,162,53.6z"/>
				<path id="XMLID_78_" class="st1" d="M219.1,67.1c0.8,7.8-0.2,15.9-2.9,23.4c-15.4-4.2-29.9-12.4-41.7-23.2
					c4.6-7.5,11.3-17,20.5-26.4C214.8,20.7,215.8,33.6,219.1,67.1z"/>
				<path id="XMLID_75_" class="st2" d="M181.5,121.4c-27.3,6-29.8-28.1-14.6-39.6c0,0,2.4-5.9,7.6-14.5
					c11.8,10.8,26.3,19,41.7,23.2C211,105,199.5,117.4,181.5,121.4z"/>
			</g>
			<path id="XMLID_71_" class="st3" d="M212.9,10.4c1.8-4.1,4.8-10.7,6.4-10.4c2.3,0.4,0,9.6,0,9.6s6-7.2,6.8-2.8
				c0.6,3-4.3,8.2-7.4,11.1c5.7,15.3,16.4,48.6,11.7,75.2c-4.8-0.5-9.5-1.4-14.2-2.7c2.7-7.6,3.6-15.7,2.9-23.4
				c-3.3-33.5-4.3-46.3-24.1-26.1c-9.2,9.4-15.9,18.9-20.5,26.4c-4.6-4.2-8.8-8.8-12.5-13.7C169.9,37.8,184.8,19.8,212.9,10.4z"/>
		</g>
	</g>
	<path id="XMLID_66_" class="st3" d="M223.6,165.1c0,0-24.6,39.7-89.5,41.3c-64.9,1.6-94.5-44.5-97.4-58.6c-3-14,44.4-84.2,94.9-89
		C182.1,54,245.2,139.4,223.6,165.1z"/>
	<g id="XMLID_59_">
		<path id="XMLID_63_" class="st3" d="M51.5,137.3c0,0-19.7-10.1-21.5-4.7c-1.8,5.3,8.2,4.7,8.2,4.7s-13.7,5.5-14.6,9
			c-0.9,3.5,9.1,2.7,9.1,2.7s-12.9,8.5-9.2,15.6c3.7,7.1,9.2-3.8,9.2-3.8s-6.1,8.7,0.2,10.8c2.7,0.9,5.7-1.8,5.7-1.8
			s1.4,13.9,9.4,3.8C56.1,163.6,51.5,137.3,51.5,137.3z"/>
		<path id="XMLID_60_" class="st3" d="M213,138.3c0,0,19.7-10.1,21.5-4.7c1.8,5.3-8.2,4.7-8.2,4.7s13.7,5.5,14.6,9
			c0.9,3.5-9.1,2.7-9.1,2.7s12.9,8.5,9.2,15.6c-3.7,7.1-9.2-3.8-9.2-3.8s6.1,8.7-0.2,10.8c-2.7,0.9-5.7-1.8-5.7-1.8
			s-1.4,13.9-9.4,3.8C208.5,164.5,213,138.3,213,138.3z"/>
	</g>
	<path id="XMLID_56_" class="st0" d="M203,159.8c0,0-19,29.1-69.3,30.3c-50.2,1.2-73.2-32.7-75.4-43c-2.3-10.3,34.4-61.8,73.5-65.4
		C170.8,78.2,219.7,140.9,203,159.8z"/>
	<path id="XMLID_53_" class="st4" d="M146,170.3c-1.6,1.7-3.7,3-6.1,3.3c-2.3,0.2-5-0.5-6.6-2.3c-0.4-0.4-0.6-0.8-0.9-1.3
		c0.5-1.4,0.7-2.8,0.9-4.3c0.5-3.5,0.3-7.1-0.4-10.6c-0.3-1.5-2.6-1-2.3,0.5c0.6,2.8,0.6,5.6,0.4,8.4c-0.1,2.2-0.4,4.7-1.6,6.6
		c-1.3,2-3.9,3.1-6.2,3.2c-2.4,0.1-4.6-0.9-6.5-2.4c-1.2-0.9-2.4,1-1.3,1.9c4.4,3.5,11.1,3.8,15.1-0.6c0.2-0.2,0.3-0.3,0.4-0.5
		c0.4,0.5,0.8,1,1.3,1.4c4.6,3.8,11.1,2.5,15-1.6C148.6,170.9,147,169.2,146,170.3z"/>
	<g id="XMLID_43_">
		<g id="XMLID_80_">
			<path id="XMLID_86_" class="st5" d="M123.4,151.2c-2.4,1.9-1.9,2.8-1.5,3.6c0.7,1.3,5.4,4.1,5.4,4.1s2.7,3.4,5.3,3.2
				c2.7-0.2,5.2-3,5.2-3s2.5-1.4,5.1-3.9c0,0,0.6-1.4-1.1-3.4C135.7,153.6,129.3,153.1,123.4,151.2z"/>
			<g id="XMLID_82_">
				<path id="XMLID_83_" class="st6" d="M132.5,148.9c-4.6,0-7.5,1-9.1,2.4c6,1.9,12.4,2.4,18.4,0.6
					C140.5,150.3,137.8,148.9,132.5,148.9z"/>
			</g>
		</g>
	</g>
	<g id="XMLID_40_">
		<path id="XMLID_42_" class="st5" d="M106.9,147.5c0,0,1.4-14-9.4-20.6c-10.8-6.6-23.3,2.3-23,6.1
			C74.7,136.8,80.5,158.2,106.9,147.5z"/>
		<path id="XMLID_41_" class="st5" d="M157.1,147.5c0,0-1.4-14,9.4-20.6c10.8-6.6,23.3,2.3,23,6.1
			C189.3,136.8,183.5,158.2,157.1,147.5z"/>
	</g>
	<g id="XMLID_25_">
		<g id="XMLID_33_">
			<g id="XMLID_34_">
				<g id="XMLID_35_">
					<path id="XMLID_39_" class="st7" d="M103.7,137.7c0,6.9-5.6,12.5-12.5,12.5c-6.9,0-12.5-5.6-12.5-12.5
						c0-6.9,5.6-12.5,12.5-12.5C98.1,125.2,103.7,130.8,103.7,137.7z"/>
					<ellipse id="XMLID_38_" class="st5" cx="91.2" cy="137.7" rx="7.1" ry="9.8"/>
					<circle id="XMLID_37_" class="st8" cx="86.7" cy="133" r="5.6"/>
					<circle id="XMLID_36_" class="st8" cx="87.6" cy="145.5" r="2.9"/>
				</g>
			</g>
		</g>
		<g id="XMLID_26_">
			<g id="XMLID_27_">
				<g id="XMLID_28_">
					<path id="XMLID_32_" class="st7" d="M185.8,137.7c0,6.9-5.6,12.5-12.5,12.5c-6.9,0-12.5-5.6-12.5-12.5
						c0-6.9,5.6-12.5,12.5-12.5C180.2,125.2,185.8,130.8,185.8,137.7z"/>
					<ellipse id="XMLID_31_" class="st5" cx="173.3" cy="137.7" rx="7.1" ry="9.8"/>
					<circle id="XMLID_30_" class="st8" cx="168.8" cy="133" r="5.6"/>
					<circle id="XMLID_29_" class="st8" cx="169.7" cy="145.5" r="2.9"/>
				</g>
			</g>
		</g>
	</g>
	<path id="XMLID_22_" class="st0" d="M124.1,179.4c0,0-10.4,11-7.2,13.3c3.2,2.2,5.6-0.9,5.6-0.9s-0.8,6.4,1.3,7.7
		c2.1,1.3,4.5-5.5,4.5-5.5s0.4,10.1,5.8,9.1c5.4-1.1,2-6.8,2-6.8s4.6,5.7,7.2,1.9c1.1-1.6-0.1-4.1-0.1-4.1s9.4,1.7,4.3-5.5
		C141.8,180.9,129.4,180,124.1,179.4z"/>
	<g id="XMLID_3_">
		<g id="XMLID_118_">
			<g id="XMLID_123_">
				<path id="XMLID_126_" class="st9" d="M84.6,153.2c-10.5-2.2-21.2-3.9-31.9-4.6c-11.1-0.7-22.2-1.3-33.3-1.5
					c-6.2-0.1-12.4-0.1-18.6,0c-1.2,0-0.9,1.9,0.3,1.8c11.1-0.3,22.3,0,33.4,0.5c10.9,0.5,21.9,1,32.7,2.5
					c5.8,0.8,11.5,1.9,17.2,3.1C85.5,155.3,85.7,153.5,84.6,153.2z"/>
				<path id="XMLID_125_" class="st9" d="M85.2,164.4c-10.7,1.1-21.3,2.8-31.8,5.4c-10.8,2.7-21.5,5.6-32.2,8.8
					c-5.9,1.8-11.8,3.7-17.7,5.7c-1.1,0.4-0.3,2.1,0.8,1.7c10.5-3.7,21.2-6.9,32-9.8c10.5-2.9,21.1-5.8,31.9-7.6
					c5.7-1,11.5-1.8,17.3-2.4C86.7,166.1,86.4,164.3,85.2,164.4z"/>
				<path id="XMLID_124_" class="st9" d="M89.5,158.2c-10.7-0.8-21.5-1.1-32.2-0.4c-11.1,0.7-22.2,1.6-33.2,2.8
					c-6.2,0.7-12.3,1.5-18.4,2.4c-1.2,0.2-0.7,2,0.5,1.8c11-1.8,22.1-2.9,33.2-3.8c10.9-0.9,21.8-1.8,32.7-1.7
					c5.8,0.1,11.6,0.4,17.4,0.8C90.7,160.1,90.7,158.3,89.5,158.2z"/>
			</g>
			<g id="XMLID_119_">
				<path id="XMLID_122_" class="st9" d="M180,155.8c10.5-2.2,21.2-3.9,31.9-4.6c11.1-0.7,22.2-1.3,33.3-1.5
					c6.2-0.1,12.4-0.1,18.6,0c1.2,0,0.9,1.9-0.3,1.8c-11.1-0.3-22.3,0-33.4,0.5c-10.9,0.5-21.9,1-32.7,2.5
					c-5.8,0.8-11.5,1.9-17.2,3.1C179,157.9,178.8,156,180,155.8z"/>
				<path id="XMLID_121_" class="st9" d="M179.3,166.9c10.7,1.1,21.3,2.8,31.8,5.4c10.8,2.7,21.5,5.6,32.2,8.8
					c5.9,1.8,11.8,3.7,17.7,5.7c1.1,0.4,0.3,2.1-0.8,1.7c-10.5-3.7-21.2-6.9-32-9.8c-10.5-2.9-21.1-5.8-31.9-7.6
					c-5.7-1-11.5-1.8-17.3-2.4C177.8,168.6,178.2,166.8,179.3,166.9z"/>
				<path id="XMLID_120_" class="st9" d="M175,160.7c10.7-0.8,21.5-1.1,32.2-0.4c11.1,0.7,22.2,1.6,33.2,2.8
					c6.2,0.7,12.3,1.5,18.4,2.4c1.2,0.2,0.7,2-0.5,1.8c-11-1.8-22.1-2.9-33.2-3.8c-10.9-0.9-21.8-1.8-32.7-1.7
					c-5.8,0.1-11.6,0.3-17.4,0.8C173.8,162.7,173.8,160.8,175,160.7z"/>
			</g>
		</g>
	</g>
</g>
</svg>
