<?xml version="1.0" encoding="utf-8"?>
<!-- Generator: Adobe Illustrator 19.0.0, SVG Export Plug-In . SVG Version: 6.00 Build 0)  -->
<svg version="1.1" id="Layer_1" xmlns="http://www.w3.org/2000/svg" xmlns:xlink="http://www.w3.org/1999/xlink" x="0px" y="0px"
	 viewBox="0 0 203.5 192.2" style="enable-background:new 0 0 203.5 192.2;" xml:space="preserve">
<style type="text/css">
	.st0{fill:#262426;}
	.st1{fill:#F69A84;}
	.st2{fill:#F58D76;}
	.st3{fill:#353335;}
	.st4{fill:#FFFFFF;}
	.st5{fill:#DADFCE;}
	.st6{fill:#D1D8C2;}
	.st7{fill:#1C99C6;}
</style>
<g id="XMLID_2_">
	<g id="XMLID_7_">
		<g id="XMLID_52_">
			<g id="XMLID_65_">
				<g id="XMLID_69_">
					<path id="XMLID_76_" class="st0" d="M75.9,42.1C72.7,46,69,49.6,65,52.9c4.5,6.7,6.6,11.4,6.6,11.4c13.2,9.1,11,35.9-12.7,31.2
						c-15.6-3.1-25.6-12.9-30.1-24.3c-4.1,1-8.2,1.7-12.4,2.1c3,15.5,13.2,28.1,37.8,29.8c24.1,0,31.6-27,29.4-37.6
						C83.6,65.5,82.9,54.8,75.9,42.1z"/>
					<path id="XMLID_73_" class="st1" d="M26.3,52.7c-0.7,6.1,0.2,12.5,2.5,18.4c13.4-3.3,26-9.8,36.3-18.2
						c-4-5.9-9.8-13.4-17.8-20.7C30,16.3,29.1,26.4,26.3,52.7z"/>
					<path id="XMLID_70_" class="st2" d="M58.9,95.5c23.7,4.8,25.9-22.1,12.7-31.2c0,0-2.1-4.7-6.6-11.4
						c-10.3,8.5-22.9,14.9-36.3,18.2C33.3,82.6,43.3,92.4,58.9,95.5z"/>
				</g>
				<path id="XMLID_66_" class="st3" d="M52.3,17.5c-5.8-3.6-12.6-6.8-20.7-9.3C30.1,4.9,27.4-0.2,26,0c-2,0.3,0,7.6,0,7.6
					s-5.2-5.7-5.9-2.2c-0.5,2.4,3.7,6.4,6.4,8.7c-3.7,9-9.9,26-11,42.7c-0.4,5.6-0.2,11.2,0.8,16.4c4.2-0.4,8.3-1.1,12.4-2.1
					c-2.3-5.9-3.2-12.3-2.5-18.4c0.1-0.6,0.1-1.1,0.2-1.7c2.6-24.1,3.8-33.6,18.9-20.5c0.6,0.5,1.2,1.1,1.8,1.6
					c8,7.4,13.8,14.8,17.8,20.7c4-3.3,7.7-6.9,10.9-10.8C71.3,33.9,64,24.8,52.3,17.5z"/>
			</g>
			<g id="XMLID_53_">
				<g id="XMLID_57_">
					<path id="XMLID_64_" class="st0" d="M127.6,42.1c3.2,3.9,6.9,7.5,10.9,10.8c-4.5,6.7-6.6,11.4-6.6,11.4
						c-13.2,9.1-11,35.9,12.7,31.2c15.6-3.1,25.6-12.9,30.1-24.3c4.1,1,8.2,1.7,12.4,2.1c-3,15.5-13.2,28.1-37.8,29.8
						c-24.1,0-31.6-27-29.4-37.6C119.9,65.5,120.6,54.8,127.6,42.1z"/>
					<path id="XMLID_61_" class="st1" d="M177.2,52.7c0.7,6.1-0.2,12.5-2.5,18.4c-13.4-3.3-26-9.8-36.3-18.2
						c4-5.9,9.8-13.4,17.8-20.7C173.5,16.3,174.4,26.4,177.2,52.7z"/>
					<path id="XMLID_58_" class="st2" d="M144.6,95.5c-23.8,4.8-25.9-22.1-12.7-31.2c0,0,2.1-4.7,6.6-11.4
						c10.3,8.5,22.9,14.9,36.3,18.2C170.2,82.6,160.2,92.4,144.6,95.5z"/>
				</g>
				<path id="XMLID_54_" class="st3" d="M171.9,8.2c1.5-3.3,4.2-8.4,5.6-8.2c2,0.3,0,7.6,0,7.6s5.2-5.7,5.9-2.2
					c0.5,2.4-3.7,6.4-6.4,8.7c5,12,14.2,38.2,10.2,59.1c-4.2-0.4-8.3-1.1-12.4-2.1c2.3-5.9,3.2-12.3,2.5-18.4
					c-2.8-26.3-3.7-36.4-21-20.5c-8,7.4-13.8,14.8-17.8,20.7c-4-3.3-7.7-6.9-10.9-10.8C134.4,29.8,147.4,15.6,171.9,8.2z"/>
			</g>
		</g>
		<path id="XMLID_49_" class="st3" d="M68.7,139.6c11-3,18-11,19-21c5-23.1-9.2-45.6-29.5-55.5c-37.8,19.1-54.3,59.9-52,70.5
			c0.3,1.4,0.8,3.1,1.7,5C27.2,144.8,48.8,145,68.7,139.6z"/>
		<path id="XMLID_46_" class="st4" d="M151.7,139.6c-9,0-20-3-26-11c-17.1-23.1-6.4-51.4,13.4-67.2c-11.7-5.2-24.5-8.3-38.1-8.3
			c-1.2,0-2.5,0-3.7,0.1c-15,0.5-28,4.3-39.2,9.9c20.3,9.9,34.5,32.4,29.5,55.5c-1,10-8,18-19,21c-19.9,5.4-41.6,5.3-60.9-1
			c7.5,17.7,37.3,55,95.8,53.6c43.7-1.1,69.1-19.4,81-31.3c5.8-5.8,8.4-10,8.4-10c2.7-3.2,4.2-7.1,4.9-11.4
			C182.4,139.7,166.6,138.7,151.7,139.6z"/>
		<path id="XMLID_43_" class="st3" d="M125.7,128.6c6,8,17,11,26,11c14.9-0.9,30.7,0.2,46.2-0.1c3.4-23.6-21.5-61.4-58.8-78
			C119.4,77.2,108.6,105.5,125.7,128.6z"/>
		<g id="XMLID_34_">
			<g id="XMLID_39_">
				<path id="XMLID_42_" class="st5" d="M65,141.9c-8.1-2.2-16.3-3.9-24.5-4.6c-8.5-0.7-17.1-1.3-25.6-1.5c-4.8-0.1-9.5-0.1-14.3,0
					c-0.9,0-0.7,1.9,0.2,1.8c8.6-0.3,17.1,0,25.7,0.5c8.4,0.5,16.8,1,25.1,2.5c4.4,0.8,8.8,1.9,13.2,3.1
					C65.8,144,65.9,142.1,65,141.9z"/>
				<path id="XMLID_41_" class="st5" d="M65.5,153c-8.2,1.1-16.4,2.8-24.4,5.4c-8.3,2.7-16.6,5.6-24.7,8.8
					c-4.6,1.8-9.1,3.7-13.6,5.7c-0.9,0.4-0.2,2.1,0.6,1.7c8.1-3.7,16.3-6.9,24.6-9.8c8.1-2.9,16.2-5.8,24.5-7.6
					c4.4-1,8.8-1.8,13.3-2.4C66.7,154.7,66.4,152.9,65.5,153z"/>
				<path id="XMLID_40_" class="st5" d="M68.8,146.8c-8.3-0.8-16.5-1.1-24.8-0.4c-8.5,0.7-17.1,1.6-25.6,2.8
					c-4.7,0.7-9.5,1.5-14.2,2.4c-0.9,0.2-0.5,2,0.4,1.8c8.5-1.8,17-2.9,25.5-3.8c8.4-0.9,16.8-1.8,25.2-1.7
					c4.5,0.1,8.9,0.4,13.4,0.8C69.8,148.8,69.8,146.9,68.8,146.8z"/>
			</g>
			<g id="XMLID_35_">
				<path id="XMLID_38_" class="st5" d="M138.4,144.4c8.1-2.2,16.3-3.9,24.5-4.6c8.5-0.7,17.1-1.3,25.6-1.5c4.8-0.1,9.5-0.1,14.3,0
					c0.9,0,0.7,1.9-0.2,1.8c-8.6-0.3-17.2,0-25.7,0.5c-8.4,0.5-16.8,1-25.1,2.5c-4.4,0.8-8.8,1.9-13.2,3.1
					C137.7,146.5,137.5,144.7,138.4,144.4z"/>
				<path id="XMLID_37_" class="st5" d="M137.9,155.6c8.2,1.1,16.4,2.8,24.4,5.4c8.3,2.7,16.6,5.6,24.7,8.8
					c4.6,1.8,9.1,3.7,13.6,5.7c0.9,0.4,0.2,2.1-0.6,1.7c-8.1-3.7-16.3-6.9-24.6-9.8c-8.1-2.9-16.2-5.8-24.5-7.6
					c-4.4-1-8.8-1.8-13.3-2.4C136.8,157.3,137,155.5,137.9,155.6z"/>
				<path id="XMLID_36_" class="st5" d="M134.6,149.4c8.3-0.8,16.5-1.1,24.8-0.4c8.5,0.7,17.1,1.6,25.6,2.8
					c4.7,0.7,9.5,1.5,14.2,2.4c0.9,0.2,0.5,2-0.4,1.8c-8.5-1.8-17-2.9-25.5-3.8c-8.4-0.9-16.8-1.8-25.2-1.7
					c-4.5,0.1-8.9,0.3-13.4,0.8C133.7,151.3,133.7,149.5,134.6,149.4z"/>
			</g>
		</g>
		<path id="XMLID_33_" class="st6" d="M118.7,167.8c-2,2.1-4.5,3.7-7.4,4c-2.8,0.3-6.1-0.6-8-2.8c-0.4-0.5-0.8-1-1.1-1.6
			c0.6-1.7,0.9-3.5,1.1-5.3c0.6-4.3,0.4-8.7-0.4-12.9c-0.4-1.8-3.1-1.2-2.8,0.6c0.7,3.4,0.8,6.8,0.5,10.2c-0.2,2.8-0.4,5.8-2,8.1
			c-1.6,2.4-4.7,3.8-7.5,3.9c-2.9,0.1-5.7-1.1-7.9-2.9c-1.4-1.1-3,1.2-1.6,2.4c5.4,4.3,13.5,4.7,18.5-0.7c0.2-0.2,0.4-0.4,0.5-0.6
			c0.5,0.6,1,1.2,1.6,1.7c5.7,4.6,13.6,3,18.4-2C121.8,168.6,120,166.5,118.7,167.8z"/>
		<g id="XMLID_23_">
			<g id="XMLID_84_">
				<g id="XMLID_86_">
					<path id="XMLID_87_" class="st3" d="M91.2,142.4c-2.9,2.3-2.2,3.3-1.7,4.3c0.8,1.5,6.5,4.9,6.5,4.9s3.3,4.1,6.3,3.9
						c3.2-0.2,6.2-3.6,6.2-3.6s3-1.7,6.1-4.7c0,0,0.8-1.7-1.3-4.1C106.1,145.2,98.4,144.6,91.2,142.4z"/>
				</g>
				<path id="XMLID_85_" class="st0" d="M102.2,139.5c-5.6,0-9,1.2-11,2.8c7.2,2.3,14.9,2.8,22.1,0.7
					C111.7,141.2,108.5,139.6,102.2,139.5z"/>
			</g>
		</g>
		<g id="XMLID_8_">
			<g id="XMLID_16_">
				<g id="XMLID_17_">
					<g id="XMLID_18_">
						<path id="XMLID_22_" class="st7" d="M75.9,117c0,7.6-6.1,13.7-13.7,13.7c-7.6,0-13.7-6.1-13.7-13.7c0-7.6,6.1-13.7,13.7-13.7
							C69.8,103.3,75.9,109.4,75.9,117z"/>
						<ellipse id="XMLID_21_" class="st0" cx="62.2" cy="117" rx="7.8" ry="10.7"/>
						<circle id="XMLID_20_" class="st4" cx="57.3" cy="111.8" r="6.2"/>
						<circle id="XMLID_19_" class="st4" cx="58.2" cy="125.6" r="3.2"/>
					</g>
				</g>
			</g>
			<g id="XMLID_9_">
				<g id="XMLID_10_">
					<g id="XMLID_11_">
						<path id="XMLID_15_" class="st7" d="M154.9,117c0,7.6-6.1,13.7-13.7,13.7c-7.6,0-13.7-6.1-13.7-13.7c0-7.6,6.1-13.7,13.7-13.7
							C148.8,103.3,154.9,109.4,154.9,117z"/>
						<ellipse id="XMLID_14_" class="st0" cx="141.3" cy="117" rx="7.8" ry="10.7"/>
						<circle id="XMLID_13_" class="st4" cx="136.3" cy="111.8" r="6.2"/>
						<circle id="XMLID_12_" class="st4" cx="137.3" cy="125.6" r="3.2"/>
					</g>
				</g>
			</g>
		</g>
	</g>
	<path id="XMLID_6_" class="st3" d="M28.8,11.5c0,0-10.7-2.8-9.1,0C21.1,14.3,29.4,17.9,28.8,11.5z"/>
	<path id="XMLID_5_" class="st3" d="M31.1,10.3c0,0-3.6-6.5,0.2-8C35.1,0.7,32.6,13,31.1,10.3z"/>
	<path id="XMLID_4_" class="st3" d="M175.1,11.5c0,0,10.7-2.8,9.1,0C182.7,14.3,174.4,17.9,175.1,11.5z"/>
	<path id="XMLID_3_" class="st3" d="M172.7,10.3c0,0,3.6-6.5-0.2-8C168.7,0.7,171.2,13,172.7,10.3z"/>
</g>
</svg>
