<?xml version="1.0" encoding="utf-8"?>
<!-- Generator: Adobe Illustrator 19.0.0, SVG Export Plug-In . SVG Version: 6.00 Build 0)  -->
<svg version="1.1" id="Layer_1" xmlns="http://www.w3.org/2000/svg" xmlns:xlink="http://www.w3.org/1999/xlink" x="0px" y="0px"
	 viewBox="0 0 206.5 198.1" style="enable-background:new 0 0 206.5 198.1;" xml:space="preserve">
<style type="text/css">
	.st0{fill:#262426;}
	.st1{fill:#F69A84;}
	.st2{fill:#F4806A;}
	.st3{fill:#353335;}
	.st4{fill:#F0B02A;}
	.st5{fill:#FFFFFF;}
	.st6{fill:#524D4E;}
	.st7{fill:#F58D76;}
	.st8{fill:#F37862;}
</style>
<g id="XMLID_2_">
	<g id="XMLID_43_">
		<g id="XMLID_57_">
			<g id="XMLID_58_">
				<g id="XMLID_62_">
					<path id="XMLID_69_" class="st0" d="M131.7,61.3c4.6,4.8,9.6,9.1,14.9,12.9c-3.5,11-4.6,18.3-4.6,18.3
						c-12.6,16.6-3.6,55.1,22.1,42c16.9-8.6,25.7-25.5,28-43.2c4.8,0.4,9.7,0.4,14.5-0.2c0.5,23.3-8,44.3-35.3,53.3
						c-27.2,6.2-42.3-31.1-42.4-47C128.7,97.3,126.9,81.5,131.7,61.3z"/>
					<path id="XMLID_66_" class="st1" d="M190.3,63.8c2.3,8.7,2.9,18.2,1.7,27.5c-15.9-1.3-31.8-7.4-45.4-17.1c3-9.6,7.8-22,15-34.8
						C177.1,11.7,180.6,26.2,190.3,63.8z"/>
					<path id="XMLID_63_" class="st2" d="M164,134.5c-25.6,13.1-34.7-25.4-22.1-42c0,0,1.2-7.3,4.6-18.3
						c13.7,9.6,29.5,15.8,45.4,17.1C189.8,109,180.9,125.9,164,134.5z"/>
				</g>
				<path id="XMLID_59_" class="st3" d="M173.3,0.4c3.4-2.1,7.1,7.3,7.1,7.3c8.6,16.2,25.5,51.9,26.1,83.4
					c-4.8,0.5-9.6,0.6-14.5,0.2c1.2-9.2,0.5-18.8-1.7-27.5c-9.7-37.5-13.2-52-28.7-24.4c-7.2,12.8-12,25.2-15,34.8
					c-5.4-3.8-10.4-8.1-14.9-12.9C136.4,41.5,147.5,17.5,173.3,0.4z"/>
			</g>
		</g>
		<g id="XMLID_44_">
			<g id="XMLID_45_">
				<g id="XMLID_49_">
					<path id="XMLID_56_" class="st0" d="M74.8,61.3c-4.6,4.8-9.6,9.1-14.9,12.9c3.5,11,4.6,18.3,4.6,18.3
						c12.6,16.6,3.6,55.1-22.1,42c-16.9-8.6-25.7-25.5-28-43.2C9.7,91.7,4.8,91.6,0,91.1c-0.5,23.3,8,44.3,35.3,53.3
						c27.2,6.2,42.3-31.1,42.4-47C77.8,97.3,79.6,81.5,74.8,61.3z"/>
					<path id="XMLID_53_" class="st1" d="M16.2,63.8C14,72.5,13.3,82,14.5,91.3c15.9-1.3,31.8-7.4,45.4-17.1c-3-9.6-7.8-22-15-34.8
						C29.4,11.7,25.9,26.2,16.2,63.8z"/>
					<path id="XMLID_50_" class="st2" d="M42.5,134.5c25.6,13.1,34.7-25.4,22.1-42c0,0-1.2-7.3-4.6-18.3
						c-13.7,9.6-29.5,15.8-45.4,17.1C16.7,109,25.6,125.9,42.5,134.5z"/>
				</g>
				<path id="XMLID_46_" class="st3" d="M33.2,0.4C30-2,26.1,7.7,26.1,7.7C17.6,23.8,0.6,59.6,0,91.1c4.8,0.5,9.6,0.6,14.5,0.2
					C13.3,82,14,72.5,16.2,63.8c9.7-37.5,13.2-52,28.7-24.4c7.2,12.8,12,25.2,15,34.8c5.4-3.8,10.4-8.1,14.9-12.9
					C70.1,41.5,59,17.5,33.2,0.4z"/>
			</g>
		</g>
	</g>
	<path id="XMLID_42_" class="st0" d="M193.8,156.6c0,0-24.6,39.7-89.5,41.3c-64.9,1.6-94.5-44.5-97.4-58.6c-3-14,11.6-66.2,96-64.4
		C180,76.5,215.3,130.9,193.8,156.6z"/>
	<path id="XMLID_39_" class="st3" d="M184,156.6c0,0-21.9,39.7-79.8,41.3c-57.9,1.6-84.3-44.5-86.9-58.6
		c-2.6-14,10.4-66.2,85.6-64.4C171.7,76.5,203.2,130.9,184,156.6z"/>
	<g id="XMLID_20_">
		<g id="XMLID_30_">
			<g id="XMLID_31_">
				<g id="XMLID_32_">
					<path id="XMLID_36_" class="st4" d="M68.8,130.3c0,8.1-6.6,14.7-14.7,14.7c-8.1,0-14.7-6.6-14.7-14.7c0-8.1,6.6-14.7,14.7-14.7
						C62.2,115.6,68.8,122.2,68.8,130.3z"/>
					<path id="XMLID_35_" class="st0" d="M62.4,130.3c0,6.4-3.8,11.5-8.4,11.5c-4.6,0-8.4-5.2-8.4-11.5c0-6.4,3.7-11.5,8.4-11.5
						C58.7,118.7,62.4,123.9,62.4,130.3z"/>
					<circle id="XMLID_34_" class="st5" cx="48.7" cy="124.7" r="6.6"/>
					<path id="XMLID_33_" class="st5" d="M53.2,139.5c0,1.9-1.5,3.4-3.4,3.4c-1.9,0-3.4-1.5-3.4-3.4c0-1.9,1.5-3.4,3.4-3.4
						C51.7,136.1,53.2,137.6,53.2,139.5z"/>
				</g>
			</g>
		</g>
		<g id="XMLID_21_">
			<g id="XMLID_22_">
				<g id="XMLID_23_">
					<path id="XMLID_27_" class="st4" d="M165.5,130.3c0,8.1-6.6,14.7-14.7,14.7c-8.1,0-14.7-6.6-14.7-14.7
						c0-8.1,6.6-14.7,14.7-14.7C158.9,115.6,165.5,122.2,165.5,130.3z"/>
					<path id="XMLID_26_" class="st0" d="M159.2,130.3c0,6.4-3.7,11.5-8.4,11.5c-4.6,0-8.4-5.2-8.4-11.5c0-6.4,3.8-11.5,8.4-11.5
						C155.4,118.7,159.2,123.9,159.2,130.3z"/>
					<path id="XMLID_25_" class="st5" d="M152.1,124.7c0,3.7-3,6.6-6.6,6.6c-3.7,0-6.6-3-6.6-6.6c0-3.7,3-6.6,6.6-6.6
						C149.1,118.1,152.1,121.1,152.1,124.7z"/>
					<circle id="XMLID_24_" class="st5" cx="146.5" cy="139.5" r="3.4"/>
				</g>
			</g>
		</g>
	</g>
	<path id="XMLID_19_" class="st0" d="M138,158.1c-2.8-14.2-16-14-16-14c0-34.7-18.7-69.2-18.7-69.2s-18.7,34.5-18.7,69.2
		c0,0-13.2-0.1-16,14c-2.8,14.2,10.7,42.1,34.7,39.8C127.3,200.2,140.8,172.3,138,158.1z"/>
	<path id="XMLID_16_" class="st6" d="M117.5,169.2c-1.8,1.9-4,3.3-6.6,3.6c-2.5,0.2-5.5-0.6-7.2-2.5c-0.4-0.4-0.7-0.9-1-1.4
		c0.5-1.5,0.8-3.1,1-4.7c0.5-3.8,0.4-7.8-0.4-11.6c-0.3-1.6-2.8-1.1-2.5,0.5c0.6,3,0.7,6.1,0.5,9.1c-0.2,2.5-0.4,5.1-1.8,7.3
		c-1.4,2.2-4.2,3.4-6.7,3.5c-2.6,0.1-5.1-1-7.1-2.6c-1.3-1-2.7,1.1-1.4,2.1c4.8,3.8,12.1,4.2,16.5-0.6c0.2-0.2,0.3-0.4,0.5-0.6
		c0.4,0.5,0.9,1,1.4,1.5c5,4.1,12.2,2.7,16.4-1.8C120.3,169.9,118.6,168,117.5,169.2z"/>
	<g id="XMLID_3_">
		<g id="XMLID_81_">
			<g id="XMLID_84_">
				<path id="XMLID_85_" class="st7" d="M91.1,146.6c-3.1,2.5-2.4,3.5-1.9,4.5c0.8,1.6,6.9,5.2,6.9,5.2s3.4,4.4,6.7,4.1
					c3.4-0.2,6.6-3.8,6.6-3.8s3.2-1.8,6.4-5c0,0,0.8-1.8-1.4-4.4C106.8,149.6,98.7,149,91.1,146.6z"/>
			</g>
			<g id="XMLID_82_">
				<path id="XMLID_83_" class="st8" d="M102.7,143.6c-5.9,0-9.5,1.3-11.6,3c7.6,2.4,15.8,3,23.5,0.7
					C112.9,145.4,109.5,143.6,102.7,143.6z"/>
			</g>
		</g>
	</g>
</g>
</svg>
