<?xml version="1.0" encoding="utf-8"?>
<!-- Generator: Adobe Illustrator 19.0.0, SVG Export Plug-In . SVG Version: 6.00 Build 0)  -->
<svg version="1.1" id="Layer_1" xmlns="http://www.w3.org/2000/svg" xmlns:xlink="http://www.w3.org/1999/xlink" x="0px" y="0px"
	 viewBox="0 0 246.4 176.6" style="enable-background:new 0 0 246.4 176.6;" xml:space="preserve">
<style type="text/css">
	.st0{fill:#262426;}
	.st1{fill:#F69A84;}
	.st2{fill:#F4806A;}
	.st3{fill:#353335;}
	.st4{fill:#F0B02A;}
	.st5{fill:#FFFFFF;}
	.st6{fill:#DADFCE;}
	.st7{fill:#F58D76;}
	.st8{fill:#F37862;}
</style>
<g id="XMLID_2_">
	<g id="XMLID_52_">
		<g id="XMLID_67_">
			<g id="XMLID_68_">
				<g id="XMLID_69_">
					<g id="XMLID_73_">
						<path id="XMLID_80_" class="st0" d="M83.5,46.8c-3,2.3-6.3,4.2-9.9,5.7c2.8,7.4,3.9,12.1,3.9,12.1
							c9.4,12.3,4.6,34.8-13.7,22.7c-12.1-8-18.9-19.9-21.1-31.3c-3.3-0.5-6.7-1.3-10.1-2.4c0.6,14.4,7.3,28.8,26.6,38.7
							c19.2,8.2,28.2-12.7,27.7-22.6C86.9,69.7,87.6,60.1,83.5,46.8z"/>
						<path id="XMLID_77_" class="st1" d="M42.8,39.2c-1.2,5.1-1.3,10.9-0.1,16.8c11,1.7,21.8,0.3,30.9-3.5
							c-2.5-6.4-6.3-14.9-11.8-24C49.9,8.9,48.1,17.3,42.8,39.2z"/>
						<path id="XMLID_74_" class="st2" d="M63.8,87.3c18.3,12.2,23.1-10.3,13.7-22.7c0,0-1.1-4.7-3.9-12.1
							c-9.1,3.9-19.9,5.2-30.9,3.5C44.9,67.4,51.8,79.3,63.8,87.3z"/>
					</g>
					<path id="XMLID_70_" class="st3" d="M32.6,53.6c3.4,1.1,6.7,1.9,10.1,2.4c-1.2-5.9-1.1-11.7,0.1-16.8
						c5.3-21.8,7.1-30.3,19-10.7c5.5,9.1,9.3,17.5,11.8,24c3.6-1.5,6.9-3.4,9.9-5.7c-1.5-5-3.5-10.6-6.9-16.1
						C58.3,1,32.4-29,32.6,53.6z"/>
				</g>
			</g>
		</g>
		<g id="XMLID_53_">
			<g id="XMLID_54_">
				<g id="XMLID_55_">
					<g id="XMLID_59_">
						<path id="XMLID_66_" class="st0" d="M162.9,46.8c3,2.3,6.3,4.2,9.9,5.7c-2.8,7.4-3.9,12.1-3.9,12.1
							c-9.4,12.3-4.6,34.8,13.7,22.7c12.1-8,18.9-19.9,21.1-31.3c3.3-0.5,6.7-1.3,10.1-2.4c-0.6,14.4-7.3,28.8-26.6,38.7
							c-19.2,8.2-28.2-12.7-27.7-22.6C159.5,69.7,158.8,60.1,162.9,46.8z"/>
						<path id="XMLID_63_" class="st1" d="M203.6,39.2c1.2,5.1,1.3,10.9,0.1,16.8c-11,1.7-21.8,0.3-30.9-3.5
							c2.5-6.4,6.3-14.9,11.8-24C196.5,8.9,198.4,17.3,203.6,39.2z"/>
						<path id="XMLID_60_" class="st2" d="M182.6,87.3c-18.3,12.2-23.1-10.3-13.7-22.7c0,0,1.1-4.7,3.9-12.1
							c9.1,3.9,19.9,5.2,30.9,3.5C201.5,67.4,194.7,79.3,182.6,87.3z"/>
					</g>
					<path id="XMLID_56_" class="st3" d="M213.8,53.6c-3.4,1.1-6.7,1.9-10.1,2.4c1.2-5.9,1.1-11.7-0.1-16.8
						c-5.3-21.8-7.1-30.3-19-10.7c-5.5,9.1-9.3,17.5-11.8,24c-3.6-1.5-6.9-3.4-9.9-5.7c1.5-5,3.5-10.6,6.9-16.1
						C188.1,1,214-29,213.8,53.6z"/>
				</g>
			</g>
		</g>
	</g>
	<path id="XMLID_51_" class="st0" d="M174.8,56.1c-19-6.9-37.8-8.1-51.6-7.6c-13.8-0.4-32.6,0.8-51.6,7.6
		c-36.8,13.3-47,70-33.8,87.3c12.1,15.8,50.4,35.5,85.4,33c35.1,2.5,73.4-17.2,85.4-33C221.9,126.1,211.6,69.4,174.8,56.1z"/>
	<path id="XMLID_45_" class="st3" d="M167.4,56.1c-16.3-6.9-32.4-8.1-44.2-7.6c-11.8-0.4-27.9,0.8-44.2,7.6
		c-31.5,13.3-40.3,70-29,87.3c10.3,15.8,43.1,35.5,73.1,33c30,2.5,62.8-17.2,73.1-33C207.7,126.1,198.9,69.4,167.4,56.1z"/>
	<g id="XMLID_26_">
		<g id="XMLID_36_">
			<g id="XMLID_37_">
				<g id="XMLID_38_">
					<path id="XMLID_42_" class="st4" d="M100.9,115.4c0,10.2-8.3,18.4-18.4,18.4c-10.2,0-18.4-8.3-18.4-18.4
						c0-10.2,8.2-18.4,18.4-18.4C92.6,96.9,100.9,105.2,100.9,115.4z"/>
					<path id="XMLID_41_" class="st0" d="M93,115.4c0,8-4.7,14.5-10.5,14.5c-5.8,0-10.5-6.5-10.5-14.5c0-8,4.7-14.5,10.5-14.5
						C88.3,100.9,93,107.4,93,115.4z"/>
					<circle id="XMLID_40_" class="st5" cx="75.8" cy="108.4" r="8.3"/>
					<path id="XMLID_39_" class="st5" d="M81.4,126.9c0,2.4-1.9,4.3-4.3,4.3c-2.4,0-4.3-1.9-4.3-4.3c0-2.4,1.9-4.3,4.3-4.3
						C79.5,122.6,81.4,124.6,81.4,126.9z"/>
				</g>
			</g>
		</g>
		<g id="XMLID_27_">
			<g id="XMLID_28_">
				<g id="XMLID_29_">
					<path id="XMLID_33_" class="st4" d="M182.4,115.4c0,10.2-8.3,18.4-18.4,18.4s-18.4-8.3-18.4-18.4c0-10.2,8.3-18.4,18.4-18.4
						S182.4,105.2,182.4,115.4z"/>
					<path id="XMLID_32_" class="st0" d="M174.5,115.4c0,8-4.7,14.5-10.5,14.5c-5.8,0-10.5-6.5-10.5-14.5c0-8,4.7-14.5,10.5-14.5
						C169.8,100.9,174.5,107.4,174.5,115.4z"/>
					<circle id="XMLID_31_" class="st5" cx="157.3" cy="108.4" r="8.3"/>
					<path id="XMLID_30_" class="st5" d="M162.9,126.9c0,2.4-1.9,4.3-4.3,4.3c-2.4,0-4.3-1.9-4.3-4.3c0-2.4,1.9-4.3,4.3-4.3
						C161,122.6,162.9,124.6,162.9,126.9z"/>
				</g>
			</g>
		</g>
	</g>
	<g id="XMLID_17_">
		<g id="XMLID_22_">
			<path id="XMLID_25_" class="st6" d="M78.8,135.9c-9.8-2.1-19.7-3.6-29.7-4.3c-10.3-0.7-20.7-1.2-31-1.4c-5.8-0.1-11.5-0.1-17.3,0
				c-1.1,0-0.9,1.7,0.2,1.7c10.4-0.3,20.8,0,31.1,0.5c10.2,0.5,20.4,0.9,30.4,2.4c5.4,0.8,10.7,1.7,16,2.8
				C79.6,137.8,79.9,136.1,78.8,135.9z"/>
			<path id="XMLID_24_" class="st6" d="M79.4,146.3c-10,1-19.9,2.6-29.6,5.1c-10,2.5-20,5.2-30,8.2c-5.5,1.7-11,3.4-16.4,5.3
				c-1.1,0.4-0.3,1.9,0.8,1.6c9.8-3.5,19.8-6.4,29.8-9.1c9.8-2.7,19.7-5.4,29.7-7.1c5.3-0.9,10.7-1.6,16.1-2.2
				C80.8,147.9,80.5,146.2,79.4,146.3z"/>
			<path id="XMLID_23_" class="st6" d="M83.4,140.5c-10-0.8-20-1-30-0.4c-10.3,0.7-20.7,1.5-30.9,2.6c-5.7,0.6-11.5,1.4-17.1,2.3
				c-1.1,0.2-0.6,1.8,0.5,1.7c10.3-1.6,20.6-2.7,30.9-3.6c10.1-0.8,20.3-1.7,30.5-1.6c5.4,0,10.8,0.3,16.2,0.7
				C84.5,142.3,84.5,140.6,83.4,140.5z"/>
		</g>
		<g id="XMLID_18_">
			<path id="XMLID_21_" class="st6" d="M167.6,138.3c9.8-2.1,19.7-3.6,29.7-4.3c10.3-0.7,20.7-1.2,31-1.4c5.8-0.1,11.5-0.1,17.3,0
				c1.1,0,0.9,1.7-0.2,1.7c-10.4-0.3-20.8,0-31.1,0.5c-10.2,0.5-20.4,0.9-30.4,2.4c-5.4,0.8-10.7,1.7-16,2.8
				C166.8,140.2,166.6,138.5,167.6,138.3z"/>
			<path id="XMLID_20_" class="st6" d="M167.1,148.7c10,1,19.9,2.6,29.6,5.1c10,2.5,20,5.2,30,8.2c5.5,1.7,11,3.4,16.4,5.3
				c1.1,0.4,0.3,1.9-0.7,1.6c-9.8-3.5-19.8-6.4-29.8-9.1c-9.8-2.7-19.7-5.4-29.7-7.1c-5.3-0.9-10.7-1.6-16.1-2.2
				C165.6,150.2,166,148.5,167.1,148.7z"/>
			<path id="XMLID_19_" class="st6" d="M163,142.9c10-0.8,20-1,30-0.4c10.3,0.7,20.7,1.5,30.9,2.6c5.7,0.6,11.5,1.4,17.1,2.3
				c1.1,0.2,0.6,1.8-0.5,1.7c-10.3-1.6-20.6-2.7-30.9-3.6c-10.1-0.9-20.3-1.7-30.5-1.6c-5.4,0-10.8,0.3-16.2,0.7
				C161.9,144.7,161.9,143,163,142.9z"/>
		</g>
	</g>
	<path id="XMLID_16_" class="st0" d="M134.1,157.9c-7.3-2.2-8.7-9.6-9.4-15.7c0.4-3.7,0-7.5-0.5-11.2c-0.2-1.2-2.2-0.9-2.1,0.3
		c0.5,3.4,0.8,6.8,0.5,10.2c-0.1,0.1-0.1,0.3-0.1,0.4c0,0,0,0.1,0,0.1c-0.1,1.1-0.3,2.1-0.5,3.2c-1.1,4.7-4.2,8.4-7.7,11.9
		c-0.9,0.9,0.8,2,1.7,1.1c1.7-1.7,3.4-3.5,4.8-5.5c1.2-1.6,2-3.3,2.6-5.1c1.3,5.2,3.8,10.1,9.9,11.9
		C134.6,160,135.4,158.3,134.1,157.9z"/>
	<g id="XMLID_3_">
		<g id="XMLID_92_">
			<g id="XMLID_95_">
				<path id="XMLID_96_" class="st7" d="M115.9,129.7c-2,1.6-1.5,2.3-1.2,2.9c0.5,1,4.4,3.4,4.4,3.4s2.2,2.8,4.3,2.7
					c2.2-0.2,4.2-2.4,4.2-2.4s2-1.2,4.1-3.2c0,0,0.5-1.2-0.9-2.8C126.1,131.6,120.8,131.2,115.9,129.7z"/>
			</g>
			<g id="XMLID_93_">
				<path id="XMLID_94_" class="st8" d="M123.4,127.7c-3.8,0-6.1,0.8-7.5,1.9c4.9,1.5,10.1,1.9,15.1,0.5
					C129.9,128.9,127.7,127.7,123.4,127.7z"/>
			</g>
		</g>
	</g>
</g>
</svg>
