<?xml version="1.0" encoding="utf-8"?>
<!-- Generator: Adobe Illustrator 19.0.0, SVG Export Plug-In . SVG Version: 6.00 Build 0)  -->
<svg version="1.1" id="Layer_1" xmlns="http://www.w3.org/2000/svg" xmlns:xlink="http://www.w3.org/1999/xlink" x="0px" y="0px"
	 viewBox="0 0 194.5 211.2" style="enable-background:new 0 0 194.5 211.2;" xml:space="preserve">
<style type="text/css">
	.st0{fill:#DADFCE;}
	.st1{fill:#F69A84;}
	.st2{fill:#F4806A;}
	.st3{fill:#FFFFFF;}
	.st4{fill:#353335;}
	.st5{fill:#524D4E;}
	.st6{fill:#F58D76;}
	.st7{fill:#F37862;}
	.st8{fill:#1A191B;}
	.st9{fill:#439573;}
	.st10{fill:#262426;}
	.st11{fill:#F0B02A;}
</style>
<g id="XMLID_2_">
	<g id="XMLID_48_">
		<g id="XMLID_64_">
			<g id="XMLID_65_">
				<g id="XMLID_71_">
					<path id="XMLID_78_" class="st0" d="M124,54.5c4.3,4.2,9,8.1,14.1,11.4c-3.3,9.8-4.4,16.3-4.4,16.3
						c-11.9,14.8-3.4,49,20.8,37.3c15.9-7.7,24.3-22.6,26.4-38.4c4.6,0.4,9.1,0.3,13.6-0.2c0.4,20.7-7.5,39.3-33.3,47.3
						c-25.7,5.5-39.9-27.6-40-41.8C121.3,86.5,119.5,72.4,124,54.5z"/>
					<path id="XMLID_75_" class="st1" d="M179.3,56.7c2.1,7.8,2.7,16.2,1.6,24.4c-15-1.2-29.9-6.6-42.8-15.2
						c2.8-8.5,7.3-19.5,14.1-30.9C166.9,10.4,170.2,23.3,179.3,56.7z"/>
					<path id="XMLID_72_" class="st2" d="M154.5,119.5c-24.1,11.6-32.7-22.6-20.8-37.3c0,0,1.1-6.5,4.4-16.3
						c12.9,8.6,27.8,14,42.8,15.2C178.8,96.9,170.4,111.8,154.5,119.5z"/>
				</g>
				<path id="XMLID_70_" class="st3" d="M140.1,21c-8.6,11.1-13.4,22.9-16.1,33.4c4.3,4.2,9,8.1,14.1,11.4
					c2.8-8.5,7.3-19.5,14.1-30.9c0.1-0.2,0.2-0.4,0.4-0.6C147.8,30.4,143.4,26,140.1,21z"/>
				<path id="XMLID_67_" class="st4" d="M187.5,45.8c-5.5-16.1-12.9-30.5-17.6-38.9c0,0-3.5-8.3-6.7-6.5
					c-9.8,6.1-17.3,13.3-23.1,20.7c3.3,5,7.7,9.4,12.5,13.3C165,13.8,169.2,20.9,176,44.8C179.8,45.6,183.7,45.9,187.5,45.8z"/>
				<path id="XMLID_66_" class="st3" d="M176,44.8c1,3.6,2.1,7.6,3.3,11.9c2.1,7.8,2.7,16.2,1.6,24.4c4.6,0.4,9.1,0.3,13.6-0.2
					c-0.2-11.6-3.1-23.8-7-35.2C183.7,45.9,179.8,45.6,176,44.8z"/>
			</g>
		</g>
		<g id="XMLID_49_">
			<g id="XMLID_50_">
				<g id="XMLID_56_">
					<path id="XMLID_63_" class="st0" d="M70.5,54.5c-4.3,4.2-9,8.1-14.1,11.4c3.3,9.8,4.4,16.3,4.4,16.3
						c11.9,14.8,3.4,49-20.8,37.3c-15.9-7.7-24.3-22.6-26.4-38.4C9.1,81.4,4.5,81.4,0,80.9c-0.4,20.7,7.5,39.3,33.3,47.3
						c25.7,5.5,39.9-27.6,40-41.8C73.3,86.5,75,72.4,70.5,54.5z"/>
					<path id="XMLID_60_" class="st1" d="M15.3,56.7c-2.1,7.8-2.7,16.2-1.6,24.4c15-1.2,29.9-6.6,42.8-15.2
						c-2.8-8.5-7.3-19.5-14.1-30.9C27.7,10.4,24.4,23.3,15.3,56.7z"/>
					<path id="XMLID_57_" class="st2" d="M40,119.5c24.1,11.6,32.7-22.6,20.8-37.3c0,0-1.1-6.5-4.4-16.3
						c-12.9,8.6-27.8,14-42.8,15.2C15.8,96.9,24.1,111.8,40,119.5z"/>
				</g>
				<path id="XMLID_55_" class="st3" d="M9.5,38.9C4.4,52.1,0.3,67,0,80.9c4.5,0.5,9.1,0.5,13.6,0.2c-1.1-8.2-0.5-16.7,1.6-24.4
					c1.9-7.1,3.6-13.2,5.2-18.3C16.8,38.7,13.1,38.9,9.5,38.9z"/>
				<path id="XMLID_54_" class="st3" d="M55.3,22.3c-3.9,4.8-8.7,8.7-13.9,11.2c0.3,0.5,0.6,1,0.9,1.5c6.8,11.4,11.3,22.4,14.1,30.9
					c5-3.4,9.8-7.2,14.1-11.4C67.9,44.3,63.4,33,55.3,22.3z"/>
				<path id="XMLID_51_" class="st4" d="M55.3,22.3c-5.9-7.9-13.7-15.5-24-21.9c-3.1-2.1-6.7,6.5-6.7,6.5
					c-4,7.2-10.1,18.8-15.1,32.1c3.6,0.1,7.3-0.1,11-0.5c5.7-18.3,10.1-22.5,21-4.9C46.7,31,51.5,27.1,55.3,22.3z"/>
			</g>
		</g>
	</g>
	<path id="XMLID_47_" class="st0" d="M12.1,96.2c-3.8,3.9-5.5,6.5-5.5,6.5c-12.3,13.7,2.9,45.5,27.6,69.5
		C29.1,146.4,7.3,121.7,12.1,96.2z"/>
	<path id="XMLID_46_" class="st3" d="M180.9,98c-14.6-16.4-42-34.9-84.8-33.9c-47.6,1.1-73.5,21.4-84,32.1
		c-4.8,25.5,17,50.2,22.1,76C52.8,190.3,76.9,204,98.6,202c18.5-1.6,36.5-11.5,51.8-23.9c7.7-21.6,21.1-41.6,29.9-62.7
		C182.6,109.6,182.3,103.7,180.9,98z"/>
	<path id="XMLID_45_" class="st0" d="M193.5,118.9c-1-4.5-5.1-12.4-12.6-20.9c1.5,5.7,1.7,11.6-0.5,17.4
		c-8.8,21.1-22.2,41.2-29.9,62.7C177,156.6,195.3,127.2,193.5,118.9z"/>
	<path id="XMLID_44_" class="st3" d="M87.8,189.9c0,0-9.3,9.9-6.5,11.9c2.8,2,5-0.8,5-0.8s-0.7,5.8,1.2,6.9c1.9,1.1,4-4.9,4-4.9
		s0.4,9.1,5.2,8.1c4.8-1,1.8-6.1,1.8-6.1s4.1,5.1,6.4,1.7c1-1.5-0.1-3.7-0.1-3.7s8.5,1.5,3.9-4.9C103.6,191.2,92.5,190.5,87.8,189.9
		z"/>
	<g id="XMLID_3_">
		<path id="XMLID_41_" class="st4" d="M30.9,114.1c0,0,18-29.1,65.6-30.3c47.6-1.2,69.3,32.7,71.5,43c2.2,10.3-32.6,61.8-69.6,65.3
			C61.4,195.6,15.1,133,30.9,114.1z"/>
		<g id="XMLID_4_">
			<path id="XMLID_38_" class="st5" d="M113.2,168.4c-1.8,1.9-4,3.3-6.6,3.6c-2.5,0.3-5.5-0.6-7.2-2.5c-0.4-0.4-0.7-0.9-1-1.4
				c0.6-1.5,0.8-3.1,1-4.7c0.5-3.8,0.4-7.8-0.4-11.6c-0.3-1.6-2.8-1.1-2.5,0.5c0.6,3,0.7,6.1,0.5,9.2c-0.2,2.5-0.4,5.2-1.8,7.3
				c-1.4,2.2-4.2,3.4-6.7,3.5c-2.6,0.1-5.1-1-7.1-2.6c-1.3-1-2.7,1.1-1.4,2.1c4.9,3.9,12.1,4.2,16.5-0.6c0.2-0.2,0.3-0.4,0.5-0.6
				c0.4,0.5,0.9,1.1,1.4,1.5c5.1,4.1,12.2,2.7,16.4-1.8C116.1,169.1,114.4,167.2,113.2,168.4z"/>
			<g id="XMLID_25_">
				<g id="XMLID_94_">
					<g id="XMLID_97_">
						<path id="XMLID_98_" class="st6" d="M88.4,147.5c-2.6,2.1-2,3-1.6,3.9c0.7,1.4,6,4.5,6,4.5s3,3.8,5.8,3.6
							c2.9-0.2,5.7-3.3,5.7-3.3s2.7-1.5,5.5-4.3c0,0,0.7-1.6-1.2-3.7C102,150.1,95,149.6,88.4,147.5z"/>
					</g>
					<g id="XMLID_95_">
						<path id="XMLID_96_" class="st7" d="M98.4,144.9c-5.1,0-8.2,1.1-10,2.6c6.5,2.1,13.6,2.6,20.2,0.6
							C107.2,146.5,104.2,144.9,98.4,144.9z"/>
					</g>
				</g>
			</g>
			<g id="XMLID_22_">
				<path id="XMLID_24_" class="st8" d="M70.4,143.5c0,0,1.5-15.3-10.3-22.6c-11.9-7.2-25.5,2.5-25.2,6.7
					C35.2,131.7,41.5,155.2,70.4,143.5z"/>
				<path id="XMLID_23_" class="st8" d="M125.4,143.5c0,0-1.5-15.3,10.3-22.6c11.9-7.2,25.5,2.5,25.2,6.7
					C160.6,131.7,154.3,155.2,125.4,143.5z"/>
			</g>
			<g id="XMLID_5_">
				<g id="XMLID_15_">
					<g id="XMLID_16_">
						<g id="XMLID_17_">
							<path id="XMLID_21_" class="st9" d="M66.9,132.7c0,7.6-6.1,13.7-13.7,13.7c-7.6,0-13.7-6.1-13.7-13.7
								c0-7.6,6.1-13.7,13.7-13.7C60.7,119,66.9,125.2,66.9,132.7z"/>
							<ellipse id="XMLID_20_" class="st10" cx="53.2" cy="132.7" rx="7.8" ry="10.7"/>
							<path id="XMLID_19_" class="st3" d="M54.4,127.5c0,3.4-2.8,6.2-6.2,6.2c-3.4,0-6.2-2.8-6.2-6.2c0-3.4,2.8-6.2,6.2-6.2
								C51.6,121.4,54.4,124.1,54.4,127.5z"/>
							<circle id="XMLID_18_" class="st3" cx="49.2" cy="141.3" r="3.2"/>
						</g>
					</g>
				</g>
				<g id="XMLID_6_">
					<g id="XMLID_7_">
						<g id="XMLID_8_">
							<path id="XMLID_12_" class="st11" d="M156.9,132.7c0,7.6-6.1,13.7-13.7,13.7c-7.6,0-13.7-6.1-13.7-13.7
								c0-7.6,6.1-13.7,13.7-13.7C150.7,119,156.9,125.2,156.9,132.7z"/>
							<ellipse id="XMLID_11_" class="st10" cx="143.2" cy="132.7" rx="7.8" ry="10.7"/>
							<path id="XMLID_10_" class="st3" d="M144.4,127.5c0,3.4-2.8,6.2-6.2,6.2c-3.4,0-6.2-2.8-6.2-6.2c0-3.4,2.8-6.2,6.2-6.2
								C141.6,121.4,144.4,124.1,144.4,127.5z"/>
							<circle id="XMLID_9_" class="st3" cx="139.2" cy="141.3" r="3.2"/>
						</g>
					</g>
				</g>
			</g>
		</g>
	</g>
</g>
</svg>
