<?xml version="1.0" encoding="utf-8"?>
<!-- Generator: Adobe Illustrator 19.0.0, SVG Export Plug-In . SVG Version: 6.00 Build 0)  -->
<svg version="1.1" id="Layer_1" xmlns="http://www.w3.org/2000/svg" xmlns:xlink="http://www.w3.org/1999/xlink" x="0px" y="0px"
	 viewBox="0 0 203.5 206.4" style="enable-background:new 0 0 203.5 206.4;" xml:space="preserve">
<style type="text/css">
	.st0{fill:#DADFCE;}
	.st1{fill:#F69A84;}
	.st2{fill:#F58D76;}
	.st3{fill:#FFFFFF;}
	.st4{fill:#A3623B;}
	.st5{fill:#724424;}
	.st6{fill:#844F2D;}
	.st7{fill:#D1D8C2;}
	.st8{fill:#353335;}
	.st9{fill:#262426;}
	.st10{fill:#1C99C6;}
</style>
<g id="XMLID_2_">
	<g id="XMLID_42_">
		<g id="XMLID_57_">
			<g id="XMLID_63_">
				<path id="XMLID_70_" class="st0" d="M72,53.6c-3.7,4.9-7.9,9.5-12.5,13.7c5.2,8.6,7.6,14.5,7.6,14.5
					c15.1,11.5,12.7,45.7-14.6,39.6c-18-4-29.5-16.4-34.7-30.9c-4.7,1.3-9.4,2.2-14.2,2.7c3.4,19.7,15.2,35.7,43.5,37.9
					c27.8,0,36.4-34.3,33.8-47.8C80.9,83.3,80.1,69.6,72,53.6z"/>
				<path id="XMLID_67_" class="st1" d="M14.9,67.1c-0.8,7.8,0.2,15.9,2.9,23.4c15.4-4.2,29.9-12.4,41.7-23.2
					C55,59.8,48.2,50.3,39,41C19.2,20.7,18.2,33.6,14.9,67.1z"/>
				<path id="XMLID_64_" class="st2" d="M52.5,121.4c27.3,6,29.8-28.1,14.6-39.6c0,0-2.4-5.9-7.6-14.5c-11.8,10.8-26.3,19-41.7,23.2
					C23,105,34.5,117.4,52.5,121.4z"/>
			</g>
			<path id="XMLID_62_" class="st3" d="M2.7,72.3c-0.4,7.1-0.2,14.2,0.9,20.9c4.8-0.5,9.5-1.4,14.2-2.7c-2.7-7.6-3.6-15.7-2.9-23.4
				c0.1-0.7,0.1-1.5,0.2-2.2c-0.3,0.2-0.6,0.5-0.9,0.7C10.4,68.2,6.6,70.4,2.7,72.3z"/>
			<path id="XMLID_61_" class="st3" d="M44.9,22.2c-2.3,5.7-4.9,11.3-7.9,16.7c0.7,0.7,1.4,1.3,2.1,2.1c9.2,9.4,15.9,18.9,20.5,26.4
				c4.6-4.2,8.8-8.8,12.5-13.7C66.7,43.1,58.3,31.5,44.9,22.2z"/>
			<path id="XMLID_58_" class="st4" d="M21.1,10.4C19.3,6.3,16.3-0.3,14.7,0c-2.3,0.4,0,9.6,0,9.6s-6-7.2-6.8-2.8
				c-0.6,3,4.3,8.2,7.4,11.1C11,29.4,4,51,2.7,72.3c3.9-1.9,7.7-4.1,11.5-6.7c0.3-0.2,0.6-0.5,0.9-0.7c3-30.6,4.4-42.8,21.8-26
				c3-5.4,5.6-11,7.9-16.7C38.2,17.6,30.4,13.5,21.1,10.4z"/>
		</g>
		<g id="XMLID_43_">
			<g id="XMLID_47_">
				<path id="XMLID_54_" class="st5" d="M131.4,53.6c3.7,4.9,7.9,9.5,12.5,13.7c-5.2,8.6-7.6,14.5-7.6,14.5
					c-15.1,11.5-12.7,45.7,14.7,39.6c18-4,29.5-16.4,34.7-30.9c4.7,1.3,9.4,2.2,14.2,2.7c-3.4,19.7-15.2,35.7-43.5,37.9
					c-27.8,0-36.4-34.3-33.8-47.8C122.6,83.3,123.4,69.6,131.4,53.6z"/>
				<path id="XMLID_51_" class="st1" d="M188.6,67.1c0.8,7.8-0.2,15.9-2.9,23.4c-15.4-4.2-29.9-12.4-41.7-23.2
					c4.6-7.5,11.3-17,20.5-26.4C184.3,20.7,185.3,33.6,188.6,67.1z"/>
				<path id="XMLID_48_" class="st2" d="M151,121.4c-27.3,6-29.8-28.1-14.7-39.6c0,0,2.4-5.9,7.6-14.5c11.8,10.8,26.3,19,41.7,23.2
					C180.5,105,169,117.4,151,121.4z"/>
			</g>
			<path id="XMLID_44_" class="st6" d="M182.4,10.4c1.8-4.1,4.8-10.7,6.4-10.4c2.3,0.4,0,9.6,0,9.6s6-7.2,6.8-2.8
				c0.6,3-4.3,8.2-7.4,11.1c5.7,15.3,16.4,48.6,11.7,75.2c-4.8-0.5-9.5-1.4-14.2-2.7c2.7-7.6,3.6-15.7,2.9-23.4
				c-3.3-33.5-4.3-46.3-24.1-26.1c-9.2,9.4-15.9,18.9-20.5,26.4c-4.6-4.2-8.8-8.8-12.5-13.7C139.4,37.8,154.3,19.8,182.4,10.4z"/>
		</g>
	</g>
	<path id="XMLID_41_" class="st3" d="M112,143.3c-18.8-20.4-22.2-49.6-14.6-75.9C31.8,69.7,3.3,134,6.2,147.8
		c3,14,32.5,60.2,97.4,58.6c43.7-1.1,69.1-19.4,81-31.3C157.4,173.7,131.4,164.6,112,143.3z"/>
	<path id="XMLID_38_" class="st6" d="M101,67.3c-1.2,0-2.5,0-3.7,0.1c-7.5,26.4-4.2,55.5,14.6,75.9c19.4,21.3,45.4,30.4,72.6,31.8
		c5.8-5.8,8.4-10,8.4-10C214.6,139.4,166.2,67.3,101,67.3z"/>
	<g id="XMLID_29_">
		<g id="XMLID_34_">
			<path id="XMLID_37_" class="st0" d="M65,156.1c-8.1-2.2-16.3-3.9-24.5-4.6c-8.5-0.7-17.1-1.3-25.6-1.5c-4.8-0.1-9.5-0.1-14.3,0
				c-0.9,0-0.7,1.9,0.2,1.8c8.6-0.3,17.1,0,25.7,0.5c8.4,0.5,16.8,1,25.1,2.5c4.4,0.8,8.8,1.9,13.2,3.1
				C65.8,158.2,65.9,156.4,65,156.1z"/>
			<path id="XMLID_36_" class="st0" d="M65.5,167.3c-8.2,1.1-16.4,2.8-24.4,5.4c-8.3,2.7-16.6,5.6-24.7,8.8
				c-4.6,1.8-9.1,3.7-13.6,5.7c-0.9,0.4-0.2,2.1,0.6,1.7c8.1-3.7,16.3-6.9,24.6-9.8c8.1-2.9,16.2-5.8,24.5-7.6
				c4.4-1,8.8-1.8,13.3-2.4C66.7,169,66.4,167.1,65.5,167.3z"/>
			<path id="XMLID_35_" class="st0" d="M68.8,161.1c-8.3-0.8-16.5-1.1-24.8-0.4c-8.5,0.7-17.1,1.6-25.6,2.8
				c-4.7,0.7-9.5,1.5-14.2,2.4c-0.9,0.2-0.5,2,0.4,1.8c8.5-1.8,17-2.9,25.5-3.8c8.4-0.9,16.8-1.8,25.2-1.7c4.5,0.1,8.9,0.4,13.4,0.8
				C69.8,163,69.8,161.2,68.8,161.1z"/>
		</g>
		<g id="XMLID_30_">
			<path id="XMLID_33_" class="st0" d="M138.4,158.7c8.1-2.2,16.3-3.9,24.5-4.6c8.5-0.7,17.1-1.3,25.6-1.5c4.8-0.1,9.5-0.1,14.3,0
				c0.9,0,0.7,1.9-0.2,1.8c-8.6-0.3-17.2,0-25.7,0.5c-8.4,0.5-16.8,1-25.1,2.5c-4.4,0.8-8.8,1.9-13.2,3.1
				C137.7,160.8,137.5,158.9,138.4,158.7z"/>
			<path id="XMLID_32_" class="st0" d="M137.9,169.8c8.2,1.1,16.4,2.8,24.4,5.4c8.3,2.7,16.6,5.6,24.7,8.8c4.6,1.8,9.1,3.7,13.6,5.7
				c0.9,0.4,0.2,2.1-0.6,1.7c-8.1-3.7-16.3-6.9-24.6-9.8c-8.1-2.9-16.2-5.8-24.5-7.6c-4.4-1-8.8-1.8-13.3-2.4
				C136.8,171.5,137,169.7,137.9,169.8z"/>
			<path id="XMLID_31_" class="st0" d="M134.6,163.6c8.3-0.8,16.5-1.1,24.8-0.4c8.5,0.7,17.1,1.6,25.6,2.8c4.7,0.7,9.5,1.5,14.2,2.4
				c0.9,0.2,0.5,2-0.4,1.8c-8.5-1.8-17-2.9-25.5-3.8c-8.4-0.9-16.8-1.8-25.2-1.7c-4.5,0.1-8.9,0.3-13.4,0.8
				C133.7,165.6,133.7,163.7,134.6,163.6z"/>
		</g>
	</g>
	<path id="XMLID_28_" class="st7" d="M118.7,182.1c-2,2.1-4.5,3.7-7.4,4c-2.8,0.3-6.1-0.6-8-2.8c-0.4-0.5-0.8-1-1.1-1.6
		c0.6-1.7,0.9-3.5,1.1-5.3c0.6-4.3,0.4-8.7-0.4-12.9c-0.4-1.8-3.1-1.2-2.8,0.6c0.7,3.4,0.8,6.8,0.5,10.2c-0.2,2.8-0.4,5.8-2,8.1
		c-1.6,2.4-4.7,3.8-7.5,3.9c-2.9,0.1-5.7-1.1-7.9-2.9c-1.4-1.1-3,1.2-1.6,2.4c5.4,4.3,13.5,4.7,18.5-0.7c0.2-0.2,0.4-0.4,0.5-0.6
		c0.5,0.6,1,1.2,1.6,1.7c5.7,4.6,13.6,3,18.4-2C121.8,182.9,120,180.8,118.7,182.1z"/>
	<g id="XMLID_18_">
		<g id="XMLID_80_">
			<g id="XMLID_82_">
				<path id="XMLID_83_" class="st8" d="M91.2,156.6c-2.9,2.3-2.2,3.3-1.7,4.3c0.8,1.5,6.5,4.9,6.5,4.9s3.3,4.1,6.3,3.9
					c3.2-0.2,6.2-3.6,6.2-3.6s3-1.7,6.1-4.7c0,0,0.8-1.7-1.3-4.1C106.1,159.5,98.4,158.9,91.2,156.6z"/>
			</g>
			<path id="XMLID_81_" class="st9" d="M102.2,153.8c-5.6,0-9,1.2-11,2.8c7.2,2.3,14.9,2.8,22.1,0.7
				C111.7,155.5,108.5,153.8,102.2,153.8z"/>
		</g>
	</g>
	<g id="XMLID_3_">
		<g id="XMLID_11_">
			<g id="XMLID_12_">
				<g id="XMLID_13_">
					<path id="XMLID_17_" class="st10" d="M75.9,131.2c0,7.6-6.1,13.7-13.7,13.7c-7.6,0-13.7-6.1-13.7-13.7
						c0-7.6,6.1-13.7,13.7-13.7C69.8,117.6,75.9,123.7,75.9,131.2z"/>
					<ellipse id="XMLID_16_" class="st9" cx="62.2" cy="131.2" rx="7.8" ry="10.7"/>
					<circle id="XMLID_15_" class="st3" cx="57.3" cy="126.1" r="6.2"/>
					<circle id="XMLID_14_" class="st3" cx="58.2" cy="139.8" r="3.2"/>
				</g>
			</g>
		</g>
		<g id="XMLID_4_">
			<g id="XMLID_5_">
				<g id="XMLID_6_">
					<path id="XMLID_10_" class="st10" d="M154.9,131.2c0,7.6-6.1,13.7-13.7,13.7c-7.6,0-13.7-6.1-13.7-13.7
						c0-7.6,6.1-13.7,13.7-13.7C148.8,117.6,154.9,123.7,154.9,131.2z"/>
					<ellipse id="XMLID_9_" class="st9" cx="141.3" cy="131.2" rx="7.8" ry="10.7"/>
					<circle id="XMLID_8_" class="st3" cx="136.3" cy="126.1" r="6.2"/>
					<circle id="XMLID_7_" class="st3" cx="137.3" cy="139.8" r="3.2"/>
				</g>
			</g>
		</g>
	</g>
</g>
</svg>
