<?xml version="1.0" encoding="utf-8"?>
<!-- Generator: Adobe Illustrator 19.0.0, SVG Export Plug-In . SVG Version: 6.00 Build 0)  -->
<svg version="1.1" id="Layer_1" xmlns="http://www.w3.org/2000/svg" xmlns:xlink="http://www.w3.org/1999/xlink" x="0px" y="0px"
	 viewBox="0 0 189.4 256.2" style="enable-background:new 0 0 189.4 256.2;" xml:space="preserve">
<style type="text/css">
	.st0{fill:#EEA208;}
	.st1{fill:#F0B02A;}
	.st2{fill:#F2D374;}
	.st3{fill:#0D0B0D;}
	.st4{fill:#262426;}
	.st5{fill:#FFFFFF;}
	.st6{fill:#BB6695;}
	.st7{fill:#B34F89;}
</style>
<g>
	<path class="st0" d="M107.2,174.1c-12.4,3-25-1.3-35-9.4c-1.7,15.7,4.5,30.9,6.6,33c3.5,3.4,7-5.9,7-5.9s3.3,5.9,5.9,5.9
		c2.6,0,4-6.9,4-6.9s1.7,6.9,6.6,6.9c4.9,0,5.8-8.3,5.8-8.3c6.8,2.4,14.7-9.8,14.7-9.8c0.9-5.7,1.3-11.3,1.1-16.7
		C119.2,168.1,113.3,172.1,107.2,174.1z"/>
	<path class="st1" d="M89,136.9c-11.2,7.1-15.7,17.6-16.8,27.8c10,8.1,22.6,12.4,35,9.4c6.2-2.1,12.1-6,16.7-11.3
		C123.1,139.8,112.1,122.2,89,136.9z"/>
	<g>
		<g>
			<path class="st1" d="M49.3,62.7c-7-9.7-19.6-20.4-41.9-24.1c0,0-12.2,32.1-5.3,54.4C21.4,89.3,39.2,77.4,49.3,62.7z"/>
			<path class="st0" d="M57.8,81c0,0-1.5-8.7-8.5-18.3C39.2,77.4,21.4,89.3,2.1,93c3.8,12.3,13.5,21.6,34.3,21
				C56.6,111.9,60.6,89.3,57.8,81z"/>
			<path class="st2" d="M47.6,81c0,0-7.5-12.6-23.2-24C8.6,45.6,8.7,53.9,8.6,75.5c-0.1,14.7,10.7,30.1,31.1,31.9
				C60,109.2,59.5,87.3,47.6,81z"/>
		</g>
		<g>
			<path class="st1" d="M137.5,60c7-9.7,19.6-20.4,41.9-24.1c0,0,12.2,32.1,5.3,54.4C165.4,86.7,147.7,74.8,137.5,60z"/>
			<path class="st0" d="M129.1,78.3c0,0,1.5-8.7,8.5-18.3c10.1,14.7,27.9,26.6,47.2,30.4c-3.8,12.3-13.5,21.6-34.3,21
				C130.2,109.3,126.3,86.7,129.1,78.3z"/>
			<path class="st2" d="M139.2,78.4c0,0,7.5-12.6,23.2-24c15.8-11.4,15.7-3.1,15.8,18.5c0.1,14.7-10.7,30.1-31.1,31.9
				C126.9,106.6,127.4,84.6,139.2,78.4z"/>
		</g>
	</g>
	<path class="st0" d="M25.8,204.5c3-8.1-0.8-16.8-5.8-24c3.1,14.6,4,26.6-6.1,34.1c-19.4,14.3-14.3,31.7,1.3,28.5
		C10.1,231.3,21.9,215.7,25.8,204.5z"/>
	<path class="st0" d="M109.1,198.2c-7.7,22.6-13.4,41.6,4.7,53.5c11.3,7.4,16.8,4.4,19.5,0.5C112,245.1,108.1,220.3,109.1,198.2z"/>
	<path class="st0" d="M123.3,62.9c-12.4-2.5-21.4-2.1-27.9,0.5c-6.7-2.6-16.1-3-29.2-0.2C74.2,68,80,77.2,88.5,81.1
		C103.1,87.5,112.3,72.7,123.3,62.9z"/>
	<path class="st1" d="M181.9,120.6c0,0,6.3-4.9-2.2-9.2c-4.2-2.1-7.5-5.8-9.9-9.1c-15.9-31.8-44.3-38.9-44.3-38.9
		c-0.7-0.2-1.4-0.3-2.2-0.5c-11,9.8-20.2,24.6-34.7,18.2C80,77.2,74.2,68,66.2,63.2c-0.3,0.1-0.5,0.1-0.8,0.2c0,0-28.4,7-44.3,38.9
		c-2.4,3.3-5.7,7-9.9,9.1c-8.5,4.3-2.2,9.2-2.2,9.2s-7.5,6.4-2.8,8.1c2.3,0.8,5-0.5,7.3-2.1c-2.5,19.5,3.4,38.2,6.7,53.9
		c5,7.1,8.7,15.8,5.8,24c-4,11.1-15.7,26.8-10.5,38.6c3.1-0.6,6.6-2,10.4-4.4c0,0-0.1,32,29.5,7c0,0,0.6,5.9,4.6,8.9
		c17.5-9.9,22.7-33.3,23-53.3c-1.1-3.2-2.2-6.5-3.3-9.8c-11.7-34.8,9.5-48.9,16-52.3c6.5,3.4,27.7,17.5,16,52.3
		c-0.8,2.3-1.5,4.6-2.3,6.8c-1,22.1,2.9,46.8,24.2,53.9c2-3,2.4-6.5,2.4-6.5c29.6,25,29.5-7,29.5-7c4.1,2.6,7.7,4,11,4.5
		c1-2.5,1.5-5.1,1.5-7.4c-0.8-16.8-16.6-35.6-8-49.9c2.9-16.7,10.5-37.6,7.7-59.3c2.3,1.6,5,2.9,7.3,2.1
		C189.4,127,181.9,120.6,181.9,120.6z"/>
	<path class="st0" d="M59.8,254.5c3.2,2.4,8.5,2.9,17.3-2.8c17.3-11.3,12.8-29.1,5.7-50.5C82.5,221.2,77.3,244.6,59.8,254.5z"/>
	<path class="st0" d="M176.9,214.6c-8.8-6.5-9.3-16.5-7.2-28.6c-8.7,14.3,7.2,33.1,8,49.9c0,2.3-0.6,4.8-1.5,7.4
		C191.3,245.8,196,228.7,176.9,214.6z"/>
	<g>
		<path class="st0" d="M13.4,126.6c0,0,5.6-2.3,8.2-7.1c0,0-4.8,13.4-9.2,13.1C6.3,132.2,13.4,126.6,13.4,126.6z"/>
		<path class="st0" d="M177.3,126.6c0,0-5.6-2.3-8.2-7.1c0,0,4.8,13.4,9.2,13.1C184.5,132.2,177.3,126.6,177.3,126.6z"/>
	</g>
	<path class="st1" d="M113.9,14.8c0,0,4.1-12.6-1.3-14.6c-5.4-2-12.1,18.4-12.1,18.4S106.1-0.8,96.7,0c-9.4,0.8-8.6,19.5-8.6,19.5
		S83.3,0.1,76.5,4.9c-6.8,4.8,0,17.7,0,17.7S64.2,7,60.1,16.5c-3,7,9.8,10.4,19.6,24.3c8.8-3.8,21.2-6.9,30.1-2.3
		c2.5-5.1,6.2-10.5,11.6-13.8C134,16.8,121.6,9.3,113.9,14.8z"/>
	<path class="st0" d="M79.7,40.8c3.5,4.9,6.6,11.1,8.5,19.3c5,21.4,17.1-8.7,17.1-8.7s1.1-6.2,4.5-13
		C100.9,33.9,88.5,36.9,79.7,40.8z"/>
	<g>
		<path class="st2" d="M106,134.5c0,0,26.2,6.2,33.9,26.3c7.7,20.1,0.1,30.1,0.1,30.1s4.9,12.7,0.8,18.6c-4.1,5.9-7.1-5.1-7.1-5.1
			s2,12-3.6,15c-5.6,3-9.6-11.5-9.6-11.5s-0.9,15.4-7.3,16.7c-6.4,1.2-5-13.9-5-13.9s-8,7.9-9-0.5c-1-8.3,14.9-12.9,14.1-31.6
			c-0.8-18.7-16.5-38-16.5-38L106,134.5z"/>
		<path class="st2" d="M85.3,134.5c0,0-26.2,6.2-33.9,26.3c-7.7,20.1-0.1,30.1-0.1,30.1s-4.9,12.7-0.8,18.6c4.1,5.9,7.1-5.1,7.1-5.1
			s-2,12,3.6,15c5.6,3,9.6-11.5,9.6-11.5s0.9,15.4,7.3,16.7c6.4,1.2,5-13.9,5-13.9s8,7.9,9-0.5c1-8.3-14.9-12.9-14.1-31.6
			c0.8-18.7,16.5-38,16.5-38L85.3,134.5z"/>
	</g>
	<g>
		<path class="st3" d="M108.1,130.4c-7.3,4.5-16.9,4.1-25.9,1.5c-2.1,3.3,0.5,5.2,4.9,6.3c4.9,1.2,5.1,4.4,7.6,5.1
			c2.5,0.7,4.2-1.5,6.6-3.8c2.4-2.3,6.7-1.8,7.9-3.8C109.2,135.6,111.3,133,108.1,130.4z"/>
		<path class="st4" d="M108.1,130.4c-0.4-0.3-0.8-0.6-1.3-0.8c-5-2.7-19.8-3.1-23.6,1c-0.4,0.5-0.8,0.9-1,1.3
			C91.1,134.6,100.7,134.9,108.1,130.4z"/>
	</g>
	<g>
		<g>
			<g>
				<path class="st4" d="M73.8,121.9c0,5.4-4.4,9.8-9.8,9.8c-5.4,0-9.8-4.4-9.8-9.8c0-5.4,4.4-9.8,9.8-9.8
					C69.4,112.1,73.8,116.5,73.8,121.9z"/>
				<circle class="st5" cx="60.4" cy="118.2" r="4.4"/>
				<circle class="st5" cx="61.1" cy="128.1" r="2.3"/>
			</g>
		</g>
		<g>
			<g>
				<path class="st4" d="M137.2,121.9c0,5.4-4.4,9.8-9.8,9.8c-5.4,0-9.8-4.4-9.8-9.8c0-5.4,4.4-9.8,9.8-9.8
					C132.8,112.1,137.2,116.5,137.2,121.9z"/>
				<circle class="st5" cx="123.8" cy="118.2" r="4.4"/>
				<circle class="st5" cx="124.5" cy="128.1" r="2.3"/>
			</g>
		</g>
	</g>
	<g>
		<path class="st0" d="M111.8,115.9c0,0-13.2-6.8-8.9-14.2C107.2,94.4,124.6,118.2,111.8,115.9z"/>
		<path class="st0" d="M79.6,115.9c0,0,13.2-6.8,8.9-14.2C84.1,94.4,66.8,118.2,79.6,115.9z"/>
	</g>
	<g>
		<path class="st6" d="M94.4,54.8c0,0-13.6-17.5-23.1-9.5c-7.8,6.6,1.7,9.6,1.7,9.6s-9.1,0.8-5.6,8C70.9,70.1,95.6,62.5,94.4,54.8z"
			/>
		<path class="st6" d="M95,55.2c0,0,13.1-17.9,22.8-10.2c8,6.4-1.4,9.7-1.4,9.7s9.1,0.6,5.8,7.9C118.8,69.9,93.9,62.9,95,55.2z"/>
		<ellipse class="st7" cx="95" cy="56.6" rx="8.6" ry="6.9"/>
	</g>
</g>
</svg>
