<?xml version="1.0" encoding="utf-8"?>
<!-- Generator: Adobe Illustrator 19.0.0, SVG Export Plug-In . SVG Version: 6.00 Build 0)  -->
<svg version="1.1" id="Layer_1" xmlns="http://www.w3.org/2000/svg" xmlns:xlink="http://www.w3.org/1999/xlink" x="0px" y="0px"
	 viewBox="0 0 181.5 236.8" style="enable-background:new 0 0 181.5 236.8;" xml:space="preserve">
<style type="text/css">
	.st0{fill:#844F2D;}
	.st1{fill:#724424;}
	.st2{fill:#A3623B;}
	.st3{fill:#F0B02A;}
	.st4{fill:#0D0B0D;}
	.st5{fill:#262426;}
	.st6{fill:#FFFFFF;}
</style>
<g>
	<g>
		<g>
			<g>
				<path class="st0" d="M50.8,24.2C45.3,15.5,37.4,4.8,30.2,1.1C17.2-5.4,10.8,18.2,3.4,28c-3.8,5-4.5,22.1-1.8,37.8
					C17.9,52.8,36.3,39.7,50.8,24.2z"/>
				<path class="st1" d="M50.8,24.2C36.3,39.7,17.9,52.8,1.6,65.8C4.1,80.5,9.5,94.1,18,95.5C35.6,98.6,71.1,73,57.9,36.7
					C57.9,36.7,55.1,31.1,50.8,24.2z"/>
			</g>
			<g>
				<g id="XMLID_88_">
					<g id="XMLID_91_">
						<path id="XMLID_92_" class="st2" d="M44.1,30.5c-3.6-5.8-8.8-12.9-13.6-15.3C21.8,10.9,17.6,26.5,12.7,33
							c-2.5,3.3-3,14.6-1.2,25.1C22.3,49.5,34.5,40.8,44.1,30.5z"/>
					</g>
					<g id="XMLID_89_">
						<path id="XMLID_90_" class="st0" d="M44.1,30.5c-9.6,10.3-21.8,19-32.6,27.6c1.6,9.7,5.2,18.7,10.8,19.7
							c11.6,2,35.2-14.9,26.5-39C48.8,38.8,46.9,35,44.1,30.5z"/>
					</g>
				</g>
			</g>
		</g>
		<g>
			<g>
				<path class="st0" d="M130.8,24.2c5.5-8.7,13.3-19.4,20.6-23.1c13-6.5,19.4,17.1,26.7,26.9c3.8,5,4.5,22.1,1.8,37.8
					C163.6,52.8,145.2,39.7,130.8,24.2z"/>
				<path class="st1" d="M130.8,24.2c14.5,15.5,32.9,28.6,49.2,41.6c-2.5,14.7-7.9,28.2-16.4,29.7C146,98.6,110.4,73,123.6,36.7
					C123.6,36.7,126.5,31.1,130.8,24.2z"/>
			</g>
			<g>
				<g id="XMLID_74_">
					<g id="XMLID_77_">
						<path id="XMLID_78_" class="st2" d="M137.5,30.5c3.6-5.8,8.8-12.9,13.6-15.3c8.6-4.3,12.9,11.3,17.7,17.8
							c2.5,3.3,3,14.6,1.2,25.1C159.2,49.5,147,40.8,137.5,30.5z"/>
					</g>
					<g id="XMLID_75_">
						<path id="XMLID_76_" class="st0" d="M137.5,30.5c9.6,10.3,21.8,19,32.6,27.6c-1.6,9.7-5.2,18.7-10.8,19.7
							c-11.6,2-35.2-14.9-26.5-39C132.7,38.8,134.6,35,137.5,30.5z"/>
					</g>
				</g>
			</g>
		</g>
	</g>
	<g>
		<g>
			<path class="st3" d="M91.5,29.8c-0.2,0-0.5,0-0.7,0C91,29.8,91.2,29.8,91.5,29.8L91.5,29.8z"/>
			<path class="st3" d="M90,29.8L90,29.8c0.2,0,0.5,0,0.7,0C90.5,29.8,90.3,29.8,90,29.8z"/>
			<path class="st3" d="M90,232.7c0.2,0,0.5,0,0.7,0C90.5,232.7,90.2,232.7,90,232.7C90,232.7,90,232.7,90,232.7z"/>
			<path class="st3" d="M91.5,232.7C91.5,232.7,91.5,232.7,91.5,232.7c-0.2,0-0.5,0-0.7,0C91,232.7,91.2,232.7,91.5,232.7z"/>
			<g>
				<path class="st0" d="M44,188.8c-4.7,35.6,25.2,41.6,44.9,43.7c0.3,0.1,0.7,0.2,1,0.2c0,0,0.1,0,0.1,0c-0.3,0-0.6-0.1-0.8-0.2
					c-16.8-2.2-42.2-8.2-38.3-43.7c1.3-12-1.4-18.4-5.8-24.2c-1.8,1.1-3.6,2.1-5.5,2.9C43.3,172.6,45.3,178.7,44,188.8z"/>
				<path class="st1" d="M30.2,144.7c-5.6-9.8-10.2-22.7-10-43.2C20.7,45.8,64.3,30.6,90,29.8c0,0,0,0,0,0c0,0-0.1,0-0.1,0
					c0,0,0,0,0,0C59.7,30.6,8.6,45.8,8,101.5c-0.3,24.4,7.3,38,15.5,48.5c5.8,7.3,11.9,11.8,16,17.5c1.9-0.9,3.7-1.8,5.5-2.9
					c-3.3-4.4-7.6-8.6-11.7-14.6C32.3,148.3,31.2,146.6,30.2,144.7z"/>
				<path class="st0" d="M130.6,188.8c4,35.6-21.5,41.6-38.3,43.7c-0.3,0.1-0.5,0.2-0.8,0.2c0,0,0.1,0,0.1,0c0.4,0,0.7-0.1,1-0.2
					c19.7-2.2,49.5-8.2,44.9-43.7c-1.1-8.1,0.1-13.7,2.5-18.2c-1.8-1.2-3.5-2.5-5.1-3.9C131.4,172,129.4,178.2,130.6,188.8z"/>
				<path class="st1" d="M158,150c8.3-10.5,15.8-24.1,15.5-48.5c-0.6-55.7-51.7-70.9-81.9-71.7c0,0,0,0,0,0c0,0-0.1,0-0.1,0
					c0,0,0,0,0,0c25.7,0.8,69.3,16,69.8,71.7c0.2,20.5-4.3,33.4-10,43.2c-1.1,1.8-2.2,3.6-3.3,5.2c-4.7,7-9.7,11.4-13.2,16.8
					c1.6,1.4,3.4,2.6,5.1,3.9C143.9,163.2,151.2,158.6,158,150z"/>
			</g>
			<path class="st2" d="M102.1,125.8c-2.9-4.9-14.7-3.9-17.6-1c-12.8,13.4-24.3,30.5-39.4,39.8c4.4,5.8,7.1,12.2,5.8,24.2
				c-4,35.6,21.5,41.6,38.3,43.7c0.3,0.1,0.5,0.2,0.8,0.2c0.3,0,0.5,0,0.8,0c0.3,0,0.5,0,0.8,0c0.3,0,0.6-0.1,0.8-0.2
				c16.8-2.2,42.2-8.2,38.3-43.7c-1.2-10.6,0.8-16.8,4.3-22C121.7,155.9,112.2,140.8,102.1,125.8z"/>
			<path class="st0" d="M151.4,144.7c5.6-9.8,10.2-22.7,10-43.2c-0.5-55.7-44.1-70.9-69.8-71.7c0,0,0,0,0,0c-0.2,0-0.5,0-0.7,0
				c-0.2,0-0.5,0-0.7,0c0,0,0,0,0,0c-25.7,0.8-69.3,16-69.8,71.7c-0.2,20.5,4.3,33.4,10,43.2c1.1,1.8,2.2,3.6,3.3,5.2
				c4.1,6,8.3,10.2,11.7,14.6c15.1-9.2,26.6-26.4,39.4-39.8c2.9-2.9,14.7-3.9,17.6,1c10,15.1,19.6,30.1,32.8,40.9
				c3.5-5.3,8.5-9.7,13.2-16.8C149.2,148.3,150.3,146.6,151.4,144.7z"/>
		</g>
		<path class="st2" d="M80.4,227.8c0,0,1.6,7.7,5.2,8c3.6,0.4,2.2-2.3,2.2-2.3s1.9,2.8,4.5,3.3c2.6,0.4,3.2-4.5,3.2-4.5
			s1.4,2.6,2.7,2.4c1.3-0.2,3.5-1.5,2.2-5.5C99.1,225.1,83.5,224.4,80.4,227.8z"/>
	</g>
	<path class="st1" d="M111.3,206.8c-2.3,2.4-5.2,4.3-8.5,4.6c-3.2,0.3-7-0.7-9.2-3.2c-0.5-0.6-0.9-1.2-1.3-1.8c0.7-1.9,1-4,1.3-6
		c0.6-4.9,0.5-10-0.5-14.9c-0.4-2.1-3.6-1.4-3.2,0.6c0.8,3.9,0.9,7.8,0.6,11.8c-0.2,3.2-0.5,6.6-2.3,9.3c-1.8,2.8-5.4,4.4-8.7,4.5
		c-3.4,0.2-6.5-1.3-9.1-3.3c-1.6-1.3-3.4,1.4-1.8,2.7c6.2,4.9,15.6,5.4,21.2-0.8c0.2-0.2,0.4-0.5,0.6-0.7c0.5,0.7,1.1,1.3,1.8,1.9
		c6.5,5.3,15.7,3.5,21.1-2.3C114.9,207.7,112.8,205.3,111.3,206.8z"/>
	<g>
		<path class="st4" d="M110.2,171.4c-11.3,6.9-26,6.3-39.8,2.3c-3.2,5,0.8,8.1,7.5,9.7c7.6,1.9,7.9,6.8,11.7,7.8
			c3.9,1,6.5-2.4,10.2-5.9c3.7-3.5,10.3-2.7,12.1-5.9C111.9,179.4,115.2,175.3,110.2,171.4z"/>
		<path class="st5" d="M110.2,171.4c-0.6-0.4-1.2-0.9-2-1.3c-7.8-4.2-30.5-4.7-36.2,1.5c-0.7,0.7-1.2,1.4-1.6,2.1
			C84.2,177.7,98.9,178.3,110.2,171.4z"/>
	</g>
	<g>
		<g>
			<g>
				<circle class="st4" cx="53.6" cy="123.4" r="11.9"/>
				<circle class="st6" cx="49.3" cy="118.9" r="5.4"/>
				<circle class="st6" cx="50.1" cy="130.9" r="2.8"/>
			</g>
		</g>
		<g>
			<g>
				<circle class="st4" cx="130.5" cy="123.4" r="11.9"/>
				<circle class="st6" cx="126.2" cy="118.9" r="5.4"/>
				<circle class="st6" cx="127.1" cy="130.9" r="2.8"/>
			</g>
		</g>
	</g>
	<path class="st2" d="M37.3,112.1c0,0,16.4-1.7,14.9-11.1C50.7,91.6,23.1,109.3,37.3,112.1z"/>
	<path class="st2" d="M142.7,110.6c0,0-16.4-1.7-14.9-11.1C129.3,90.2,156.9,107.8,142.7,110.6z"/>
</g>
</svg>
