<?xml version="1.0" encoding="utf-8"?>
<!-- Generator: Adobe Illustrator 19.0.0, SVG Export Plug-In . SVG Version: 6.00 Build 0)  -->
<svg version="1.1" id="Layer_1" xmlns="http://www.w3.org/2000/svg" xmlns:xlink="http://www.w3.org/1999/xlink" x="0px" y="0px"
	 viewBox="0 0 209.6 201.3" style="enable-background:new 0 0 209.6 201.3;" xml:space="preserve">
<style type="text/css">
	.st0{fill:#DADFCE;}
	.st1{fill:#353335;}
	.st2{fill:#FFFFFF;}
	.st3{fill:#262426;}
	.st4{fill:#7F3D6C;}
	.st5{fill:#0D0B0D;}
</style>
<g>
	<path class="st0" d="M136.5,184.3c0,0-29.8,38.3-64,0H136.5z"/>
	<g>
		<g>
			<path class="st1" d="M49.5,18.8c-1.1,3.8-3.2,7.1-6,9.2C28.8,36.5,13.2,45.3,1.1,56.8C-2.6,78,2.3,98.7,30.6,106.4
				c23.3,4.3,35.9-23.1,35.8-34.8C66.4,71.6,70,43,49.5,18.8z"/>
			<path class="st2" d="M49.5,18.8C43.7,11.9,36,5.4,25.7,0c0,0-19.8,28.8-24.6,56.8c12.2-11.5,27.8-20.3,42.4-28.9
				C46.3,25.9,48.3,22.6,49.5,18.8z"/>
			<path class="st3" d="M56.2,70.4c0,0-13.9-14.7-18.3-41c-4.3-26.3-23,1.5-23.6,20.9c-0.6,19.5,0.3,39.4,22.3,48.7
				C58.6,108.4,67.1,82.5,56.2,70.4z"/>
		</g>
		<g>
			<path class="st1" d="M164.9,27.9c-3.7-0.8-6-3.1-7.4-6c-17.7,23.5-14.4,49.6-14.4,49.6c0,11.7,12.5,39.1,35.8,34.8
				c27.4-7.4,32.8-27.1,29.9-47.5C198.9,44.5,184,33.3,164.9,27.9z"/>
			<path class="st2" d="M157.5,21.9c1.4,3,3.7,5.2,7.4,6c19.1,5.3,34,16.5,43.9,30.9C204.6,30.2,183.9,0,183.9,0
				C172,6.2,163.5,13.9,157.5,21.9z"/>
			<path class="st3" d="M153.4,70.4c0,0,13.9-14.7,18.3-41c4.3-26.3,23,1.5,23.6,20.9c0.6,19.5-0.3,39.4-22.3,48.7
				C151,108.4,142.5,82.5,153.4,70.4z"/>
		</g>
	</g>
	<g>
		<path class="st2" d="M188.9,158.7c-0.1,0.3-0.2,0.6-0.3,0.9C188.7,159.3,188.8,159,188.9,158.7z"/>
		<path class="st2" d="M184.7,168.3c-0.2,0.4-0.4,0.7-0.6,1C184.3,169,184.5,168.6,184.7,168.3z"/>
		<path class="st2" d="M190.1,152.9c0,0.3-0.1,0.6-0.1,0.9C190.1,153.4,190.1,153.2,190.1,152.9z"/>
		<path class="st2" d="M187.8,162c-0.3,0.8-0.6,1.6-1,2.3C187.1,163.5,187.5,162.8,187.8,162z"/>
		<path class="st2" d="M185.6,166.6c-0.2,0.4-0.4,0.7-0.6,1.1C185.3,167.3,185.5,167,185.6,166.6z"/>
		<path class="st2" d="M186.5,164.9c-0.2,0.4-0.4,0.7-0.5,1.1C186.2,165.6,186.3,165.3,186.5,164.9z"/>
		<path class="st2" d="M189.8,154.8c-0.1,0.3-0.1,0.6-0.2,0.9C189.7,155.4,189.7,155.1,189.8,154.8z"/>
		<path class="st2" d="M189.4,156.8c-0.1,0.3-0.1,0.6-0.2,0.9C189.2,157.4,189.3,157.1,189.4,156.8z"/>
		<path class="st2" d="M183.7,169.9c-0.2,0.3-0.5,0.7-0.7,1C183.3,170.6,183.5,170.2,183.7,169.9z"/>
		<path class="st2" d="M125.9,112.2c-6.2-19.4-3.2-42.2,8.5-58.8H75.1c11.7,16.6,14.8,39.4,8.5,58.8c-7.8,21.6-31.3,26.4-44.1,44.1
			c-4.2,5.1-8,11.2-10.7,17.7c7.8,9.3,19.5,15.2,32.5,15.2h86.8c13.1,0,24.8-5.9,32.5-15.2c-2.7-6.5-6.5-12.6-10.7-17.7
			C157.3,138.6,133.8,133.7,125.9,112.2z"/>
		<path class="st2" d="M190.5,148.8c0,0.2,0,0.5,0,0.7C190.5,149.3,190.5,149.1,190.5,148.8z"/>
		<path class="st2" d="M188.3,160.5c-0.1,0.3-0.2,0.6-0.3,0.9C188.1,161.2,188.2,160.8,188.3,160.5z"/>
		<path class="st2" d="M190.4,150.9c0,0.3-0.1,0.5-0.1,0.8C190.3,151.4,190.4,151.1,190.4,150.9z"/>
		<path class="st2" d="M182.7,171.4c-0.3,0.3-0.5,0.7-0.8,1C182.2,172.1,182.4,171.8,182.7,171.4z"/>
		<path class="st2" d="M181.6,172.9c-0.3,0.4-0.6,0.7-0.9,1.1C181,173.6,181.3,173.2,181.6,172.9z"/>
		<path class="st4" d="M190,153.7c-0.1,0.4-0.1,0.7-0.2,1.1C189.9,154.5,189.9,154.1,190,153.7z"/>
		<path class="st4" d="M190.5,149.5c0,0.5-0.1,0.9-0.1,1.4C190.4,150.4,190.5,150,190.5,149.5z"/>
		<path class="st4" d="M189.6,155.7c-0.1,0.4-0.2,0.7-0.2,1C189.5,156.4,189.5,156.1,189.6,155.7z"/>
		<path class="st4" d="M190.6,146.8c0,0.7,0,1.4-0.1,2.1C190.6,148.1,190.6,147.4,190.6,146.8z"/>
		<path class="st4" d="M190.3,151.7c0,0.4-0.1,0.8-0.2,1.2C190.2,152.5,190.2,152.1,190.3,151.7z"/>
		<path class="st4" d="M189.2,157.7c-0.1,0.3-0.2,0.7-0.3,1C189,158.4,189.1,158,189.2,157.7z"/>
		<path class="st4" d="M184.1,169.3c-0.1,0.2-0.2,0.4-0.4,0.6C183.8,169.7,184,169.5,184.1,169.3z"/>
		<path class="st4" d="M183,170.9c-0.1,0.2-0.2,0.3-0.4,0.5C182.8,171.3,182.9,171.1,183,170.9z"/>
		<path class="st4" d="M181.9,172.5c-0.1,0.1-0.2,0.3-0.3,0.4C181.7,172.7,181.8,172.6,181.9,172.5z"/>
		<polygon class="st4" points="180.7,174 180.7,174 180.7,174 		"/>
		<path class="st4" d="M188.6,159.6c-0.1,0.3-0.2,0.6-0.3,0.9C188.4,160.2,188.5,159.9,188.6,159.6z"/>
		<path class="st4" d="M185.1,167.7c-0.1,0.2-0.2,0.4-0.3,0.6C184.8,168.1,184.9,167.9,185.1,167.7z"/>
		<path class="st4" d="M188,161.5c-0.1,0.2-0.1,0.3-0.2,0.5C187.8,161.8,187.9,161.6,188,161.5z"/>
		<path class="st4" d="M186.8,164.3c-0.1,0.2-0.2,0.4-0.3,0.6C186.6,164.7,186.7,164.5,186.8,164.3z"/>
		<path class="st4" d="M186,166c-0.1,0.2-0.2,0.4-0.3,0.6C185.8,166.4,185.9,166.2,186,166z"/>
		<g>
			<g id="XMLID_60_">
				<g id="XMLID_63_">
					<path id="XMLID_64_" class="st1" d="M67.7,53.4h-6.3C38,53.4,19,72.4,19,95.8v17.3v33.6c0,10.4,3.7,19.8,9.9,27.2
						c2.7-6.5,6.5-12.6,10.7-17.7c12.7-17.6,36.2-22.5,44.1-44.1c6.2-19.4,3.1-42.2-8.5-58.8H67.7z"/>
				</g>
				<g id="XMLID_61_">
					<path id="XMLID_62_" class="st1" d="M148.2,53.4h-6.2h-7.5c-11.7,16.6-14.8,39.4-8.5,58.8c7.8,21.6,31.3,26.4,44.1,44.1
						c4.2,5.1,8,11.2,10.7,17.7c0,0,0,0,0,0c0.3-0.4,0.6-0.7,0.9-1.1c0.1-0.1,0.2-0.3,0.3-0.4c0.3-0.3,0.5-0.7,0.8-1
						c0.1-0.2,0.2-0.3,0.4-0.5c0.2-0.3,0.5-0.7,0.7-1c0.1-0.2,0.2-0.4,0.4-0.6c0.2-0.3,0.4-0.7,0.6-1c0.1-0.2,0.2-0.4,0.3-0.6
						c0.2-0.3,0.4-0.7,0.6-1.1c0.1-0.2,0.2-0.4,0.3-0.6c0.2-0.4,0.4-0.7,0.5-1.1c0.1-0.2,0.2-0.4,0.3-0.6c0.3-0.8,0.7-1.5,1-2.3
						c0.1-0.2,0.1-0.3,0.2-0.5c0.1-0.3,0.2-0.6,0.3-0.9c0.1-0.3,0.2-0.6,0.3-0.9c0.1-0.3,0.2-0.6,0.3-0.9c0.1-0.3,0.2-0.7,0.3-1
						c0.1-0.3,0.2-0.6,0.2-0.9c0.1-0.3,0.2-0.7,0.2-1c0.1-0.3,0.1-0.6,0.2-0.9c0.1-0.4,0.1-0.7,0.2-1.1c0-0.3,0.1-0.6,0.1-0.9
						c0.1-0.4,0.1-0.8,0.2-1.2c0-0.3,0.1-0.5,0.1-0.8c0-0.4,0.1-0.9,0.1-1.4c0-0.2,0-0.5,0-0.7c0-0.7,0.1-1.4,0.1-2.1v-12.7V95.8
						C190.6,72.4,171.6,53.4,148.2,53.4z"/>
				</g>
			</g>
		</g>
	</g>
	<g>
		<path class="st3" d="M90.9,146.9c-3.8,3.1-3.9,7.3-3.6,9.1c0.6,3.1,11.5,3,11.5,3s0.9,5,6.8,5.3c6,0.3,6.7-5.5,6.7-5.5
			s6.9,0,9.9-4.3c0,0,0.8-3.6-1.9-6.7C110.6,150.7,100.4,149.9,90.9,146.9z"/>
		<path class="st1" d="M105.5,143.1c-7.4,0-11.9,1.6-14.6,3.8c9.5,3,19.8,3.8,29.4,0.9C118.2,145.4,113.9,143.2,105.5,143.1z"/>
	</g>
	<g>
		<g>
			<ellipse class="st0" cx="59.3" cy="152.9" rx="2.9" ry="1.4"/>
			<ellipse class="st0" cx="67.9" cy="159.6" rx="2.9" ry="1.4"/>
			<ellipse class="st0" cx="56.4" cy="165.5" rx="2.9" ry="1.4"/>
		</g>
		<g>
			<ellipse class="st0" cx="150.3" cy="152.9" rx="2.9" ry="1.4"/>
			<ellipse class="st0" cx="141.7" cy="159.6" rx="2.9" ry="1.4"/>
			<ellipse class="st0" cx="153.2" cy="165.5" rx="2.9" ry="1.4"/>
		</g>
	</g>
	<g>
		<circle class="st5" cx="61" cy="125.5" r="13.8"/>
		<circle class="st2" cx="56" cy="120.3" r="6.2"/>
		<circle class="st2" cx="57" cy="134.2" r="3.2"/>
	</g>
	<g>
		<circle class="st5" cx="150.3" cy="125.5" r="13.8"/>
		<circle class="st2" cx="145.3" cy="120.3" r="6.2"/>
		<circle class="st2" cx="146.3" cy="134.2" r="3.2"/>
	</g>
	<path class="st2" d="M104.8,188.1L28.8,174c0,0,14.1,24.1,36.6,24.7c19.2,0.6,35.2-6.4,39.4-9.6c4.2,3.1,20.1,10.1,39.4,9.6
		c22.4-0.7,36.6-24.7,36.6-24.7L104.8,188.1z"/>
</g>
</svg>
