<?xml version="1.0" encoding="utf-8"?>
<!-- Generator: Adobe Illustrator 19.0.0, SVG Export Plug-In . SVG Version: 6.00 Build 0)  -->
<svg version="1.1" id="Layer_1" xmlns="http://www.w3.org/2000/svg" xmlns:xlink="http://www.w3.org/1999/xlink" x="0px" y="0px"
	 viewBox="0 0 239.7 162.2" style="enable-background:new 0 0 239.7 162.2;" xml:space="preserve">
<style type="text/css">
	.st0{fill:#E1C592;}
	.st1{fill:#FCDBA8;}
	.st2{fill:#844F2D;}
	.st3{fill:#A3623B;}
	.st4{fill:#262426;}
	.st5{fill:#353335;}
	.st6{fill:#FFFFFF;}
</style>
<g>
	<path class="st0" d="M163.5,17c0,0-9-10-4.5-13.7c4.5-3.7,4.1,2.9,4.1,2.9s2.6-5.3,4.4-6c1.8-0.7,4.4-0.3,0.8,9.3
		C164.8,19.1,163.5,17,163.5,17z"/>
	<path class="st0" d="M73.1,16c0,0-5.4-12.3,0.1-14.4c5.4-2.1,3,4.1,3,4.1s4.1-4.2,6-4.3c1.9-0.1,4.2,1.1-2.1,9
		C73.7,18.3,73.1,16,73.1,16z"/>
	<path class="st0" d="M177,12.7c-21-8.5-41.9-10-57.1-9.5c-15.3-0.5-36.1,1-57.1,9.5C22.1,29.1,10.7,99.5,25.3,120.9
		c13.3,19.6,55.7,44,94.5,40.9c38.8,3.1,81.2-21.4,94.5-40.9C229,99.5,217.6,29.1,177,12.7z"/>
	<path class="st1" d="M171.6,12.7c-19-8.5-37.9-10-51.7-9.5c-13.8-0.5-32.7,1-51.7,9.5C31.4,29.1,21.1,99.5,34.3,120.9
		c12.1,19.6,50.4,44,85.6,40.9c35.1,3.1,73.5-21.4,85.6-40.9C218.7,99.5,208.4,29.1,171.6,12.7z M162,131.7
		c-0.4-0.7-0.8-1.3-1.2-1.9c-13.5,25.5-52.9,33-73.2,12.7c-4.9-4.9-9.8-17.6-3.9-22.5c20-15.3,61.4-12.9,77.1,9.9
		c0.8-1.6,1.6-3.2,2.2-5c-0.6,1.7-1.4,3.4-2.2,5C161.2,130.4,161.6,131,162,131.7z"/>
	<path class="st0" d="M83.6,119.9c-5.9,4.9-1,17.6,3.9,22.5c20.3,20.3,59.7,12.8,73.2-12.7C145,107,103.6,104.6,83.6,119.9z"/>
	<g>
		<path class="st2" d="M155.3,133.5c0,0-36.5,28.7-69.4,0C85.9,133.5,117.3,86.5,155.3,133.5z"/>
		<path class="st3" d="M135.5,99c0,0,26.8-10.3,37.2,4.8c10.4,15.1,6.6,45.5-16.6,45.3c-23.2-0.2-16-32.2-38.2-30.2
			c-22.2,2-12.6,33.6-40.9,30.2c-28.3-3.4-16.8-43.9,2.2-50.1C98.3,92.8,108.1,106.5,135.5,99z"/>
	</g>
	<g>
		<path class="st4" d="M105.1,95.3c-3.9,3.1-3.9,7.3-3.6,9.2c0.6,3.2,11.5,3,11.5,3s0.9,5.1,6.9,5.3c6,0.3,6.8-5.5,6.8-5.5
			s6.9,0,9.9-4.3c0,0,0.8-3.6-1.9-6.7C125,99,114.7,98.3,105.1,95.3z"/>
		<path class="st5" d="M119.8,91.5c-7.5,0-12,1.6-14.6,3.8c9.6,3,19.9,3.8,29.6,0.9C132.6,93.7,128.3,91.5,119.8,91.5z"/>
	</g>
	<g>
		<g>
			<g>
				<path class="st4" d="M94.9,76.8c0,6.2-5,11.2-11.2,11.2c-6.2,0-11.2-5-11.2-11.2c0-6.2,5-11.2,11.2-11.2
					C89.9,65.6,94.9,70.6,94.9,76.8z"/>
				<circle class="st6" cx="79.7" cy="72.6" r="5.1"/>
				<circle class="st6" cx="80.5" cy="83.9" r="2.6"/>
			</g>
		</g>
		<g>
			<g>
				<path class="st4" d="M167.2,76.8c0,6.2-5,11.2-11.2,11.2c-6.2,0-11.2-5-11.2-11.2c0-6.2,5-11.2,11.2-11.2
					C162.2,65.6,167.2,70.6,167.2,76.8z"/>
				<circle class="st6" cx="152" cy="72.6" r="5.1"/>
				<circle class="st6" cx="152.8" cy="83.9" r="2.6"/>
			</g>
		</g>
	</g>
	<g>
		<path class="st2" d="M26.8,47.4c-2.4-12.1,3-22.3,9.3-32.2C16.3,29-3.8,49.7,0.6,61.8c6.4,17.6,31.6,30.8,44.5,18.9
			c-0.4-4.7-0.5-9.6-3.6-13.7C35.6,61.1,27.8,56.2,26.8,47.4z"/>
		<path class="st3" d="M49.9,73.7c0,0,32.1-67.9,18.2-72.1c-5.6-1.7-18.7,4.4-32,13.7c-6.3,9.9-11.7,20.1-9.3,32.2
			c1,8.8,8.8,13.7,14.7,19.6c3.1,4.1,3.2,9,3.6,13.7C47,78.9,48.6,76.6,49.9,73.7z"/>
		<path class="st3" d="M216.8,30.8c-1.2-4.3-4.5-7.9-7.7-11.6c-15-11.4-31.1-19.5-37.5-17.6c-13.8,4.3,18.2,72.1,18.2,72.1
			c1.5,3.5,3.5,6.1,5.9,7.9c0.1-4.2,1-8.4,3.5-12.6C206,57.2,219.8,45.5,216.8,30.8z"/>
		<path class="st2" d="M209.1,19.1c3.3,3.7,6.6,7.4,7.7,11.6c2.9,14.7-10.8,26.4-17.6,38.2c-2.5,4.2-3.4,8.4-3.5,12.6
			c13.2,10.4,37.1-2.6,43.4-19.8C243.1,50.8,226.9,32.7,209.1,19.1z"/>
	</g>
	<path class="st0" d="M138,70c0,0-15.1-7.7-10.2-16.1C132.8,45.4,152.6,72.6,138,70z"/>
	<path class="st0" d="M101.2,70c0,0,15.1-7.7,10.2-16.1C106.5,45.4,86.6,72.6,101.2,70z"/>
</g>
</svg>
