<?xml version="1.0" encoding="utf-8"?>
<!-- Generator: Adobe Illustrator 19.0.0, SVG Export Plug-In . SVG Version: 6.00 Build 0)  -->
<svg version="1.1" id="Layer_1" xmlns="http://www.w3.org/2000/svg" xmlns:xlink="http://www.w3.org/1999/xlink" x="0px" y="0px"
	 viewBox="0 0 228.7 190.6" style="enable-background:new 0 0 228.7 190.6;" xml:space="preserve">
<style type="text/css">
	.st0{fill:#F26D5A;}
	.st1{fill:#D25E4E;}
	.st2{fill:#0D0B0D;}
	.st3{fill:#262426;}
	.st4{fill:#FFFFFF;}
	.st5{fill:#DADFCE;}
	.st6{fill:#353335;}
</style>
<g>
	<path class="st0" d="M68.6,10.9l23,11L65.2,41C68.6,31.3,70.1,20.8,68.6,10.9z"/>
	<path class="st1" d="M52,3l16.6,7.9c1.5,9.9,0,20.4-3.4,30.1l-13.6,9.8L52,3z"/>
	<path class="st0" d="M161.6,10.9l-23,11L165.1,41C161.7,31.3,160.1,20.8,161.6,10.9z"/>
	<path class="st1" d="M178.2,3l-16.6,7.9c-1.5,9.9,0,20.4,3.4,30.1l13.6,9.8L178.2,3z"/>
	<g>
		<path class="st2" d="M138.6,124.8c-11.3,6.9-26,6.3-39.8,2.3c-3.2,5,0.8,8.1,7.5,9.7c7.6,1.9,7.9,6.8,11.7,7.8
			c3.9,1,6.5-2.4,10.2-5.9c3.7-3.5,10.3-2.7,12.1-5.9C140.3,132.8,143.6,128.7,138.6,124.8z"/>
		<path class="st3" d="M138.6,124.8c-0.6-0.4-1.2-0.9-2-1.3c-7.8-4.2-30.5-4.7-36.2,1.5c-0.7,0.7-1.2,1.4-1.6,2.1
			C112.5,131.1,127.3,131.7,138.6,124.8z"/>
	</g>
	<path class="st4" d="M172.4,54.7c-4.2-4.7-2.6-13.5-2.1-21.2c-13.2-8.2-33.9-17.2-53.7-15.2c-19.1,0-41.6,8.1-54.9,16
		c-1.3,22.2-18.9,38-24.4,57.3c-6,18-7.4,37.3-4.6,56.2c13.2,30.6,60,40.4,81.6,41.5c0.6,0.1,1.3,0.1,1.9,0.1c0.1,0,0.3,0,0.4,0
		c0.1,0,0.3,0,0.4,0c0.7,0,1.3,0,1.9-0.1c19.5-0.9,59.9-9.1,77.1-33.5C207.7,122.1,199.8,82.6,172.4,54.7z"/>
	<path class="st5" d="M37.2,91.8c5.5-19.3,23.1-35.2,24.4-57.3c-1.8,1.1-3.5,2.2-5,3.2c-21.9,16-37.8,77.1-24.4,109.7
		c0.1,0.2,0.2,0.5,0.3,0.7C29.8,129.1,31.2,109.8,37.2,91.8z"/>
	<path class="st5" d="M176.5,37.7c-1.8-1.3-3.9-2.7-6.1-4.1c-0.5,7.6-2.1,16.4,2.1,21.2c27.4,27.8,35.3,67.3,23.6,101.2
		c1.9-2.7,3.5-5.5,4.8-8.6C214.2,114.8,198.4,53.7,176.5,37.7z"/>
	<path class="st5" d="M173.1,139.1c-9.9-19.7-52.8-7.7-56.3-6.7c-3.5-1-46.4-12.9-56.3,6.7c-10.3,20.4,10.5,50,56.1,51.5v0
		c0.1,0,0.2,0,0.2,0c0.1,0,0.2,0,0.2,0v0C162.6,189,183.4,159.5,173.1,139.1z"/>
	<g>
		<path class="st4" d="M131.3,21.4c0,0,25.4-24.2,48.4-21.1c23,3.1,69.4,53.4,38.8,70c-30.6,16.7-56.3-28.8-47.7-63
			c0,0-23.9,7.7-33.9,21L131.3,21.4z"/>
		<path class="st4" d="M97.4,21.4c0,0-25.4-24.2-48.4-21.1c-23,3.1-69.4,53.4-38.8,70C40.8,87,66.4,41.5,57.9,7.4
			c0,0,23.9,7.7,33.9,21L97.4,21.4z"/>
	</g>
	<path class="st6" d="M136.6,158.7c-2.3,2.4-5.2,4.3-8.5,4.6c-3.2,0.3-7-0.7-9.2-3.2c-0.5-0.6-0.9-1.2-1.3-1.8c0.7-1.9,1-4,1.3-6
		c0.6-4.9,0.5-10-0.5-14.9c-0.4-2.1-3.6-1.4-3.2,0.6c0.8,3.9,0.9,7.8,0.6,11.8c-0.2,3.2-0.5,6.6-2.3,9.3c-1.8,2.8-5.4,4.4-8.7,4.5
		c-3.4,0.2-6.5-1.3-9.1-3.3c-1.6-1.3-3.4,1.4-1.8,2.7c6.2,4.9,15.6,5.4,21.2-0.8c0.2-0.2,0.4-0.5,0.6-0.7c0.5,0.7,1.1,1.3,1.8,1.9
		c6.5,5.3,15.7,3.5,21.1-2.3C140.2,159.6,138,157.2,136.6,158.7z"/>
	<g>
		<path class="st2" d="M135.4,125.2c-11.3,6.9-26,6.3-39.8,2.3c-3.2,5,0.8,8.1,7.5,9.7c7.6,1.9,7.9,6.8,11.7,7.8
			c3.9,1,6.5-2.4,10.2-5.9c3.7-3.5,10.3-2.7,12.1-5.9C137.1,133.2,140.4,129.1,135.4,125.2z"/>
		<path class="st3" d="M135.4,125.2c-0.6-0.4-1.2-0.9-2-1.3c-7.8-4.2-30.5-4.7-36.2,1.5c-0.7,0.7-1.2,1.4-1.6,2.1
			C109.4,131.5,124.1,132.1,135.4,125.2z"/>
	</g>
	<g>
		<g>
			<g>
				<g>
					<path class="st3" d="M87,105.5c0,7.3-5.9,13.2-13.2,13.2c-7.3,0-13.2-5.9-13.2-13.2c0-7.3,5.9-13.2,13.2-13.2
						C81.1,92.3,87,98.2,87,105.5z"/>
					<circle class="st4" cx="69" cy="100.5" r="5.9"/>
					<circle class="st4" cx="70" cy="113.8" r="3.1"/>
				</g>
			</g>
			<g>
				<g>
					<path class="st3" d="M171.9,105.5c0,7.3-5.9,13.2-13.2,13.2c-7.3,0-13.2-5.9-13.2-13.2c0-7.3,5.9-13.2,13.2-13.2
						C166,92.3,171.9,98.2,171.9,105.5z"/>
					<circle class="st4" cx="153.9" cy="100.5" r="5.9"/>
					<path class="st4" d="M158,113.8c0,1.7-1.4,3.1-3.1,3.1c-1.7,0-3.1-1.4-3.1-3.1c0-1.7,1.4-3.1,3.1-3.1
						C156.6,110.7,158,112.1,158,113.8z"/>
				</g>
			</g>
		</g>
		<path class="st5" d="M137.5,97.5c0,0-17.7-9-11.9-19C131.4,68.6,154.7,100.5,137.5,97.5z"/>
		<path class="st5" d="M94.4,97.5c0,0,17.7-9,11.9-19C100.5,68.6,77.2,100.5,94.4,97.5z"/>
	</g>
</g>
</svg>
