<?xml version="1.0" encoding="utf-8"?>
<!-- Generator: Adobe Illustrator 19.0.0, SVG Export Plug-In . SVG Version: 6.00 Build 0)  -->
<svg version="1.1" id="Layer_1" xmlns="http://www.w3.org/2000/svg" xmlns:xlink="http://www.w3.org/1999/xlink" x="0px" y="0px"
	 viewBox="0 0 224.7 201.8" style="enable-background:new 0 0 224.7 201.8;" xml:space="preserve">
<style type="text/css">
	.st0{fill:#EEA208;}
	.st1{fill:#F0B02A;}
	.st2{fill:#F2D374;}
	.st3{fill:#262426;}
	.st4{fill:#FFFFFF;}
	.st5{fill:#C78410;}
	.st6{fill:#353335;}
</style>
<g>
	<g>
		<path class="st0" d="M157.4,36.7C147.7,51.1,145,63.9,145,63.9c-4.5,13-1,48.2,26.5,52.3c25.2,1.7,39.1-9.3,46.3-25.1
			C189.8,86.5,165.1,63.4,157.4,36.7z"/>
		<path class="st1" d="M217.5,0c-31.5,4.8-49.7,21.6-60.1,36.7c7.6,26.6,32.4,49.8,60.4,54.5C233.4,57,217.5,0,217.5,0z"/>
		<path class="st2" d="M158.9,64.4c0,0,11.3-19.4,33.8-36.4c22.7-17.1,21.8-4.2,20.1,29.4c-1.1,22.9-17.2,46.4-45.2,48.4
			C139.6,107.9,142.1,73.7,158.9,64.4z"/>
	</g>
	<g>
		<path class="st1" d="M66.5,35.8C56.1,20.9,37.9,4.7,7.1,0c0,0-14.1,50.6-2.7,85C30.5,78.4,53.9,59.1,66.5,35.8z"/>
		<path class="st0" d="M79.7,63.9c0,0-2.8-13.5-13.2-28.2C53.9,59.1,30.5,78.4,4.5,85c6.3,19,20.3,33.2,48.7,31.2
			C80.7,112.2,84.2,76.9,79.7,63.9z"/>
		<path class="st2" d="M65.8,64.4c0,0-11.3-19.4-33.8-36.4C9.3,10.9,10.2,23.8,11.9,57.5c1.1,22.9,17.2,46.4,45.2,48.4
			C85.1,107.9,82.5,73.7,65.8,64.4z"/>
	</g>
	<path class="st0" d="M191.7,119.1c0-38.2-35.3-69.2-78.8-69.2c-43.5,0-78.8,31-78.8,69.2c0,23.4,13.3,44.2,33.6,56.7
		c-0.4,2.2,19.9,26.1,45.2,26.1c25.3,0,45.6-23.9,45.2-26.1C178.4,163.2,191.7,142.5,191.7,119.1z"/>
	<path class="st1" d="M180.3,119.1c0-38.2-30.2-69.2-67.5-69.2s-67.5,31-67.5,69.2c0,23.4,11.4,44.2,28.8,56.7
		c-0.4,2.2,17,26.1,38.7,26.1c21.7,0,39-23.9,38.7-26.1C169,163.2,180.3,142.5,180.3,119.1z"/>
	<g>
		<g>
			<g>
				<circle class="st3" cx="75.4" cy="124.5" r="11.6"/>
				<circle class="st4" cx="71.2" cy="120.1" r="5.2"/>
				<circle class="st4" cx="72.1" cy="131.8" r="2.7"/>
			</g>
		</g>
		<g>
			<g>
				<path class="st3" d="M162,124.5c0,6.4-5.2,11.6-11.6,11.6c-6.4,0-11.6-5.2-11.6-11.6c0-6.4,5.2-11.6,11.6-11.6
					C156.8,112.9,162,118.1,162,124.5z"/>
				<circle class="st4" cx="146.1" cy="120.1" r="5.2"/>
				<circle class="st4" cx="147" cy="131.8" r="2.7"/>
			</g>
		</g>
	</g>
	<path class="st5" d="M130.8,183.1c-2,2.1-4.5,3.8-7.5,4.1c-2.8,0.3-6.2-0.7-8.1-2.8c-0.4-0.5-0.8-1-1.1-1.6
		c0.6-1.7,0.9-3.5,1.2-5.3c0.6-4.3,0.4-8.8-0.4-13.1c-0.4-1.8-3.2-1.3-2.8,0.6c0.7,3.4,0.8,6.9,0.6,10.4c-0.2,2.8-0.4,5.8-2,8.2
		c-1.6,2.4-4.8,3.9-7.6,4c-3,0.1-5.7-1.1-8-2.9c-1.5-1.2-3,1.2-1.6,2.4c5.5,4.4,13.7,4.7,18.7-0.7c0.2-0.2,0.4-0.4,0.5-0.6
		c0.5,0.6,1,1.2,1.6,1.7c5.7,4.7,13.8,3.1,18.6-2C134,183.9,132,181.7,130.8,183.1z"/>
	<g>
		<path class="st3" d="M99.5,155.7c-3.7,3-3.8,7-3.4,8.8c0.6,3,11.1,2.9,11.1,2.9s0.8,4.8,6.6,5.1c5.8,0.2,6.5-5.3,6.5-5.3
			s6.6,0,9.5-4.2c0,0,0.7-3.4-1.9-6.5C118.5,159.3,108.7,158.6,99.5,155.7z"/>
		<path class="st6" d="M113.5,152.1c-7.1,0-11.5,1.6-14,3.6c9.2,2.9,19,3.6,28.3,0.9C125.8,154.2,121.7,152.1,113.5,152.1z"/>
	</g>
	<path class="st2" d="M58.9,115.1c0,0,16.4-1.7,14.9-11.1C72.3,94.6,44.7,112.3,58.9,115.1z"/>
	<path class="st2" d="M164.3,113.6c0,0-16.4-1.7-14.9-11.1C150.9,93.2,178.5,110.8,164.3,113.6z"/>
	<path class="st1" d="M92.7,52.2c0,0,6.6-13,15.5-15.3c8.9-2.3,0,10.3,0,10.3s10.3-12.7,16-10.3c5.6,2.3-7,13-7,13s17.2-3.2,18.3,0
		c1.1,3.2-7.6,8.3-7.6,8.3S77.1,67.5,92.7,52.2z"/>
</g>
</svg>
