<?xml version="1.0" encoding="utf-8"?>
<!-- Generator: Adobe Illustrator 19.0.0, SVG Export Plug-In . SVG Version: 6.00 Build 0)  -->
<svg version="1.1" id="Layer_1" xmlns="http://www.w3.org/2000/svg" xmlns:xlink="http://www.w3.org/1999/xlink" x="0px" y="0px"
	 viewBox="0 0 188.7 256.9" style="enable-background:new 0 0 188.7 256.9;" xml:space="preserve">
<style type="text/css">
	.st0{fill:#353335;}
	.st1{fill:#D1901C;}
	.st2{fill:#F0B02A;}
	.st3{fill:#262426;}
	.st4{fill:#0D0B0D;}
	.st5{fill:#FFFFFF;}
</style>
<g>
	<g>
		<g>
			<path class="st0" d="M66.5,79.4c0,0-21-72.7-32.1-79.1c-11.1-6.4-61.8,89.6-14.7,121C66.7,152.6,66.5,79.4,66.5,79.4z"/>
			<path class="st1" d="M55.2,76.1c0,0-7.7-23.3-15.1-40.3c-8.6,2.6-17,6.7-24.7,11.9c-5.4,21.9-6,50,11.9,61.8
				C59.3,130.5,55.2,76.1,55.2,76.1z"/>
			<path class="st2" d="M30.2,18.8c-3.3-1.9-10.6,11.5-14.8,28.9c7.8-5.2,16.1-9.2,24.7-11.9C36.4,27.2,32.7,20.2,30.2,18.8z"/>
		</g>
		<g>
			<path class="st0" d="M122.2,79.4c0,0,21-72.7,32.1-79.1c11.1-6.4,61.8,89.6,14.7,121C121.9,152.6,122.2,79.4,122.2,79.4z"/>
			<path class="st1" d="M133.5,76.1c0,0,7.7-23.3,15.1-40.3c8.6,2.6,17,6.7,24.7,11.9c5.4,21.9,6,50-11.9,61.8
				C129.4,130.5,133.5,76.1,133.5,76.1z"/>
			<path class="st2" d="M158.5,18.8c3.3-1.9,10.6,11.5,14.8,28.9c-7.8-5.2-16.1-9.2-24.7-11.9C152.3,27.2,156,20.2,158.5,18.8z"/>
		</g>
	</g>
	<g>
		<path class="st2" d="M95.1,38.4c-0.2,0-0.5,0-0.7,0C94.6,38.4,94.8,38.4,95.1,38.4L95.1,38.4z"/>
		<path class="st2" d="M93.6,38.4L93.6,38.4c0.2,0,0.5,0,0.7,0C94.1,38.4,93.8,38.4,93.6,38.4z"/>
		<path class="st2" d="M93.6,256.9c0.2,0,0.5,0,0.7,0C94.1,256.9,93.8,256.9,93.6,256.9C93.6,256.9,93.6,256.9,93.6,256.9z"/>
		<path class="st2" d="M95.1,256.9C95.1,256.9,95.1,256.9,95.1,256.9c-0.2,0-0.5,0-0.7,0C94.6,256.9,94.8,256.9,95.1,256.9z"/>
		<path class="st3" d="M23.8,115.9c0.5-55.7,44.1-76.8,69.8-77.5c0,0,0,0,0,0c0,0-0.1,0-0.1,0c0,0,0,0,0,0
			c-30.2,0.8-81.3,21.8-81.9,77.5c-0.3,24.4,7.3,38,15.5,48.5c2.7-1.7,4.8-3.6,6.7-5.2C28.1,149.3,23.6,136.5,23.8,115.9z"/>
		<path class="st3" d="M164.9,115.9c0.2,20.5-4.3,33.4-10,43.2c1.9,1.6,3.9,3.6,6.7,5.2c8.3-10.5,15.8-24.1,15.5-48.5
			c-0.6-55.7-51.7-76.8-81.9-77.5c0,0,0,0,0,0c0,0-0.1,0-0.1,0c0,0,0,0,0,0C120.8,39.2,164.4,60.2,164.9,115.9z"/>
		<path class="st0" d="M23.8,115.9c-0.2,20.5,4.3,33.4,10,43.2c2.7-2.3,4.9-3.7,8.1-2.3c8.5,3.7,24.4,25.6,31.1,32.9
			c2.9,3.1,8.5,4,14,4c0,0,3.1-0.9,7.4-0.4c4.2-0.5,7.4,0.4,7.4,0.4c5.5,0,11.1-0.9,14-4c6.7-7.3,22.6-29.2,31.1-32.9
			c3.2-1.4,5.5,0.1,8.1,2.3c5.6-9.8,10.2-22.7,10-43.2c-0.5-55.7-44.1-76.8-69.8-77.5c0,0,0,0,0,0c-0.2,0-0.5,0-0.7,0
			c-0.2,0-0.5,0-0.7,0c0,0,0,0,0,0C67.9,39.2,24.3,60.2,23.8,115.9z"/>
		<path class="st1" d="M154.9,159.2c-1.1,1.8-2.2,3.6-3.3,5.2c-9.4,13.9-19.8,22.5-17.5,43.7c4,35.6-21.5,46.5-38.3,48.6
			c-0.3,0.1-0.5,0.2-0.8,0.2c0,0,0.1,0,0.1,0c0.4,0,0.7-0.1,1-0.2c19.7-2.2,49.5-13.1,44.9-48.6c-2.8-21.2,9.5-29.8,20.5-43.7
			C158.9,162.7,156.8,160.7,154.9,159.2z"/>
		<path class="st1" d="M54.5,208.1c2.4-21.2-8.1-29.8-17.5-43.7c-1.1-1.7-2.2-3.4-3.3-5.2c-1.9,1.6-3.9,3.6-6.7,5.2
			c11,13.9,23.3,22.5,20.5,43.7c-4.7,35.6,25.2,46.5,44.9,48.6c0.3,0.1,0.7,0.2,1,0.2c0,0,0.1,0,0.1,0c-0.3,0-0.6-0.1-0.8-0.2
			C75.9,254.6,50.5,243.6,54.5,208.1z"/>
		<path class="st2" d="M134.2,208.1c-2.4-21.2,8.1-29.8,17.5-43.7c1.1-1.7,2.2-3.4,3.3-5.2c-2.7-2.3-4.9-3.7-8.1-2.3
			c-8.5,3.7-24.4,25.6-31.1,32.9c-2.9,3.1-8.5,4-14,4c0,0-3.1-0.9-7.4-0.4c-4.2-0.5-7.4,0.4-7.4,0.4c-5.5,0-11.1-0.9-14-4
			c-6.7-7.3-22.6-29.2-31.1-32.9c-3.2-1.4-5.5,0.1-8.1,2.3c1.1,1.8,2.2,3.6,3.3,5.2c9.4,13.9,19.8,22.5,17.5,43.7
			c-4,35.6,21.5,46.5,38.3,48.6c0.3,0.1,0.5,0.2,0.8,0.2c0.3,0,0.5,0,0.8,0c0.3,0,0.5,0,0.8,0c0.3,0,0.6-0.1,0.8-0.2
			C112.7,254.6,138.2,243.6,134.2,208.1z"/>
	</g>
	<path class="st1" d="M114.9,221.3c-2.3,2.4-5.2,4.3-8.5,4.6c-3.2,0.3-7-0.7-9.2-3.2c-0.5-0.6-0.9-1.2-1.3-1.8c0.7-1.9,1-4,1.3-6
		c0.6-4.9,0.5-10-0.5-14.9c-0.4-2.1-3.6-1.4-3.2,0.6c0.8,3.9,0.9,7.8,0.6,11.8c-0.2,3.2-0.5,6.6-2.3,9.3c-1.8,2.8-5.4,4.4-8.7,4.5
		c-3.4,0.2-6.5-1.3-9.1-3.3c-1.6-1.3-3.4,1.4-1.8,2.7c6.2,4.9,15.6,5.4,21.2-0.8c0.2-0.2,0.4-0.5,0.6-0.7c0.5,0.7,1.1,1.3,1.8,1.9
		c6.5,5.3,15.7,3.5,21.1-2.3C118.5,222.2,116.4,219.8,114.9,221.3z"/>
	<g>
		<path class="st4" d="M113.8,185.8c-11.3,6.9-26,6.3-39.8,2.3c-3.2,5,0.8,8.1,7.5,9.7c7.6,1.9,7.9,6.8,11.7,7.8
			c3.9,1,6.5-2.4,10.2-5.9c3.7-3.5,10.3-2.7,12.1-5.9C115.5,193.8,118.8,189.7,113.8,185.8z"/>
		<path class="st3" d="M113.8,185.8c-0.6-0.4-1.2-0.9-2-1.3c-7.8-4.2-30.5-4.7-36.2,1.5c-0.7,0.7-1.2,1.4-1.6,2.1
			C87.7,192.2,102.5,192.8,113.8,185.8z"/>
	</g>
	<g>
		<g>
			<g>
				<circle class="st4" cx="57.2" cy="137.9" r="11.9"/>
				<path class="st5" d="M58.3,133.4c0,3-2.4,5.4-5.4,5.4c-3,0-5.4-2.4-5.4-5.4c0-3,2.4-5.4,5.4-5.4C55.8,128,58.3,130.4,58.3,133.4
					z"/>
				<circle class="st5" cx="53.7" cy="145.4" r="2.8"/>
			</g>
		</g>
		<g>
			<g>
				<circle class="st4" cx="134.1" cy="137.9" r="11.9"/>
				<path class="st5" d="M135.2,133.4c0,3-2.4,5.4-5.4,5.4c-3,0-5.4-2.4-5.4-5.4c0-3,2.4-5.4,5.4-5.4
					C132.8,128,135.2,130.4,135.2,133.4z"/>
				<circle class="st5" cx="130.6" cy="145.4" r="2.8"/>
			</g>
		</g>
	</g>
	<path class="st2" d="M111.8,134.4c0,0-15.1-7.7-10.2-16.1C106.5,109.9,126.4,137,111.8,134.4z"/>
	<path class="st2" d="M75,134.4c0,0,15.1-7.7,10.2-16.1C80.2,109.9,60.4,137,75,134.4z"/>
</g>
</svg>
