<?xml version="1.0" encoding="utf-8"?>
<!-- Generator: Adobe Illustrator 19.0.0, SVG Export Plug-In . SVG Version: 6.00 Build 0)  -->
<svg version="1.1" id="Layer_1" xmlns="http://www.w3.org/2000/svg" xmlns:xlink="http://www.w3.org/1999/xlink" x="0px" y="0px"
	 viewBox="0 0 268.7 181.1" style="enable-background:new 0 0 268.7 181.1;" xml:space="preserve">
<style type="text/css">
	.st0{fill:#F0B02A;}
	.st1{fill:#EEA208;}
	.st2{fill:#F2D374;}
	.st3{fill:#DADFCE;}
	.st4{fill:#FFFFFF;}
	.st5{fill:#D2D8C4;}
	.st6{fill:#262426;}
	.st7{fill:#353335;}
</style>
<g>
	<g>
		<path class="st0" d="M84.5,28.7C76.1,17.1,61,4.3,34.5,0c0,0-14.6,38.4-6.3,65C51.2,60.6,72.4,46.3,84.5,28.7z"/>
		<path class="st1" d="M94.6,50.6c0,0-1.8-10.4-10.1-21.9C72.4,46.3,51.2,60.6,28.1,65c4.6,14.7,16.1,25.9,41,25
			C93.3,87.6,98,60.6,94.6,50.6z"/>
		<path class="st2" d="M82.5,50.7c0,0-9-15.1-27.8-28.6C35.8,8.4,36,18.3,35.9,44.1C35.8,61.6,48.7,80,73,82.2
			C97.3,84.4,96.7,58.1,82.5,50.7z"/>
	</g>
	<g>
		<path class="st0" d="M190,28.7c8.4-11.6,23.5-24.4,50-28.7c0,0,14.6,38.4,6.3,65C223.3,60.6,202.1,46.3,190,28.7z"/>
		<path class="st1" d="M179.8,50.6c0,0,1.8-10.4,10.1-21.9c12.1,17.6,33.3,31.8,56.4,36.3c-4.6,14.7-16.1,25.9-41,25
			C181.2,87.6,176.5,60.6,179.8,50.6z"/>
		<path class="st2" d="M191.9,50.7c0,0,9-15.1,27.8-28.6c18.9-13.6,18.8-3.7,18.9,22c0.1,17.5-12.8,35.9-37.1,38.1
			C177.2,84.4,177.8,58.1,191.9,50.7z"/>
	</g>
	<g>
		<path class="st1" d="M217.2,134.7c8.7-8.7,25.1-10.4,29.5-22.5c4.3-10.4-1.7-19.9-10.4-26c-9.5-7.8-17.3-14.7-26-22.5
			c-7.5-6.7-15-13.2-22.8-19.2c3,1.5,5.8,3.2,8.6,4.8c0.1,0.1,0.2,0.1,0.3,0.2c0.5,0.3,1,0.6,1.5,0.9c0.1,0.1,0.3,0.2,0.4,0.2
			c0.5,0.3,0.9,0.6,1.4,0.9c0.1,0.1,0.2,0.1,0.3,0.2c2.1,1.3,4.1,2.6,6,4c0.2,0.1,0.4,0.2,0.5,0.4c0.4,0.3,0.7,0.5,1.1,0.8
			c0.2,0.2,0.5,0.3,0.7,0.5c0.3,0.2,0.7,0.5,1,0.7c0.3,0.2,0.5,0.4,0.8,0.6c0.3,0.2,0.6,0.4,0.9,0.6c0.3,0.2,0.6,0.5,1,0.7
			c0.3,0.2,0.5,0.4,0.8,0.6c0.5,0.4,1.1,0.8,1.6,1.1c13.3,9.3,26.4,20,37.9,31c1.6,1.6,3.2,3.2,4.8,4.8c30,30.4-8.1,25-8.1,25
			s16,4,9.4,12.5c-6.6,8.5-23,4-23,4s14.8,7.6,4,14.7c-0.2,0.2-0.5,0.3-0.8,0.5c-7.4-0.9-14.4-3.2-20.8-8.1c-1.2-1-2.5-2-3.7-3.1
			C214,139.6,214.7,136.5,217.2,134.7z"/>
		<path class="st0" d="M151.1,50.6c1.1-5.7,2.3-11.7,1.2-17.4c0,0,0,0,0,0c0.8,0.1,1.6,0.2,2.4,0.4c0.1,0,0.1,0,0.2,0
			c0.8,0.1,1.6,0.3,2.3,0.4c0,0,0.1,0,0.1,0c4.9,0.9,9.4,2.1,13.7,3.5c0,0,0,0,0,0c5,1.7,9.7,3.6,14.1,5.8c0,0,0.1,0,0.1,0.1
			c0.6,0.3,1.2,0.6,1.8,0.9c0,0,0,0,0,0c0.1,0,0.1,0.1,0.2,0.1c7.8,5.9,15.3,12.5,22.8,19.2c8.7,7.8,16.5,14.7,26,22.5
			c8.7,6.1,14.7,15.6,10.4,26c-4.3,12.1-20.8,13.9-29.5,22.5c-2.4,1.8-3.2,5-3.1,8.2c-7.3-6.3-14.3-13.3-23.2-17.7
			c-6.9-3.5-13,1.7-19.1,4.3c-16.5,4.3-31.2-11.3-33.8-26.9C133.8,82.7,146.8,68.8,151.1,50.6z"/>
	</g>
	<g>
		<path class="st3" d="M47.1,151.1c-0.6-0.6-1.1-1.2-1.6-1.8c-4.9,2.6-10.1,4-15.4,4.7c-0.3-0.2-0.5-0.3-0.8-0.5
			c4.9,3.2,19.3,9.8,37.2,15.8C59.6,163.9,53.1,157.9,47.1,151.1z"/>
		<path class="st4" d="M220.6,147.9c-0.9-0.6-1.9-1.2-2.8-1.9c-8.7-6.9-16.5-15.6-26.9-20.8c-6.9-3.5-13,1.7-19.1,4.3
			c-16.5,4.3-31.2-11.3-33.8-26.9c-4.3-19.9,8.7-33.8,13-52c1.1-5.7,2.3-11.7,1.2-17.4c-4.7-0.7-9.7-1.1-15-1.2c0,0,0,0,0,0
			c0,0-0.1,0-0.1,0c-0.9,0-1.8,0-2.8,0c-0.9,0-1.9,0-2.8,0c0,0-0.1,0-0.1,0c0,0,0,0,0,0c-5.3,0.1-10.3,0.5-15,1.2
			c-1.1,5.7,0.1,11.7,1.2,17.4c4.3,18.2,17.3,32.1,13,52c-2.6,15.6-17.3,31.2-33.8,26.9c-6.1-2.6-12.1-7.8-19.1-4.3
			c-10.4,5.2-18.2,13.9-26.9,20.8c-1.7,1.3-3.5,2.4-5.3,3.4c0.5,0.6,1.1,1.2,1.6,1.8c6,6.8,12.5,12.8,19.4,18.2
			c21.1,7,47,13.1,67.8,11.6c17.7,1.3,39.1-2.9,58-8.5C202.5,165.2,211.9,156.8,220.6,147.9z"/>
		<path class="st3" d="M220.6,147.9c-8.7,8.9-18.1,17.4-28.3,24.5c21.4-6.3,39.7-14.4,46.2-18.4
			C232.3,153.2,226.2,151.4,220.6,147.9z"/>
		<path class="st4" d="M83.4,43.3c4.4-2.2,9.1-4.1,14.1-5.8C92.4,39.2,87.8,41.2,83.4,43.3z"/>
		<path class="st4" d="M57.6,59.2c0.3-0.2,0.6-0.4,0.9-0.6C58.2,58.7,57.9,59,57.6,59.2z"/>
		<path class="st4" d="M59.3,58c0.3-0.2,0.7-0.5,1-0.7C60,57.5,59.7,57.7,59.3,58z"/>
		<path class="st4" d="M81.4,44.3c0.6-0.3,1.2-0.6,1.8-0.9C82.6,43.7,82,44,81.4,44.3z"/>
		<path class="st4" d="M70.8,50.3c0.5-0.3,1-0.6,1.5-0.9C71.8,49.7,71.3,50,70.8,50.3z"/>
		<path class="st4" d="M72.6,49.3c2.8-1.7,5.8-3.4,8.8-4.9C78.4,45.9,75.4,47.5,72.6,49.3z"/>
		<path class="st4" d="M97.5,37.5c4.3-1.4,8.9-2.6,13.7-3.5C106.4,34.9,101.8,36.1,97.5,37.5z"/>
		<path class="st4" d="M61,56.8c0.4-0.3,0.7-0.5,1.1-0.8C61.8,56.3,61.4,56.5,61,56.8z"/>
		<path class="st4" d="M69.1,51.5c0.5-0.3,0.9-0.6,1.4-0.9C70,50.9,69.5,51.2,69.1,51.5z"/>
		<path class="st4" d="M113.9,33.5c0.8-0.1,1.6-0.3,2.4-0.4C115.5,33.3,114.7,33.4,113.9,33.5z"/>
		<path class="st4" d="M62.7,55.7c2-1.3,4-2.7,6-4C66.7,53,64.7,54.3,62.7,55.7z"/>
		<path class="st4" d="M111.4,34c0.8-0.1,1.6-0.3,2.3-0.4C112.9,33.7,112.1,33.8,111.4,34z"/>
		<path class="st4" d="M55.8,60.4c0.3-0.2,0.5-0.4,0.8-0.6C56.3,60,56.1,60.2,55.8,60.4z"/>
		<path class="st0" d="M60.3,57.3c0.2-0.2,0.5-0.3,0.7-0.5C60.8,56.9,60.6,57.1,60.3,57.3z"/>
		<path class="st0" d="M58.5,58.5c0.3-0.2,0.5-0.4,0.8-0.6C59.1,58.1,58.8,58.3,58.5,58.5z"/>
		<path class="st0" d="M54.2,61.5c0.5-0.4,1.1-0.8,1.6-1.1C55.3,60.8,54.7,61.2,54.2,61.5z"/>
		<path class="st0" d="M62.1,56c0.2-0.1,0.4-0.2,0.5-0.4C62.5,55.8,62.3,55.9,62.1,56z"/>
		<path class="st0" d="M16.3,92.5c11.5-11,24.6-21.7,37.9-31C40.9,70.8,27.8,81.5,16.3,92.5z"/>
		<path class="st0" d="M56.6,59.8c0.3-0.2,0.6-0.5,1-0.7C57.3,59.4,56.9,59.6,56.6,59.8z"/>
		<path class="st0" d="M81.4,44.3C81.4,44.3,81.4,44.3,81.4,44.3C81.4,44.3,81.4,44.3,81.4,44.3z"/>
		<path class="st0" d="M113.7,33.6c0.1,0,0.1,0,0.2,0C113.9,33.6,113.8,33.6,113.7,33.6z"/>
		<path class="st0" d="M97.5,37.6C97.5,37.6,97.5,37.5,97.5,37.6C97.5,37.5,97.5,37.6,97.5,37.6z"/>
		<path class="st0" d="M111.3,34c0,0,0.1,0,0.1,0C111.3,34,111.3,34,111.3,34z"/>
		<polygon class="st0" points="116.4,33.2 116.3,33.2 116.4,33.2 		"/>
		<path class="st0" d="M68.7,51.7c0.1-0.1,0.2-0.1,0.3-0.2C68.9,51.5,68.8,51.6,68.7,51.7z"/>
		<path class="st0" d="M70.5,50.6c0.1-0.1,0.3-0.2,0.4-0.2C70.7,50.4,70.6,50.5,70.5,50.6z"/>
		<path class="st0" d="M83.2,43.4c0,0,0.1,0,0.1-0.1C83.3,43.4,83.3,43.4,83.2,43.4z"/>
		<path class="st0" d="M72.3,49.4c0.1-0.1,0.2-0.1,0.3-0.2C72.5,49.3,72.4,49.4,72.3,49.4z"/>
		<g>
			<path class="st1" d="M51.5,134.7c-8.7-8.7-25.1-10.4-29.5-22.5c-4.3-10.4,1.7-19.9,10.4-26c9.5-7.8,17.3-14.7,26-22.5
				c7.5-6.7,15-13.2,22.8-19.2c-3,1.5-5.8,3.2-8.6,4.8c-0.1,0.1-0.2,0.1-0.3,0.2c-0.5,0.3-1,0.6-1.5,0.9c-0.1,0.1-0.3,0.2-0.4,0.2
				c-0.5,0.3-0.9,0.6-1.4,0.9c-0.1,0.1-0.2,0.1-0.3,0.2c-2,1.3-4.1,2.6-6,4c-0.2,0.1-0.4,0.2-0.5,0.4c-0.4,0.3-0.7,0.5-1.1,0.8
				c-0.2,0.2-0.5,0.3-0.7,0.5c-0.3,0.2-0.7,0.5-1,0.7c-0.3,0.2-0.5,0.4-0.8,0.6c-0.3,0.2-0.6,0.4-0.9,0.6c-0.3,0.2-0.7,0.5-1,0.7
				c-0.3,0.2-0.5,0.4-0.8,0.6c-0.5,0.4-1.1,0.8-1.6,1.1c-13.3,9.3-26.4,20-37.9,31c-1.6,1.6-3.2,3.2-4.8,4.8c-30,30.4,8.1,25,8.1,25
				s-16,4-9.4,12.5c6.6,8.5,23,4,23,4s-14.8,7.6-4,14.7c0.2,0.2,0.5,0.3,0.8,0.5c7.4-0.9,14.4-3.2,20.8-8.1c1.2-1,2.5-2,3.7-3.1
				C54.6,139.6,53.9,136.5,51.5,134.7z"/>
			<path class="st0" d="M117.5,50.6c-1.1-5.7-2.3-11.7-1.2-17.4c0,0,0,0,0,0c-0.8,0.1-1.6,0.2-2.4,0.4c-0.1,0-0.1,0-0.2,0
				c-0.8,0.1-1.6,0.3-2.3,0.4c0,0-0.1,0-0.1,0c-4.9,0.9-9.4,2.1-13.7,3.5c0,0,0,0,0,0c-5,1.7-9.7,3.6-14.1,5.8c0,0-0.1,0-0.1,0.1
				c-0.6,0.3-1.2,0.6-1.8,0.9c0,0,0,0,0,0c-0.1,0-0.1,0.1-0.2,0.1c-7.8,5.9-15.3,12.5-22.8,19.2c-8.7,7.8-16.5,14.7-26,22.5
				c-8.7,6.1-14.7,15.6-10.4,26c4.3,12.1,20.8,13.9,29.5,22.5c2.4,1.8,3.2,5,3.1,8.2c7.3-6.3,14.3-13.3,23.2-17.7
				c6.9-3.5,13,1.7,19.1,4.3c16.5,4.3,31.2-11.3,33.8-26.9C134.9,82.7,121.9,68.8,117.5,50.6z"/>
		</g>
	</g>
	<path class="st5" d="M153.7,156.3c-2.1,2.3-4.8,4-8,4.3c-3,0.3-6.6-0.7-8.7-3c-0.5-0.5-0.9-1.1-1.2-1.7c0.7-1.8,1-3.7,1.2-5.7
		c0.6-4.6,0.4-9.4-0.5-14c-0.4-1.9-3.4-1.3-3,0.6c0.7,3.7,0.8,7.3,0.6,11.1c-0.2,3-0.5,6.2-2.1,8.8c-1.7,2.6-5.1,4.1-8.1,4.3
		c-3.2,0.1-6.1-1.2-8.6-3.1c-1.5-1.2-3.2,1.3-1.7,2.5c5.9,4.7,14.6,5.1,19.9-0.7c0.2-0.2,0.4-0.5,0.6-0.7c0.5,0.7,1.1,1.3,1.7,1.8
		c6.1,5,14.7,3.3,19.8-2.2C157.1,157.2,155,154.9,153.7,156.3z"/>
	<g>
		<path class="st6" d="M123.4,132.5c-3,2.4-3.1,5.7-2.8,7.2c0.5,2.5,9,2.4,9,2.4s0.7,4,5.4,4.2c4.7,0.2,5.3-4.3,5.3-4.3
			s5.4,0,7.8-3.4c0,0,0.6-2.8-1.5-5.3C138.9,135.4,130.9,134.8,123.4,132.5z"/>
		<path class="st7" d="M134.9,129.5c-5.8,0-9.3,1.3-11.4,3c7.5,2.4,15.5,2.9,23.1,0.7C144.9,131.3,141.5,129.5,134.9,129.5z"/>
	</g>
	<g>
		<g>
			<g>
				<path class="st6" d="M110.5,107.6c0,5.9-4.8,10.7-10.7,10.7c-5.9,0-10.7-4.8-10.7-10.7c0-5.9,4.8-10.7,10.7-10.7
					C105.7,96.8,110.5,101.7,110.5,107.6z"/>
				<circle class="st4" cx="95.9" cy="103.5" r="4.8"/>
				<circle class="st4" cx="96.6" cy="114.3" r="2.5"/>
			</g>
		</g>
		<g>
			<g>
				<path class="st6" d="M179.6,107.6c0,5.9-4.8,10.7-10.7,10.7c-5.9,0-10.7-4.8-10.7-10.7c0-5.9,4.8-10.7,10.7-10.7
					C174.8,96.8,179.6,101.7,179.6,107.6z"/>
				<circle class="st4" cx="165" cy="103.5" r="4.8"/>
				<circle class="st4" cx="165.8" cy="114.3" r="2.5"/>
			</g>
		</g>
	</g>
</g>
</svg>
