<?xml version="1.0" encoding="utf-8"?>
<!-- Generator: Adobe Illustrator 19.0.0, SVG Export Plug-In . SVG Version: 6.00 Build 0)  -->
<svg version="1.1" id="Layer_1" xmlns="http://www.w3.org/2000/svg" xmlns:xlink="http://www.w3.org/1999/xlink" x="0px" y="0px"
	 viewBox="0 0 173.2 232.1" style="enable-background:new 0 0 173.2 232.1;" xml:space="preserve">
<style type="text/css">
	.st0{fill:#FFFFFF;}
	.st1{fill:#DADFCE;}
	.st2{fill:#353335;}
	.st3{fill:#262426;}
	.st4{fill:#0D0B0D;}
</style>
<g>
	<g>
		<g>
			<path class="st0" d="M152.1,0c0,0,23.1,45.9,21,82.6c-0.6,10.1-3,19.4-8.4,27c-15.8-25.7-32.7-52.9-44.4-81.9
				C127.3,17.2,137.4,7.3,152.1,0z"/>
			<path class="st1" d="M104.5,81c0,0-0.6-13.9,5-30.9c2.3-7.2,5.8-14.9,10.8-22.4c11.7,29,28.6,56.1,44.4,81.9
				c-5.4,7.6-13.8,13.3-26.1,16C114.3,128.5,103.6,94.9,104.5,81z"/>
			<path class="st2" d="M116.5,78c0,0,5.4-21.8,20.7-44.2c15.5-22.5,17.6-9.7,23.6,23.7c4.1,22.7-4.4,49.8-27.7,58.9
				C109.7,125.4,104.3,91.3,116.5,78z"/>
		</g>
		<g>
			<path class="st3" d="M21.2,0c10,5,17.9,11.2,24.1,18C32.8,31,18.8,41.5,3.5,49.9C9.5,23.3,21.2,0,21.2,0z"/>
			<path class="st0" d="M45.3,18c2.9,3.2,5.5,6.4,7.7,9.8c-11.7,29-28.6,56.1-44.4,81.9c-5.4-7.5-7.8-16.9-8.4-27
				C-0.5,72,1,60.7,3.5,49.9C18.8,41.5,32.8,31,45.3,18z"/>
			<path class="st1" d="M68.7,81c0,0,0.6-13.9-5-30.9C61.4,42.9,58,35.2,53,27.7c-11.7,29-28.6,56.1-44.4,81.9
				c5.4,7.6,13.8,13.3,26.1,16C58.9,128.5,69.7,94.9,68.7,81z"/>
			<path class="st2" d="M56.8,78c0,0-5.4-21.8-20.7-44.2c-15.5-22.5-17.6-9.7-23.6,23.7c-4.1,22.7,4.4,49.8,27.7,58.9
				C63.6,125.4,69,91.3,56.8,78z"/>
		</g>
	</g>
	<path class="st3" d="M29.1,88.2c12.5,3.1,20.8,11.4,23.9,23.9c7.1,27.7,7.6,68.7-12.4,90.3c-15.3-17.9-27.5-42.5-27.5-69.5
		c0-16.2,2.9-31.5,8-45C23.7,87.6,26.4,87.8,29.1,88.2z"/>
	<path class="st1" d="M87.3,33.5c41,0,74.2,44.5,74.2,99.3s-49.5,99.3-74.2,99.3c-12.2,0-31.1-11.4-46.7-29.8
		c20-21.6,19.5-62.6,12.4-90.3c-3.1-12.5-11.4-20.8-23.9-23.9c-2.7-0.4-5.4-0.6-7.9-0.4C33.4,55.6,58.4,33.5,87.3,33.5z"/>
	<path class="st2" d="M53,112.1c6.7,26,7.5,63.7-8.9,86.1c-11.6-16.7-20.5-38.5-20.5-62.3c0-17,3-33,8.2-46.8
		C42.7,92.6,50.1,100.6,53,112.1z"/>
	<path class="st0" d="M87.3,40.7c35.2,0,63.7,42.6,63.7,95.1c0,52.5-42.5,95.1-63.7,95.1C76,230.9,58,218.2,44,198.1
		c16.4-22.4,15.6-60.1,8.9-86.1C50.1,100.6,42.7,92.6,31.8,89C42.7,60.2,63.5,40.7,87.3,40.7z"/>
	<g>
		<path class="st3" d="M102,205.3c4.1,3.3,4.1,7.7,3.8,9.7c-0.6,3.3-12.2,3.2-12.2,3.2s-0.9,5.3-7.2,5.6c-6.3,0.3-7.1-5.8-7.1-5.8
			s-7.3,0-10.5-4.6c0,0-0.8-3.8,2.1-7.1C81,209.2,91.9,208.4,102,205.3z"/>
		<path class="st2" d="M86.5,201.3c7.9,0,12.6,1.7,15.4,4c-10.1,3.2-20.9,4-31.2,1C73.1,203.6,77.6,201.3,86.5,201.3z"/>
	</g>
	<g>
		<g>
			<g>
				<circle class="st4" cx="132.1" cy="129.6" r="11.9"/>
				<path class="st0" d="M131.1,125c0,3,2.4,5.4,5.4,5.4c3,0,5.4-2.4,5.4-5.4c0-3-2.4-5.4-5.4-5.4
					C133.5,119.7,131.1,122.1,131.1,125z"/>
				<circle class="st0" cx="135.6" cy="137.1" r="2.8"/>
			</g>
		</g>
		<g>
			<g>
				<circle class="st4" cx="42.4" cy="129.6" r="11.9"/>
				<path class="st0" d="M41.3,125c0,3,2.4,5.4,5.4,5.4c3,0,5.4-2.4,5.4-5.4c0-3-2.4-5.4-5.4-5.4C43.7,119.7,41.3,122.1,41.3,125z"
					/>
				<circle class="st0" cx="45.8" cy="137.1" r="2.8"/>
			</g>
		</g>
	</g>
</g>
</svg>
